<mxfile host="app.diagrams.net" modified="2023-10-27T17:00:09.962Z" agent="Mozilla/5.0 (Windows NT 10.0; Win64; x64; rv:109.0) Gecko/20100101 Firefox/119.0" etag="mWdSe5S96pV1pIiCKSO6" version="22.0.8" type="device">
  <diagram name="Pagina-1" id="2B0ki6cu6mSwIRdqPrqN">
    <mxGraphModel dx="2801" dy="626" grid="1" gridSize="10" guides="1" tooltips="1" connect="1" arrows="1" fold="1" page="1" pageScale="1" pageWidth="827" pageHeight="1169" math="0" shadow="0">
      <root>
        <mxCell id="0" />
        <mxCell id="1" parent="0" />
        <mxCell id="3Li22gLX3umGWUl0SlII-1" value="elenco delle rappresentazioni dell&#39;entita&#39; libro tramite la strutturazione dell&#39;archivio del libro in forma di tabella&#xa;&#xa;la tabella, come per altre entita&#39;, viene raggrupata in un contenitore dati definito come &#39;database&#39;.&#xa;&#xa;nel caso specifico la tabella &#39;libro&#39; Ã¨ presente nel database &#39;biblioteca&#39;&#xa;" style="text;whiteSpace=wrap;fillColor=#1ba1e2;fontColor=#ffffff;strokeColor=#006EAF;fontSize=22;fontStyle=1" vertex="1" parent="1">
          <mxGeometry x="-1090" y="230" width="540" height="250" as="geometry" />
        </mxCell>
        <mxCell id="3Li22gLX3umGWUl0SlII-2" value="" style="shape=flexArrow;endArrow=classic;html=1;rounded=0;fillColor=#0050ef;strokeColor=#001DBC;" edge="1" parent="1">
          <mxGeometry width="50" height="50" relative="1" as="geometry">
            <mxPoint x="-530" y="340" as="sourcePoint" />
            <mxPoint x="-420" y="340" as="targetPoint" />
          </mxGeometry>
        </mxCell>
        <mxCell id="3Li22gLX3umGWUl0SlII-3" value="operazione di interrogazione dell&#39;archivio- tabella &#39;libro&#39;&#xa;1) ricerca nell&#39;archivio dei libri di quelli con edizione compressa tra il 1993 ed il 1999" style="text;whiteSpace=wrap;fillColor=#d5e8d4;strokeColor=#82b366;fontSize=22;fontStyle=1" vertex="1" parent="1">
          <mxGeometry x="-10" y="610" width="540" height="130" as="geometry" />
        </mxCell>
        <mxCell id="3Li22gLX3umGWUl0SlII-4" value="entita&#39;&#xa;&#xa;caratteristiche (nome dei campi della tabella)&#xa;&#xa;rappresentazione concreta dell&#39;entita&#39;&#xa;si chiama istanza-record (con valori dei campi)&#xa;ogni valore della caratteristica si dice valore del campo del record.&#xa;&#xa;rappresentazione concreta dell&#39;entita&#39;,&#xa;si chiama istanza-record (con valori dei campi)&#xa;ogni valore della caratteristica si dice valore del campo del record." style="text;whiteSpace=wrap;fillColor=#f8cecc;strokeColor=#b85450;fontSize=22;fontStyle=1" vertex="1" parent="1">
          <mxGeometry x="1040" y="210" width="540" height="360" as="geometry" />
        </mxCell>
        <mxCell id="3Li22gLX3umGWUl0SlII-5" value="" style="shape=flexArrow;endArrow=classic;html=1;rounded=0;" edge="1" parent="1">
          <mxGeometry width="50" height="50" relative="1" as="geometry">
            <mxPoint x="590" y="354.33" as="sourcePoint" />
            <mxPoint x="480" y="354.33" as="targetPoint" />
          </mxGeometry>
        </mxCell>
        <mxCell id="3Li22gLX3umGWUl0SlII-6" value="" style="shape=flexArrow;endArrow=classic;html=1;rounded=0;fillColor=#0050ef;strokeColor=#001DBC;" edge="1" parent="1">
          <mxGeometry width="50" height="50" relative="1" as="geometry">
            <mxPoint x="220" y="580" as="sourcePoint" />
            <mxPoint x="220" y="510" as="targetPoint" />
          </mxGeometry>
        </mxCell>
        <mxCell id="3Li22gLX3umGWUl0SlII-9" value="" style="shape=image;verticalLabelPosition=bottom;labelBackgroundColor=default;verticalAlign=top;aspect=fixed;imageAspect=0;image=data:image/png,iVBORw0KGgoAAAANSUhEUgAABRsAAADpCAYAAACk2eAFAAAgAElEQVR4Xu29e9xuRXXnuVGSFjQwiqQFuQYQdNTGS4wRBCFGEZEExkGNR+1ATI7EEY1EwdZ2pj/iBEjaOxyinaS9YFTAy4iXsT0KBAW8CxoQBOTqkNBe4yUambceTj3WW6f2rlX78uxaVd/z+fiHvPXUXuu7frWq9tq1a2+zcePGu846++yGfxDIkcCnP/Wp5gmHHZajadgEgQZ9IoI5CKC7OahzTQhAYA4C5Ls5qHPNKQig5Smo0mcfAmixDzV+k0LAamwbU2zctGlTym9pCwEIQAACEIAABCAAAQhAAAIQgAAEIAABCEBgHYHNmzc3i2Lj2W++AzQQgAAEIAABCEAAAhCAAAQgAAEIQAACEIAABHoR2GbbC5pf3HUXxcZe9PgRBCAAAQhAAAIQgAAEIAABCEAAAhCAAAQgsCRAsRExQAACEIAABCAAAQhAAAIQgAAEIAABCEAAAqMQoNg4CkY6gQAEIAABCEAAAhCAAAQgAAEIQAACEIAABCg2ogEIQAACEIAABCAAAQhAAAIQgAAEIAABCEBgFAIUG0fBSCcQgAAEIAABCEAAAhCAAAQgAAEIQAACEIAAxUY0AAEIQAACEIAABCAAAQhAAAIQgAAEIAABCIxCgGLjKBjpBAIQgAAEIAABCEAAAhCAAAQgAAEIQAACEKDYiAYgAAEIQAACEOhF4Kf/753NvY68qNdv3R/9+8fdt7n8okObPbe5R2tfF/wfVzX/29nf2OrvB5ywR/OP5zxaZMPpv3tZc8qnbhO1NY2MXQ978A7Ny1+6X/PEB+3Q+rvUfkMdXfSvv9ccco97Lv901Zu/1TzsxV9Y19RvI3ZkreHY/bVde4w4Sfwa05+Qjt/2td9pTth/x6UpqTGeSjum3/3WxsmzXrZf89QjH9A5ZnyO//bNHzWv+6trmw9+7bvNP1x657o/H3zQTs2Bv79Lc9JRuzb77ncfSQhoAwEIQAACEIAABFoJUGxEHBCAAAQgAAEI9CKwymLjH+76P5q/u+P7QTulRbjUgpF7sSeesGfztk2PCBZ3hvRrr1FKsXGMOEnEmHuxcVXa8YuiIXamyPjHz/9i8zcX3yFB2xitxwrsoo5oBAEIQAACEIBAtQQoNlYbehyHAAQgAAEIDCOwqmJj7Donf+C3mjOPemDUmaFFwbZdlEP7NYaXUGwcK07RQK410FRsNP6sUjsuPxOTw55xefPZH/xEgnVdG0khM7lTfgABCEAAAhCAQBUEKDZWEWachAAEIAABCIxPIFZckl4x9hp126u5tn/pq9RjFAVDhc0x+i2h2DhWnCS60VZsND5NpZ02/ZsdjY9/9Kd7FRptDCg4StRIGwhAAAIQgAAEfAIUG9EEBCAAAQhAAAKjE5Ccgye5aKhg8sd/tFfz12+7cd3PJa9S+0XBriKlue4HX3/9VudEhn6T0q/EZ9NmzGLaFP35fowZJwmjMflItJoS4ym101bQDem/7ZX2F5750HVnMxp7L7zw281fvPrqYGFSMrYkMaMNBCAAAQhAAAL1EKDYWE+s8RQCEIAABCCwMgKSAo7EGL+oZHZB/sN/+83muY+5eF1h5Ogz/9fmgy/Zv7PLlIKR7UjyG0kbia9umzGLaasoNo4ZJwmrMflItNonxpLfSNr4PEIFR38HYoiP6ecTX39i68eOTNHxjx7/ma3ORpWMLUnMaAMBCEAAAhCAQD0EKDbWE2s8hQAEIAABCKyMgKSAIzHGL8bYwof/32OvYptrjVHYYWdjOGpjxkmiCw3FRr8oOJZ2Qr77xcbQrkbJK9Ftr16zu1GiStpAAAIQgAAEIGAJUGxECxCAAAQgAAEIjE5gjGJjqPBhix6SgovvVJ9iY1sRze27T78x4GMW08y1xu7PtX/sOMXYjO2PRKt9YjyVdkJnhLrFwJA/0nNNDdvQzknpR5gksaMNBCAAAQhAAALlE6DYWH6M8RACEIAABCCwcgKSAk7MqK6dYaECV+x1z5SCken/Lzd+tTnlU7etMzO0wyul35jP9u9jFwfH7s/1Y+w4SRiN6Y9Eqykxnko71137w+arb7xxq3NE/V29ITYpxcIQj9jYksSMNhCAAAQgAAEI1EOAYmM9scZTCEAAAhCAwMoISAo4MWP8V0H9gknqq9RDvxrd9hrqFP2OWUwznMfuz43d2HGK6WJsfyRanSLGxo+h/Zo+/HEhOdOxi3GokJ+yM1ISP9pAAAIQgAAEIFA2AYqNZccX7yAAAQhAAAKzEJAUcLoMC/3e31WYuoOrb2HH7Bx759se1fphjb79Wv9DRcyxi4Nj92dtnyJOEsGO6Y9Eq31jPLV2nnjCns0nznnUOmShYmPKmYsUGyUKpA0EIAABCEAAAl0EKDaiDwhAAAIQgAAERicgKeB0XVTycY3UokjfgpG1s+1V1KH9ai42ThEniRi1FBun0o4pYj7nZQ9qzjzqgVvhip3pKOHr71ZlZ6OEGm0gAAEIQAACELAEKDaiBQhAAAIQgAAERicwpNgYKiKmFPradnENLQoaSKGz64b2q7XYOFWcJGLUVmwcSzuxnZLmOkOLjalFfEm8aAMBCEAAAhCAQF0EKDbWFW+8hQAEIAABCKyEwJBiY0ohKeVV6tSPfFx44bebv3j11c1nf/CTdcz84mBKv1L4KQwkfY7dn7lmSp8pcVq1PxKtpsTYFOvG0E7bh2b8D8L4vDizUaIg2kAAAhCAAAQgMCUBio1T0qVvCEAAAhCAQKUEJAWcNjRDdwq2vfKZUjCytkm+zNun35gsUgp5sb5SC4OS/kybqeIkuf6YfCRa7RPjsbQT4txVcBxa2JXYLYkRbSAAAQhAAAIQqJcAxcZ6Y4/nEIAABCAAgckISAo4oYuHXuHsY2To1eQ+BSNzbf/8Or/Q07ffLr/GLKZNUWycMk6SeI/JR6LVvjEeSzt+P4ZR6JV+899D/qScuRjaGdl2jIEkVrSBAAQgAAEIQKA+AhQb64s5HkMAAhCAAAQmJyAp4ISMCBU6+hgrOVtRWoAZq2CU4seYxbQpio1TxknCaUw+Eq3OXWwM+Ws4hYrq5r+HipNtbV3eIRbm7ylfs5bEjzYQgAAEIAABCJRNgGJj2fHFOwhAAAIQgMAsBCQFnJBhoSJJHwdCr5n2KRhJdon16Tfm05jFtCmKjVPGKcZmbH8kWu0T47G1k/I6dVtx8hNff2LzxAftEETctlu1bQelJE60gQAEIAABCECgTgIUG+uMO15DAAIQgAAEJiUgKeD4BvT5je1D8lGM1ILR1R+7ozn+WZ/f6gMxfvEltV8J+JyLjVPHadV8JP6kxngK7bTtOmx7xbmtIPzCMx/anHTUrs2++91ngbrrgzbm7+xqlCiSNhCAAAQgAAEIuAQoNqIHCEAAAhCAAARGJyAp4PgX9QuGsa/uur+XfNRi6AdN7PX84ssY/foFo7adaSmBcu0cs7+p4yTxcUx/JFodI8ahwl1qEbPt9fVQQdD4ddgzLt+qWC7ha9tIXr1O6Y+2EIAABCAAAQjUQYBiYx1xxksIQAACEIDASglICji+Qf5OrNTXN0M7udwizBgFI8lZkH1Aayo2Th0nCT+NxUaJdiTniKZ+LKZvwZGPwkiUSBsIQAACEIAABEIEKDaiCwhAAAIQgAAERieQWmwMFY9Sd1XFvqI7tNjYVvwc2q+Br6XYeL+zbmke9uIvrNPL2HGSiFFbsVGqHUmxMfVjMeY16T9+/hebv7n4Dgna5uCDdmpe/dZHtJ7tKOqERhCAAAQgAAEIVE2AYmPV4cd5CEAAAhCAwDQEUouNfsEu5RVq60Hsgxx9ioKm8HLg7++y7ow7n1iffv0+tBQbP/vkzzWnfOq2pflTxEmiSA3Fxj7akRQbDZ+Q5mK/NUXHN334tub8C25t/uHSO9dhtrb+3lMfQJFRIkDaQAACEIAABCDQSYBiIwKBAAQgAAEIQAACEIAABCAAAQhAAAIQgAAERiFAsXEUjHQCAQhAAAIQgAAEIAABCEAAAhCAAAQgAAEIUGxEAxCAAAQgAAEIQAACEIAABCAAAQhAAAIQgMAoBCg2joKRTiAAAQhAAAIQgAAEIAABCEAAAhCAAAQgAAGKjWgAAhCAAAQgAAEIQAACEIAABCAAAQhAAAIQGIUAxcZRMNIJBCAAAQhAAAIQgAAEIAABCEAAAhCAAAQgQLERDUAAAhCAAAQgAAEIQAACEIAABCAAAQhAAAKjEFhXbNy0adMondIJBCAAAQhAAAIQgAAEIAABCEAAAhCAAAQgUCeBzZs3N9ts3Ljxrt/4j2+skwBeZ0/gZY/91eaMy/41ezsxsE4C6LPOuM/tNbqbOwJcHwIQWBUB8t2qSHOdqQmg5akJ07+UAFqUkqJdXwJGY7+46y6KjX0B8rvVECAZroYzV+lHAH3248avhhFAd8P48WsIQEAPAfKdnlhhaTcBtIxCciGAFnOJRLl2UGwsN7ZFeUYyLCqcxTmDPosLqQqH0J2KMGEkBCAwAgHy3QgQ6SILAmg5izBgxBoBtIgMpiZAsXFqwvQ/CgGS4SgY6WQiAuhzIrB020kA3SEQCECgFgLku1oiXb6faLn8GGvxEC1qiZReOyk26o1dVZaTDKsKtzpn0ae6kBVhMLorIow4AQEICAiQ7wSQaKKCAFpWEaYqjESLVYR5VicpNs6Kn4tLCZAMpaRoNwcB9DkHda6J7tAABCBQCwHyXS2RLt9PtFx+jLV4iBa1REqvnRQb9cauKstJhlWFW52z6FNdyIowGN0VEUacgAAEBATIdwJINFFBAC2rCFMVRqLFKsI8q5MUG2fFz8WlBEiGUlK0m4MA+pyDOtdEd2gAAhCohQD5rpZIl+8nWi4/xlo8RItaIqXXToqNemNXleUkw6rCrc5Z9KkuZEUYjO6KCCNOQAACAgLkOwEkmqgggJZVhKkKI9FiFWGe1UmKjbPi5+JSAiRDKSnazUEAfc5BnWuiOzQAAQjUQoB8V0uky/cTLZcfYy0eokUtkdJrJ8VGvbGrynKSYVXhVucs+lQXsiIMRndFhBEnIAABAQHynQASTVQQQMsqwlSFkWixijDP6iTFxlnxc3EpAZKhlBTt5iCAPuegzjXRHRqAAARqIUC+qyXS5fuJlsuPsRYP0aKWSOm1k2Kj3thVZTnJsKpwq3MWfaoLWREGo7siwogTEICAgAD5TgCJJioIoGUVYarCSLRYRZhndZJi46z4ubiUAMlQSop2cxBAn3NQ55roDg1AAAK1ECDf1RLp8v1Ey+XHWIuHaFFLpPTaSbFRb+yqspxkWFW41TmLPtWFrAiD0V0RYcQJCEBAQIB8J4BEExUE0LKKMFVhJFqsIsyzOkmxcVb8XFxKgGQoJUW7OQigzzmoc010hwYgAIFaCJDvaol0+X6i5fJjrMVDtKglUnrtpNioN3ZVWU4yrCrc6pxFn+pCVoTB6K6IMOIEBCAgIEC+E0CiiQoCaFlFmKowEi1WEeZZnaTYOCt+Li4lQDKUkqLdHATQ5xzUuSa6QwMQgEAtBMh3tUS6fD/Rcvkx1uIhWtQSKb12UmzUG7uqLCcZVhVudc6iT3UhK8JgdFdEGHECAhAQECDfCSDRRAUBtKwiTFUYiRarCPOsTlJsnBU/F5cSIBlKSdFuDgLocw7qXBPdoQEIQKAWAuS7WiJdvp9oufwYa/EQLWqJlF47KTbqjV1VlpMMqwq3OmfRp7qQFWEwuisijDgBAQgICJDvBJBoooIAWlYRpiqMRItVhHlWJyk2zoqfi0sJkAylpGg3BwH0OQd1ronu0AAEIFALAfJdLZEu30+0XH6MtXiIFrVESq+dFBv1xq4qy0mGVYVbnbPoU13IijAY3RURRpyAAAQEBMh3Akg0UUEALasIUxVGosUqwjyrkxQbZ8XPxaUESIZSUrSbgwD6nIM610R3aAACEKiFAPmulkiX7ydaLj/GWjxEi1oipdfOwcXGOz7z5ubid5zfXPGlS5cUfuORxze/+4qzmn12u8foZH5x01nNpuec3Pzgae9tXn7yUc02d32z2Xzi45qP3vOU5pVvekmzwzajX7K1w3/9zEnNK//s7ODf73vgQc3DDju5OeS4py5tCtl65el7N++46EnNSRee0zyww3b/tzs2w/3++S3XNdvutu/qgA24Uo3JsEtfPsrD3/Dj5imPuTE4FvrGec6xNUAqs/y0ZH0udXDNg5tnvX1z84gR8npfTc4S3IwvWrLuMsaelWnSeWKnp1+wWDN1/ZOurxi/WUmgGmM05LvYfcH9931pc8yzjmzu/8Dx74/GFEKf9V+f34xps6a+NGi5D8/v3PTx5sp3n9lc9ZHPNDf+9OeLLkL3w3365jfTEJBqcYp7gWk8kvUqXe/4vc2x5urySEPe7V1sXDr3pe+0MnjoS69snvu/7y+LurBVX3EIu09qJhGcu8DPqdh423te2Jz/9p81x364u8iZBGTCxtJkOKEJK+9aoi9rVFuxcUicNSSwlQel5YIl69PmXLNwHCOnD9FkLvHOxY6SdZcL49ztkM4TYxUbGb+5K6Jc+zTkO9F43P5xoz24myrafdZ/fX4zlf2596tByykMTey/euafNO+44OL2nynQfYrPpbSVanHse4G5+fWtJ4ly/JpzY625Ypw05N3excbFjrz339rc5xHHN895xcnN3rvfvUPOOH3HZ97YvO8Vb21uvOdjRp9QfXHEgjDl363gTKHniN+657pL/dvNH2/ef9pzmiu+8ZBOBn13Ng7dwSm97pT8UvqWJsOUPrW17ZNQhsS5z/W0MR3L3pL1aTV00CEfay69+IjoLuwY0yGajPVd299L1l1tsezrb9c6JLVPyfqK8ZtKlfZjEdCQ77rGo9kR/I/nbry7IHO/Pxw8l47FlX5WT0CDllOo2JqA2cX46Oed0/zWYx+0fKsP3aeQXH1bqRbHvhdYvafrryhZ74RsXPWaa25OY1y/V7FxWdV99Omtry7bNpLKboojfcWRcg1p25jg7N+7dgNJF+5jF36k15WymLqdNBlObcec/ffRwJA497nenHzmvHap+rzHLz7R/P2Tjm1uOOLdzfG//YnmzJee3YQerqSwH6LJlOvU0LZU3dUQu7F8jK1DUq4jWV8xflOI0nZMAhrynWQ82sLMGG8KjMmXvlZHQIOWpTTsvPHPD3luc8JZm1qPBLv9749oXvf6zYPXkFK7aCcjINHiFPcCMuumayVZ71BsHId/r2LjYqL8+J6dO/ZMoeJr772w2e5xRy53PRqTzY6/S89df57DAcee0Rz6By/a6ozHxe7A1/7F8jzI/dbOHHr6cTc17xac2bjcWfjl7y5I7blWGD3ilJOC1zD2fPj9W7Z+r23zPuRP/nzdWYttqGOLCv/vXa9Rv/jDL2vu/MtfbkH3z72UntkY4xt6/d0tCNvfS3hIGf/TpSc173/7u5rrvvL9u1EmMLbsJclwnCGRby+x4p/79//8xqObz/3p2lmmzjEHoTi756r447DtejGN5UtwOstK1aebw478zc2LwuPnD/gvWz1katPKVJq8Yp//1jx3tzcvFq5mh8if/PXZi9yekr+mU8Pqei5Vd6sjqP9KsXVIm4ep66sx5xTGr37dzeGBhnwnGY/ujbt7jqp0/rKvrF5y4S/PxWs7Kz+2TrdztD8mX3DOnzc3vvag5Xn49/ps+xn1Zk1vznN+5ANvCJ4bLlkzumuFU1/275pPvvb/bK4w929rfR/8gnOao70juaSs5tCp5JoatCzxw7SRFhGN7jf/1dea+z7zqc1/2H2/ZfeSWE6hjzbt17aelGixz71A1zjuG8+ue9Yuvaaud7q+ASLJ8SFb+thQSt5NLjbGCh5dwXbf99+qnfdKQVtbs0V7x3+8vPMDMa3XEV7D2CbZkSl6jfqmY5avSnQVGxevKH7g9vVYnPMtJMVGCd/d7IdlAkWort/7PKSM7SQU0kXKU11JMpROjFrbxcaetLAj0Yn5WFHoetLfamXc1+4S9bmM/7d+f5nD2h40DS02SnVlr3PZXQ9ZzAOLA8i37LC/z813fzzMHkruxlKSz/vGfs7flai7OXlqvHafhW+f9VVXsZHxq1E5+mzWkO8k4zF1beXPX3Zn5FYR9M7Ek6zT2+bU5Xjf8vHNvje9qbnBfUDu+ufeL6Tcq+Sqcg1alrCL3ZfE+pDGMrRRZqg+WE/eTTCmxV73Ai3f87DjeKx4So6j6LPeGbvY2NeGUvJucrGx7YlcLKGYv9sJ0uxQfMZLj1qc52Cf0JkzTOyE6orwwJe8vzlqyxedzZevzzv1ZYubya3abpkQl19pXhO6K+qv//2fNn/7hvXbt6097jVce2KvC0YPCV2b+A//vz+5PM+xtdi4dvalGTDPPufkxdOeTia+n85XuKV8l7HwvoIt5eHGp4ux1crnf/UPljuPzLXNoDvv+JcHd0i16SiWDCX6094mNql3FbPdr51LddKl19gY1s461f4S9Wknx/u88EvLD321vXYgKTbayTv0GmayJp38bmMlzV+psc25fYm6y5l3jrZF1yHG6NCDy7UxlLq+Mms2xm+OKqjDJg35TlJsDK3BpfPXcl3tvWFg3iAyx5yEbua71umh9byxL7bedO/ptrpmj/sS1w5zf/eCLfeIdsOCW3CVssp5VGjQsoTfkJqAq6HYffgU+mjTfopdEka5t4lpsde9wNr6omsc94lnn/vOIfWktm9jrHrN5evHP4ZjyL16nzjExmpI7ysrNrZNkOsmtS07aHbZskPlB097b+O+YmDa+mdB+pD/l7t+ecaY/1sXQNe7+rZP81pBVx8SwfmDY/OJa6+2+hNx4JV0/0nCckdiS7HR+t35iqO/Q8kpNqbw6DO53Hnzdc2dt1zb3H7J/9Nc88333v1KdceZn75YY8kw92Q+hn2xxZ+k2JgyDn3NpWpsDJ+19FGiPkO7GENPOLtuTCbTpJPLzPVT8pcWTUnsLFF3Er9p80sCknWIW2zsGiux9VWo2NhrTmH8IuEeBDTkuz7Fxq57Hv9+ZDnefvGo5oAjfr85+PH7N/fb48nN/R94j3VEpev01DndXsQWAc09zvNPPmrxn9vuxyT3Jcv1ppcb/Pxi32AI3R9K7916SG/0n2jQssTpLp0tY/fDn67vynsbRRLLNp0O0Udbn7WtJ2Na7HUvEBnHy41hkXZD7zuHrndCY2DVay7XBq15N7nYGCt4tCWnUGV8K4B//ZPFuR//4RebFq/DuTtqbFs/sfn22Iko9NtQsTH0yt2yXaQY1rWoMHbZ3ZTRp37eDsN1k/kWJv5ZKMuBuqX4GPN7IdAtfT1i7Wwzf3dC56sO1iBvgogxdosAQc4UGyVz+bJNbOxJCjsp49DXXKrGkpxT3jg2WWtzr3WR6DjivtY0ZGfjEE3aJ48p+avtaaW2GBl7S9OdxhjMbbO0uGHt7BpvsfVVqNjI+J1bAfVcX0O+k4zHtvsW6f1I8Hgi7yz02Li0qkmZu9fdm6ydl+y/3p16P+bel7Sd9ziUVa6jQ4OWJey67kukxUaJ7v17XruOG6KPtj5rW092aXGqe4HUeLbVG/zahq/ZoeudrmJj7O3XsdZcJeTd5GKjcVrygRi/XVcB0bR1BZNNsdE749EXXWxR4SfB0ODq+rJj10Q8S7FxCw/7FDZWbHST1EOO+aPm/ns9tdlvz/2aX9/1huYTxz+d16glM7nThmJjIrAVNi9l4WiRiZ7cOQ8LUm5Y2h50SBYTbTckosVhJJ+vUC6jXao03Y0GpqKOYuuQsRffjN+KxJWZqxrynWQ8+rtt+sxf37np482V73Y+bmljlbgpIGXuNpdYrg0CmwWyKTYqmOs1aFk6/KU1gV6FwS2x9N+0GlRsjPTZZzxKWeXYrkuLU90LUGy8WwmSB7wl5N1excblQHzYaVt9ldSv5N64pU3KVthVvkYdK5h1JYbYoiL2KvRyl0BGr1FLeEhfz2jj0/XaVRvvkibmvpPNGMXGXq+8bdk9mzKGzQdmavpXkj7bXi1x42nPDLFP9qSvuIz2GqZzFIWxS7qLozRNlqS70mKzKn9i65C2YmOfY2oYv6uKKtcJEdCQ7yTj0Z8/h85fP7/luuZ/3vSx5uK3/5fmim88ZPGG2KN2/WTz9086trnhiHd3HgeVUmzsKjSaeI3yGrU3t6cWMLWMHA1alrKU1ARC+oi9LeVeX6rTMfocOh6l3HJp16bFQfcCkXEsLTYOve+c8jXq1J2NfddcJeTdXsVGM0DsZHmfRxzfPPl5f9b81mMftBg3Rpxfe8/rmk+f/TeLD7m4wZB+BMDtP/UAc/cDMb/7uqua3/3tu+2yH5exwV4Oomse3Bz8gnOaJzx9/8UHa8w/c9Dy+17x1uUXr9sSgvQ16raP2SwX7msfiDEcn/2fzmr2WXvF2dj21TP/pAl+NGfMD8Q4Rc4UHsu2awfAdjF2z3+yhz0vPv1+2nOaK778Xc5sTJxpehcbvWK2dBy2vpa9ptc+B/UmuquqeYkLx9DEaIMSmsBbDy02X6VzdkGEnoIP0eS6ReyAfK5KcFuMLUl3GvnnYLOkuOHbGfrAguQDfG0PSBm/OSihfBs05Luu8WiKgv947sbF2t6dE1PW3+7ce8Kzjlye1WjW1he/9rnNR9fmQFNsXL4FEFmnpxZxbrz3cxr3g4OxgtBoucG/91E+12vQckpGWX4hfcvr/I89+ClLbRqN/X+f/ejdxXDn3m95vy6IpVSno/YpsCuFUa5t27TYVahruxdIjlOkKOnWSfredw5Z74Ritso1ly2ea8+7vYuNbsGpbQC5Z3qZNp1bk52vJXa1Na/j/ugjf7csBIaE3Xod4TUW/nhtuwTXmUBCX4H0PxCzdmbjQYd8rLn0A7ev78p5FUDySnYKX/fMF1sMTfm9hHH0rIeEVx1Km5j7TDp9io1D4pw0toRjpo/fGn5Tkj6tZrqe2rk3R4NcJi0AACAASURBVObGxpwDG3rdwjxEechdFzRXbHvqchf82Jr0Fz3B838E+VyDznwbS9KdRv452Cx6zckY6sy3bfO3ZH3F+M0h6nXaoCHficZjYD5KWX8vCzsBGbjnKErW6ZLiwH9+49HN5/507eOW5sFh27+1B4rLds49jtQviR2vfNNLFptCpH3mPEo0aDmV35VnPPHuQnrHP3djTUpdYAp9dN1TlaAxafzatNjnXkB69qp0Z+MY433Ieqd37WeENVdJebd3sdFwNAP1js+8sXn/O77aXPflS5cx+Y1Hru12PPXkZu/d990qTubp26XnOueMrE26+x15cnOM84TO/shva6raTz/upubdax+P2WqHolcdX7eDbq1DP8G1XcP89wOOPaM59A9etNhl2PWvc1Gx5pf5UpzbT+tOsbVi44s//LLmurXdjB9+/92J2tjw9D9/8XK3paTYaH4n5WsKge898dlb7TDc6vcdPCSM/Tb3PfCg5tHPO6d5wMVPbt4ReH28jXeJE7N0IrDt+hQbxXEOjMO260k1luqf5val6HP5gOBX/6B194KNk12IuA+VbnvPC5sPnHX3rnaTw447+Wl336Q4+XkKTY6RzzXqrxTdaWSfi82i4oa38A2tFaTrK8ZvLpGvzw4N+a5rPJr178MOO7k55LinLtf2bhSl62//DTLTh11b27e53Dlx+TZR4F5IUsQZctMrvS+R2GGLjcE+E+7dchg5GrTch5PV8FUf+cxiHbj4t+V++LBnHSWrCwRiOYU+YvdU0vHYh1NOvwlpse+9wPOevm2z+cT1a37jq7SGMdV955B6kh+rVa25Ssq7g4qNOQ0WbCmbQKkTc9lRq8c79FlPrHPyFN3lFA1sgQAEpiRAvpuSLn2vkgBaXiVtrtVFAC2ij6kJUGycmjD9j0KAZDgKRjqZiAD6nAgs3XYSQHcIBAIQqIUA+a6WSJfvJ1ouP8ZaPESLWiKl106KjXpjV5XlJMOqwq3OWfSpLmRFGIzuiggjTkAAAgIC5DsBJJqoIICWVYSpCiPRYhVhntVJio2z4ufiUgIkQykp2s1BAH3OQZ1rojs0AAEI1EKAfFdLpMv3Ey2XH2MtHqJFLZHSa+e6YuOmTZv0eoLlEIAABCAAAQhAAAIQgAAEIAABCEAAAhCAwOwENm/e3GyzcePGu448/urZjcEACIQIHP2YTzcfuuIJwIFAlgTQZ5ZhKd4odFd8iHEQAhDYQoB8hxRKIYCWS4mkfj/Qov4Y5u6B0dgv7rqLYmPugardPpJh7QrI23/0mXd8SrUO3ZUaWfyCAAR8AuQ7NFEKAbRcSiT1+4EW9ccwdw8oNuYeIexbECAZIoScCaDPnKNTrm3ortzY4hkEILCeAPkORZRCAC2XEkn9fqBF/THM3QOKjblHCPsoNqKB7AkwWWcfoiINRHdFhhWnIACBAAHyHbIohQBaLiWS+v1Ai/pjmLsHFBtzjxD2UWxEA9kTYLLOPkRFGojuigwrTkEAAhQb0UDBBJi7Cw6uMtfQorKAKTSXYqPCoNVoMsmwxqjr8Rl96olVSZaiu5KiiS8QgEAXAfId+iiFAFouJZL6/UCL+mOYuwcUG3OPEPYtCJAMEULOBNBnztEp1zZ0V25s8QwCEFhPgHyHIkohgJZLiaR+P9Ci/hjm7gHFxtwjhH0UG9FA9gSYrLMPUZEGorsiw4pTEIBAgAD5DlmUQgAtlxJJ/X6gRf0xzN0Dio25Rwj7KDaigewJMFlnH6IiDUR3RYYVpyAAAYqNaKBgAszdBQdXmWtoUVnAFJpLsVFh0Go0mWRYY9T1+Iw+9cSqJEvRXUnRxBcIQKCLAPkOfZRCAC2XEkn9fqBF/THM3QOKjblHCPsWBEiGCCFnAugz5+iUaxu6Kze2eAYBCKwnQL5DEaUQQMulRFK/H2hRfwxz94BiY+4Rwj6KjWggewJM1tmHqEgD0V2RYcUpCEAgQIB8hyxKIYCWS4mkfj/Qov4Y5u4BxcbcI4R9FBvRQPYEmKyzD1GRBqK7IsOKUxCAAMVGNFAwAebugoOrzDW0qCxgCs2l2KgwaDWaTDKsMep6fEafemJVkqXorqRo4gsEINBFgHyHPkohgJZLiaR+P9Ci/hjm7gHFxtwjhH0LAiRDhJAzAfSZc3TKtQ3dlRtbPIMABNYTIN+hiFIIoOVSIqnfD7SoP4a5e0CxMfcIYR/FRjSQPQEm6+xDVKSB6K7IsOIUBCAQIEC+QxalEEDLpURSvx9oUX8Mc/eAYmPuEcI+io1oIHsCTNbZh6hIA9FdkWHFKQhAgGIjGiiYAHN3wcFV5hpaVBYwheZSbFQYtBpNJhnWGHU9PqNPPbEqyVJ0V1I08QUCEOgiQL5DH6UQQMulRFK/H2hRfwxz94BiY+4Rwr4FAZIhQsiZAPrMOTrl2obuyo0tnkEAAusJkO9QRCkE0HIpkdTvB1rUH8PcPaDYmHuEsI9iIxrIngCTdfYhKtJAdFdkWHEKAhAIECDfIYtSCKDlUiKp3w+0qD+GuXtAsTH3CGEfxUY0kD0BJuvsQ1SkgeiuyLDiFAQgQLERDRRMgLm74OAqcw0tKguYQnMpNioMWo0mkwxrjLoen9GnnliVZCm6Kyma+AIBCHQRIN+hj1IIoOVSIqnfD7SoP4a5e0CxMfcIYd+CAMkQIeRMAH3mHJ1ybUN35cYWzyAAgfUEyHcoohQCaLmUSOr3Ay3qj2HuHlBszD1C2EexEQ1kT4DJOvsQFWkguisyrDgFAQgECJDvkEUpBNByKZHU7wda1B/D3D2g2Jh7hLCPYiMayJ4Ak3X2ISrSQHRXZFhxCgIQoNiIBgomwNxdcHCVuYYWlQVMobkUGxUGrUaTSYY1Rl2Pz+hTT6xKshTdlRRNfIEABLoIkO/QRykE0HIpkdTvB1rUH8PcPaDYmHuEsG9BgGSIEHImgD5zjk65tqG7cmOLZxCAwHoC5DsUUQoBtFxKJPX7gRb1xzB3Dyg25h4h7KPYiAayJ8BknX2IijQQ3RUZVpyCAAQCBMh3yKIUAmi5lEjq9wMt6o9h7h5QbMw9QthHsRENZE+AyTr7EBVpILorMqw4BQEIUGxEAwUTYO4uOLjKXEOLygKm0FyKjQqDVqPJJMMao67HZ/SpJ1YlWYruSoomvkAAAl0EyHfooxQCaLmUSOr3Ay3qj2HuHlBszD1C2LcgQDJECDkTQJ85R6dc29BdubHFMwhAYD0B8h2KKIUAWi4lkvr9QIv6Y5i7BxQbc48Q9lFsRAPZE2Cyzj5ERRqI7ooMK05BAAIBAuQ7ZFEKAbRcSiT1+4EW9ccwdw8oNuYeIeyj2IgGsifAZJ19iIo0EN0VGVacggAEKDaigYIJMHcXHFxlrqFFZQFTaC7FRoVBq9FkkmGNUdfjM/rUE6uSLEV3JUUTXyAAgS4C5Dv0UQoBtFxKJPX7gRb1xzB3Dyg25h4h7FsQIBkihJwJoM+co1Oubeiu3NjiGQQgsJ4A+Q5FlEIALZcSSf1+oEX9MczdA4qNuUcI+yg2ooHsCTBZZx+iIg1Ed0WGFacgAIEAAfIdsiiFAFouJZL6/UCL+mOYuwcUG3OPEPZRbEQD2RNgss4+REUaiO6KDCtOQQACFBvRQMEEmLsLDq4y19CisoApNJdio8Kg1WgyybDGqOvxGX3qiVVJlqK7kqKJLxCAQBcB8h36KIUAWi4lkvr9QIv6Y5i7BxQbc48Q9i0IkAwRQs4E0GfO0SnXNnRXbmzxDAIQWE+AfIciSiGAlkuJpH4/0KL+GObuAcXG3COEfRQb0UD2BJissw9RkQaiuyLDilMQgECAAPkOWZRCAC2XEkn9fqBF/THM3QOKjblHCPsoNqKB7AkwWWcfoiINRHdFhhWnIAABio1ooGACzN0FB1eZa2hRWcAUmkuxUWHQajSZZFhj1PX4jD71xKokS9FdSdHEFwhAoIsA+Q59lEIALZcSSf1+oEX9MczdA4qNuUcI+xYESIYIIWcC6DPn6JRrG7orN7Z4BgEIrCdAvkMRpRBAy6VEUr8faFF/DHP3gGJj7hHCPoqNaCB7AkzW2YeoSAPRXZFhxSkIQCBAgHyHLEohgJZLiaR+P9Ci/hjm7gHFxtwjhH0UG9FA9gSYrLMPUZEGorsiw4pTEIAAxUY0UDAB5u6Cg6vMNbSoLGAKzaXYqDBoNZpMMqwx6np8Rp96YlWSpeiupGjiCwQg0EWAfIc+SiGAlkuJpH4/0KL+GObuQbHFxp9c9r3muBd9Kch/pwN3aPba+97N8zfs0ey6+3br2nT9zjQ0vz34sJ2bo5+5W7PzNtv0iu8bnnRFs9Orf6PZcND9g7+//D23NeefdUNz9Y9/tvj7771kH9H1Yv32MjaTH8WSofH9+sN2aN5w6gFLi897wZXNhf/2s+aMcx7RO1a2szH7Mn2G+vv5LT9ptt3tXpkQ7zbD2PqKZ3+h+ekROy2ZSxjFxtejjtmlOWbD7s3Dd99eBQdrZEyfQ5254b23Nyf95TXNi8/7zebwPe69VXeheAy95qVnfLM5/bybmzMuP7Q5oGeuS7Vh7DEQ05u1b+9jHrAud6TaPVf7qXU3l1+1XdeMtQuv+37z24fv3Dz2GQ9sna9MHvjw5juaHx16v+blz9p95ZimyDNT9Nk2x64cGBcclUAO+a7vvcWoIEbqTLJm8y/V5zcjmTuom9zuj+bWckk6HiSMjh/761Gt2o/xmVuLMfum+HssH1xw+rXN351/6/LSx73uoa01m5S2Zq33wQu/nVzfmYLBKvusstjoAvZv3qe+OX3Txq80n/jid5o24dobfF8EsZvhWL+rFNUU14olQ+3FRnMTefZbrm+O//TjVlbYGRKnqYqN1qa2otoQm6f8bUyfQ69dQ7FxijEwdT4fGtehv59ad0Pt4/cyAu6837Y2cLV80NoDSIqN3WxLvTGUKarMVjnkO+mcomEN02eM9PnN3GrM8f5obi2XpOMp9BVaj2rUvoTN3FqU2Dhmm1g+MPWET373R1tdMlSHSWlr9PP2L9wp6ndMf3Poq/hiY2jhbgoll59762LXjvnn7tyxCbhtwX/TZ7/TvPmUry+q0imLCfd35pqh/u21ze7Jl7zqgMXuLmPr2a+5prVAKek3B6ENtSGWDKcuNg61P/b7OXaRxWzq+nvf3Six8WU5xIrrQ2yf4rcxfQ69Zg3FxinGQExvQ+My9++n1t3c/tVyfav9hx64Y/Mve28X3GVr2rztuu81O1/z42anjXtQbKxFHPi5JJBDvuuaU7ruLQjj6gnkfH80t5bRcbcep1iPrn4EyK44txZlVg5vJckHNu5uHcZc2f53t3aT0ratvvOW47+6KGym1JOGk1h9D1UWGy1mKxR3l4Dk5lTSxg2lrWYb8R57+K83b/2v1wWLjdYeX3RthR1pv6uX1fhXjCVDio3jM5+j2GiuqfHpYUyfQ6NDsbEfwdRc3e8q8/1qat3N51ldV7Zz//P/bN/F+iB0dIGZ4+7zh7s012y6iWJjXfLA2y0Ecsh3kjkldG9BEFdLIPf7o7m1jI4pNloCc2txFZlBmg/MOuvLe20bPH7N9HHJHr+yfBic0rbtHs6Ow7neVlkFe3ONqouNBoBfpJIkYEkbN4D2JsGc8/hrl39/cZZkaGdjV5El9Ddpv6sS05TXiSXDIcVGd/eo8cHsLnnmq/Zfd26gz9/uMjHnQV5yxnXLsx3M+ZonbDlLyz3HwZxFeOIpD1qexeX2d9GJV63bWu3u6jO2fehdN687OyJ0hqdNgi/eZ8fF2X7m32vOf8xyd6zp47KP3LE8JyLlbESfj/mtOe/09Ru+2PvMxq7zL/wnil2+mSdVm/72xuaqL39vKb8QH98HW/i/5OxvbXXjLu3T1XtMn0PHRp9i41CNunG488zrlzvBQ+PD+DdEqwds9ytLbZq+QmOgj35Tc7WNkyQnuD73sW2oJuwE/qErnjBGV/QxIwE71kzOfueGLzUPf+3+684Hsjq2f/d3NtqxF9OhnXdOe9WDm/NP+8bijQnzz5232sZAW9437aU5UzqXpIyttvnhG69dOwdzpDObZ5QGl3YITD3PSmBL55TQmlQ6Rxo7/LO9uuZd+/aT+V3b+tXcJPvrQ3eM2HuTNgZ2E0TbeeOSNWZq/pGsfdvszf3+aG4t99Xx0PX4GOtSs8O/772XZL7yX3e169E27cfGX8p8JslBY7eZW4tj+xPqT5oPQnnb9udq13yzI6UtxcZPN7+4665mm40bN9515PFXryLmK7mGNJH6ySP2u76vUVunu/qPCbfrYw0xu1cCfcKLxJJh32Kj3TVqP8bjuuDuLmkrNj5tn19bVwg0vzeFtHu98/atzmZwn1xIio1dtvmvGdv+zCt2xhdTTDOT8X1v/eniQy4h/4ytsY9/tNlg+jfX6vuBmK5io8+6zbcfvu/by8KqLz2XdRdH8zu3rZ0QQlLuevIU0+fQoTGk2NhXo7YA8pRjd20+esFtW7ng7sAeqtVH3uOey8KHuZDVdyx2Mf32yYvSnDDUtqGaML+fWndj2EgfcQJuYf/jT/5c85O1HYzumYx2kWuKhOYhj1tsTNFh25lBfh5MyfvSnJnSZ6pPpqjoz33mIR7Fxrj2NLXIId9J5xR/HZMyR7ad3W5iJZ13Q+vXrjHSt9iYOlZDZ5ZJ84+7NkjRrTRmKX0ObTu3lqVMxl6P27lsyLrUFBv7/l4yX0mLjZrWil16nVuLQ8dS6u9jdZiunY0mf9ncGtvZ6La1Wvmn/bcLHpPHa9SpUcykvTSR+ruopIfmmqf8rz51/2RvYyL3v6hsLxA7P0Lqb7LBmfwglgz7FhvtpOIWkszXwE/7q2+s230aKjaa4q97roNbiPb/+wtP+sqyAGieiLT15y4Q3Vdxjne+fh46OyLkhwmdbevvrJSejej2a21w/XSLnpLXn2PnxNgn2X5h1iRtv9hnD+a1OziNvyahmzMw3Mki5oPbr7RPf1jE9Dl0GPUtNg7RqHvD406EIe2MqdXQGOirX2k+d/2T5oShY2uoJig2jkEwjz78XcR254aZK8w/k5dMAfKlj9958fDILTam6NBq2+TtV56y/2Knvc0tfi63OTeW96U5M5aH3ev38cmfHyTzUR7RxwopgannWYkd0rW2v2ZPmSNDN7Fm3WXWkbG1Udv6NbSGio2R0OvgbWtXyRwtzT8prMaMmaSvsdrMreW+Om6715DOAza2fe+dhv4+1c6uTSea1ooUG39JoEv7sbWH6cVqIqWt+Z1/ZqS1qGvzzVj5Zu5+qn+NOrXYaBLk7zxvj9ZPoMcCSrExRij899jE3LfY2LWb1LWkbYHlP42wk4+/46rt6aDZfWhu+Hwdxj7AYl9leMOpByzMbLtuypMXn3yXDVbHfYuNMRX4E7z7hMj/7W03/7i5fe1/37rkzubz3/zh4pVqf2enuwPT/r7rrIyuPm0BwLUjps+Yv7G/Dyk29tWo1WToiZurt3237J4NMbbadM85adNq6IHKEP2aa/cpNkpzwlDbYjGX/H1q3UlsoM1wAq7299py1Iodd1bD5v8fsrYD2C82puhQMk/Y3fBdOTP0Aa+hedjtcwyfYoWU4VGjh1UTyCHf9SnSpM6RtiBiCnhHHbpzs8vu2zW7rv3P/yedq6TrUrd/u+bwN1b442qMser20ZV/QusJiQalMZP0NVabubUsZeKvy9q0ZLnE1s5t60qpRof+PtXOrmKjdPyljJGx9JXSz9xaTLF1jLaxTS9tbwOaIyrM/aXVRNfOVr+tsds9Ws31w39QM4aPufVRfbHRnzhDIjSC+sBp1y5eiw2dbRS6oW175ZJiY78hEEuGfYqNNlFIvuwp2YloF0KhV7f6FhvbXn8217IFtdBOSfP3mH/SAlYbH5+55OYuVvwJJd22frsSvWXTdUZqiI+kT23Fxljh245IqcZNe1c7tgAyRKumz7aCe5v+Yvo1fUoX1JZBbMxI20ls65cJ1/8qlhfHuAZ9TE/A177dyWhepbavnbnHYtgxEdOrr8O2XOr+d3uzL837kpyZ0ucUPoVy9vRR5QpjE8gh30nnlNCYks6Rba96uudRx8aJy14y7t0xEtrtHFonxMb1kPwjZSXRmDRmkr7GajO3lqVMYvcu/pooFDf3XqXtLT2pRof+XjJfhTaA+Pd3Me3ntlbs0u3cWhxrTEn7iWnfaCR0DucP3n374ux6955K2ja2W5sPxEijl1m7mJjcYoz7BL/rd23bx8cqNnYVa2KFHIm/mYUoyZxYMqyx2GgA2qQX0kdsMRoriMR+P6TYmLJtvE377tP/3fbavjlwz3svdgC874Qrl69RpxYbJX3mXGwMvV6ZQ7ExplXzd4qNSSlx0TiWF9N75BdzEAjtHrEPrc51znD0c3IsRw+52ZcWGyU5M3Zj5s4lU/hEsXEOVY9/zRzynWSt7b8VEjvX0JJy52qzQ+yyc2/Z6kxw/62NPg/LQ4VDO0asf26BqK1wGRvXQ/JPV7HRXU9IVCaJmaSfMdvMrWUJk9DbTUPW421FPL+Q5+Zr6UNwabFSMl9RbBxT6fn1JdF+yOpYHaYtT8Y+JhPbLZwfwXSLqt7ZaBf4buEjJkKbqPoe5ik5K8DvO/ZKrQl7zO50aeT1i9jE3KfYaDyUboMfe8KL9Re74fKj07UAkB526/c55WvUQ4uNsR3C1mfJK4H2iZK0zzmKjV2vfJu42UW9y3XoE+DU16glNz1di8opX6NO0Zs0J+TwakwsL+aVxbGmjYCvfTueT3zdw5rNr7i6OeIdBzaH73Hv4G71FB1KbsgkOdO+8izNmSl92nlZOm9JfKLYWMbYyyHfSdba/r1F6noutBYzxccP/vebFh9Ss/cI0rlKOkZihcbQ/D1V/pGuJyTKlsRM0s+YbebWsoRJ6B45pCXpPDB3sbFr84Gv49B6NHSEQNt3FlytpIyRMTUm7WtuLUrtHKudpA7jb9II3YO13WOF2nblaoqNY0V2hn66xGQm/svPvXWxHdZ/ehdLwJLJuMvdrv7dvl/yqgOah+++/eLmwm7n7bphjtk9QwhGvWQsGfYtNtpB7rK1h7h2fWl5aCGnrdgY+lCF++qMgSqxz8KPHWAbOnvLDVxo6/dUH4hpE0zX4sb90IE7VvxXzLs+duAXGyV9+rbG9DnGYLAPOoy97geDTGHi7Ldcv/jieOjjKkN3NroHeRs/rCZCH5QYQ6uhj9FIDp8PMe6TF6U5YejYGkMTq9DdGHbSRzeBtl292+6/ffCMoCEfiJEc8yHN+3Z8SXKmtE83x0jGvbSQggb1E8gh3/W9t7DzSmyOdB/yvnzDnsuzGt3jnOwcKZ2rJGPEPhDw1xG+atrWrmOOVSkrqaL7rAOkffdtN7eWh+jYn0P6zAND16V9fm+LjSnzlX9P5vouHX85rBW7dDq3FvuOob6/69K+e4SE/Yiee8/r6iGlrdWKJE/29Svn3xW/szEG399FKJmU3EWzOVMp5V+sf9u332esKBTrN8XGHNvGkmHfYmPX6y1dk8zYxUb3jB4b69irN1322Rim9BGKe9vvTcL8l4/9c9NVkB2z+BO6QbbFtza9Sg7xNb8NfY061qf/95g+xxhTbec42b79hxFDNWp//5Rjd20+esFtW7ngn1vSdqiy+aFEq0PHQJfeJPwlenH9GDq2JDbF2qxCdzEb+PtwAm27KMxDEnfuTz1nVjr2/AJCSt4fmodDc0nK2JIUUtjZOFyjOfSQQ76za+0Yj7Y3lNpeDw49ZAtdI5QPQn1K5lx37Fx04lWLc+nb/tkHuKadux6bYqym9BmLg/l7jvdHc2u5r45jr1HH1s5jrUv7FBvt66yf/O6PWmVj+w2tR6XzpD/vjq1nieZT2sytxRRbx2gbywdta5rQuYrStrlrYAyuXX1UWWw0k+bBh+3cHP3M3RZfAnb/xURo2/Z9nVrS/+Xvua05/6wbFjuVzD//SWjXTXXK64JTi2vM/mPJsG+x0djoH/Dq7+QybWKvPVtfpTc+oXZv2viVxSsy7q48Y9uH3nXzunN7zM3ZMRt2X+x8jV3X+hfq4/kb9gh+4dCPm2+Dub757es3fHHWYmMobuZL8Xtf+r3FrmW/MOQe+GsYP+N5ey5eUXR3CaX06XKK6XOssWCesNlXqWyf5qtnh6z5fcRBO627zJiLuq+fcd1Sg21fThtDqyljQKJf6YLagOs69DmUE8YYW0N1sSrdDbWT33cTCI3V0Ctsba9jto09f4xI56eQttvyfkrOlM4lKWMrxSd0qJtADvmua07purfo0rS/njNt/fsA07dZ32w46P7rgthn/RpaN/YtNk41VqXrCYmiJfddkn7GbDO3lvvquC3fSueBMdelBzj379J5QGqnibW/HvUL7Vb7/r2FfTPR1Yt0jh5TY9K+5tai1M6x2knygfvl6Lbca+2Rth0zp43FYlX9FFtsXBVArrMaArUlw9VQrfsqbTfufaigzz7U+M1QAuhuKEF+DwEIaCFAvtMSKeyMEUDLMUL8fVUE0OKqSNd7HYqN9cZeleckQ1XhyspYeziz+7TRfbrZ92NPrpPoM6uQV2MMuisn1Ie+6JalMxe9cbetHOPvw/iUo5R6PSHf1Rv70jxHy6VFVK8/aFFv7LRYTrFRS6Qqt5NkWLkABrjfdg6q6TJ2Fqr0suhTSop2YxJAd2PSnK8vU0h0C4z8/3F5zBdZrjwmAfLdmDTpa04CaHlO+lzbJYAW0cPUBCg2Tk2Y/kchQDIcBWO1nUjPP+oLCH32JcfvhhBAd0Po5fFbv7BorWIn47CdjDF+eUQfK1IIkO9SaNE2ZwJoOefo1GUbWqwr3nN4u67YuGnTpjls4JoQgAAEIAABCEAAAhCAAAQgAAEIQAACEIBAIQQ2b97cbLNx48a7jjz+6kJcwo3SCPDkpbSIluUP+iwrnlq8QXdaIoWdEIDAUALk6MCr5gAAIABJREFUu6EE+X0uBNByLpHADrSIBqYmwGvUUxOm/1EIkAxHwUgnExFAnxOBpdtOAugOgUAAArUQIN/VEuny/UTL5cdYi4doUUuk9NpJsVFv7KqynGRYVbjVOYs+1YWsCIPRXRFhxAkIQEBAgHwngEQTFQTQsoowVWEkWqwizLM6SbFxVvxcXEqAZCglRbs5CKDPOahzTXSHBiAAgVoIkO9qiXT5fqLl8mOsxUO0qCVSeu2k2Kg3dlVZTjKsKtzqnEWf6kJWhMHorogw4gQEICAgQL4TQKKJCgJoWUWYqjASLVYR5lmdpNg4K34uLiVAMpSSot0cBNDnHNS5JrpDAxCAQC0EyHe1RLp8P9Fy+THW4iFa1BIpvXZSbNQbu6osJxlWFW51zqJPdSErwmB0V0QYcQICEBAQIN8JINFEBQG0rCJMVRiJFqsI86xOUmycFT8XlxIgGUpJ0W4OAuhzDupcE92hAQhAoBYC5LtaIl2+n2i5/Bhr8RAtaomUXjspNuqNXVWWkwyrCrc6Z9GnupAVYTC6KyKMOAEBCAgIkO8EkGiiggBaVhGmKoxEi1WEeVYnKTbOip+LSwmQDKWkaDcHAfQ5B3Wuie7QAAQgUAsB8l0tkS7fT7Rcfoy1eIgWtURKr50UG/XGrirLSYZVhVuds+hTXciKMBjdFRFGnIAABAQEyHcCSDRRQQAtqwhTFUaixSrCPKuTFBtnxc/FpQRIhlJStJuDAPqcgzrXRHdoAAIQqIUA+a6WSJfvJ1ouP8ZaPESLWiKl106KjXpjV5XlJMOqwq3OWfSpLmRFGIzuiggjTkAAAgIC5DsBJJqoIICWVYSpCiPRYhVhntVJio2z4ufiUgIkQykp2s1BAH3OQZ1rojs0AAEI1EKAfFdLpMv3Ey2XH2MtHqJFLZHSayfFRr2xq8pykmFV4VbnLPpUF7IiDEZ3RYQRJyAAAQEB8p0AEk1UEEDLKsJUhZFosYowz+okxcZZ8XNxKQGSoZQU7eYggD7noM410R0agAAEaiFAvqsl0uX7iZbLj7EWD9GilkjptZNio97YVWU5ybCqcKtzFn2qC1kRBqO7IsKIExCAgIAA+U4AiSYqCKBlFWGqwki0WEWYZ3WSYuOs+Lm4lADJUEqKdnMQQJ9zUOea6A4NQAACtRAg39US6fL9RMvlx1iLh2hRS6T02kmxUW/sqrKcZFhVuNU5iz7VhawIg9FdEWHECQhAQECAfCeARBMVBNCyijBVYSRarCLMszpJsXFW/FxcSoBkKCVFuzkIoM85qHNNdIcGIACBWgiQ72qJdPl+ouXyY6zFQ7SoJVJ67aTYqDd2VVlOMqwq3OqcRZ/qQlaEweiuiDDiBAQgICBAvhNAookKAmhZRZiqMBItVhHmWZ2k2Dgrfi4uJUAylJKi3RwE0Occ1LkmukMDEIBALQTId7VEunw/0XL5MdbiIVrUEim9dlJs1Bu7qiwnGVYVbnXOok91ISvCYHRXRBhxAgIQEBAg3wkg0UQFAbSsIkxVGIkWqwjzrE5SbJwVPxeXEiAZSknRbg4C6HMO6lwT3aEBCECgFgLku1oiXb6faLn8GGvxEC1qiZReOyk26o1dVZaTDKsKtzpn0ae6kBVhMLorIow4AQEICAiQ7wSQaKKCAFpWEaYqjESLVYR5VicpNs6Kn4tLCZAMpaRoNwcB9DkHda6J7tAABCBQCwHyXS2RLt9PtFx+jLV4iBa1REqvnRQb9cauKstJhlWFW52z6FNdyIowGN0VEUacgAAEBATIdwJINFFBAC2rCFMVRqLFKsI8q5MUG2fFz8WlBEiGUlK0m4MA+pyDOtdEd2gAAhCohQD5rpZIl+8nWi4/xlo8RItaIqXXToqNemNXleUkw6rCrc5Z9KkuZEUYjO6KCCNOQAACAgLkOwEkmqgggJZVhKkKI9FiFWGe1UmKjbPi5+JSAiRDKSnazUEAfc5BnWuiOzQAAQjUQoB8V0uky/cTLZcfYy0eokUtkdJrJ8VGvbGrynKSYVXhVucs+lQXsiIMRndFhBEnIAABAQHynQASTVQQQMsqwlSFkWixijDP6iTFxlnxc3EpAZKhlBTt5iCAPuegzjXRHRqAAARqIUC+qyXS5fuJlsuPsRYP0aKWSOm1k2Kj3thVZTnJsKpwq3MWfaoLWREGo7siwogTEICAgAD5TgCJJioIoGUVYarCSLRYRZhndZJi46z4ubiUAMlQSop2cxBAn3NQ55roDg1AAAK1ECDf1RLp8v1Ey+XHWIuHaFFLpPTaSbFRb+yqspxkWFW41TmLPtWFrAiD0V0RYcQJCEBAQIB8J4BEExUE0LKKMFVhJFqsIsyzOkmxcVb8XFxKgGQoJUW7OQigzzmoc010hwYgAIFaCJDvaol0+X6i5fJjrMVDtKglUnrtpNioN3ZVWU4yrCrc6pxFn+pCVoTB6K6IMOIEBCAgIEC+E0CiiQoCaFlFmKowEi1WEeZZnaTYOCt+Li4lQDKUkqLdHATQ5xzUuSa6QwMQgEAtBMh3tUS6fD/Rcvkx1uIhWtQSKb12UmzUG7uqLCcZVhVudc6iT3UhK8JgdFdEGHECAhAQECDfCSDRRAUBtKwiTFUYiRarCPOsTlJsnBU/F5cSIBlKSdFuDgLocw7qXBPdoQEIQKAWAuS7WiJdvp9oufwYa/EQLWqJlF47KTbqjV1VlpMMqwq3OmfRp7qQFWEwuisijDgBAQgICJDvBJBoooIAWlYRpiqMRItVhHlWJyk2zoqfi0sJkAylpGg3BwH0OQd1ronu0AAEIFALAfJdLZEu30+0XH6MtXiIFrVESq+dFBv1xq4qy0mGVYVbnbPoU13IijAY3RURRpyAAAQEBMh3Akg0UUEALasIUxVGosUqwjyrkxQbZ8XPxaUESIZSUrSbgwD6nIM610R3aAACEKiFAPmulkiX7ydaLj/GWjxEi1oipddOio16Y1eV5STDqsKtzln0qS5kRRiM7ooII05AAAICAuQ7ASSaqCCAllWEqQoj0WIVYZ7VSYqNs+Ln4lICJEMpKdrNQQB9zkGda6I7NAABCNRCgHxXS6TL9xMtlx9jLR6iRS2R0msnxUa9savKcpJhVeFW5yz6VBeyIgxGd0WEEScgAAEBAfKdABJNVBBAyyrCVIWRaLGKMM/qJMXGWfFzcSkBkqGUFO3mIIA+56DONdEdGoAABGohQL6rJdLl+4mWy4+xFg/RopZI6bWTYqPe2FVlOcmwqnCrcxZ9qgtZEQajuyLCiBMQgICAAPlOAIkmKgigZRVhqsJItFhFmGd1kmLjrPi5uJQAyVBKinZzEECfc1DnmugODUAAArUQIN/VEuny/UTL5cdYi4doUUuk9NpJsVFv7KqynGRYVbjVOYs+1YWsCIPRXRFhxAkIQEBAgHwngEQTFQTQsoowVWEkWqwizLM6SbFxVvxcXEqAZCglRbs5CKDPOahzTXSHBiAAgVoIkO9qiXT5fqLl8mOsxUO0qCVSeu2k2Kg3dlVZTjKsKtzqnEWf6kJWhMHorogw4gQEICAgQL4TQKKJCgJoWUWYqjASLVYR5lmdpNg4K34uLiVAMpSSot0cBNDnHNS5JrpDAxCAQC0EyHe1RLp8P9Fy+THW4iFa1BIpvXZSbNQbu6osJxlWFW51zqJPdSErwmB0V0QYcQICEBAQIN8JINFEBQG0rCJMVRiJFqsI86xOUmycFT8XlxIgGUpJ0W4OAuhzDupcE92hAQhAoBYC5LtaIl2+n2i5/Bhr8RAtaomUXjspNuqNXVWWkwyrCrc6Z9GnupAVYTC6KyKMOAEBCAgIkO8EkGiiggBaVhGmKoxEi1WEeVYnKTbOip+LSwmQDKWkaDcHAfQ5B3Wuie7QAAQgUAsB8l0tkS7fT7Rcfoy1eIgWtURKr50UG/XGrirLSYZVhVuds+hTXciKMBjdFRFGnIAABAQEyHcCSDRRQQAtqwhTFUaixSrCPKuTFBtnxc/FpQRIhlJStJuDAPqcgzrXRHdoAAIQqIUA+a6WSJfvJ1ouP8ZaPESLWiKl106KjXpjV5XlJMOqwq3OWfSpLmRFGIzuiggjTkAAAgIC5DsBJJqoIICWVYSpCiPRYhVhntVJio2z4ufiUgIkQykp2s1BAH3OQZ1rojs0AAEI1EKAfFdLpMv3Ey2XH2MtHqJFLZHSayfFRr2xq8pykmFV4VbnLPpUF7IiDEZ3RYQRJyAAAQEB8p0AEk1UEEDLKsJUhZFosYowz+okxcZZ8XNxKQGSoZQU7eYggD7noM410R0agAAEaiFAvqsl0uX7iZbLj7EWD9GilkjptbO6YuNPLvtec9yLviSK2HGve2iz4aD7Nze89/bmpL+8pnnxeb/ZHL7Hvbf67c9v+Unzimd/ofnpETs1bzj1AFHfF5x+bfN359+6bPt7L9mnOfqZuzU7b7NN5++t/dY20cUKaDQkGZ73giubt3/hztb45YLH2Hnhv/2sOeOcR0R1sGqbY+PmUcfs0hyzYffm4btvv2rT1l1vLoZt+uzittOBOzQHH7azaNz3gWry0ra73WvdT0P/ze87Fmvbfu9jHiDOd2PZ36efMX7j6yr2/8e4pqSPIXlR0j9tVkPg0jO+2Vx43feb3z585+axz3hga/43a5EPb76j+dGh92te/qzdV2Occ5U+a52YkVP0aa4511wQ85e/9yeQQ76Lzel77X3v5vkb9mh23X27/o6u6Jd9xkif36zIna3WOme/5prmE1/8zvK/m3Xqiac8KIv1tdWydL1lnLD3fUNjEFu/DO1/jnjba67C9lVcY5VzWA55dWrNmHVGSj64/D23NeefdUNz9Y9/tjCtq0YzVdupmayyf4qNHbSnKja+aeNX1k2A1oTYzbtdlBvxU2yUDROX2UFrBd05btBkluZ9cyRdELUV5KUMhrZb1SLAt7NPsVE67vswMUWJs99yfXP8px/XHLDlAUbov4X6lsY6lq/62G1/I7V1yDVSfpvr4ryGRWJKnLS2NcXG08+7eWF+29zujsu55rIpCoNT9LnKGzWtmtNodw75Tjo/zr0WksS3z3qpz28ktozZxl33+/2ah7wvX3ugb9dFY143pS+KjSm05G1Xoc9VXGOVc1gOeVUe4fSWqfnAXY+5Vwvd80zVNt3LvH9RXbExFI5Y4hhzZ6Pty33C5lbcuxYodode1w1J3nLrb13fZGgTwVOO3bX56AW3NWdcfujsi4z+FOb7ZWxHreU8ZQFK4n1sLEv66NMmVmwMFRCk476PPTYert5D/y3UdyzWfexJ/Y3U1tR++7aPFRv79jv0d33z4tDr8vtxCVi9P/TAHZt/2Xu74I5h0+Zt132v2fmaHzc7bdxjlgdnUxQGp+hz3OjQWy4Ecsh3XfOj0fLl5966fHDAenMe5dh7JXfdZWLzgdOuXbzlNNfDGpdGl5Zj69jY31Op57q+SfVjVe3H5r8qu9uuk0NenZJBSj6w+d08lHjJqw5YvK3n3qu5OWWqtlOymKtvio1r5GOJY8xiY9u17DXadjXYvz//z/Zt3vpfr2Nno3DEvOFJVzTXH7ZD89In/PvmhSd9pTpuQkzRZpICVGwcRS8yQoO5bOhTbDTuWq5jL34pNo4gJqeLXBfjpS8Sx41ivr3Z8Wrn91CRwsxl9/nDXZprNt1EsTHfUGLZhARyyHeStZAdz2PP6xOiLapru+4PHWvV9bdVQqDYuEra415rrvuMcb34ZW855NWpfDP9puQDm7v9jV+hh6JTtZ2SxVx9U2xccbExFOjbbv5x874Trmw++d0fBXfeuYubp9/zVxZnTvIadXzI+ItCk3C+vNe2wTMR7a4Rc17iJWdctzxP05zTcMKWs7HcczZDZ7+YZPShd90cPYvTTFSX7PErzYv32XFxFqj595rzH9N847Vr53Z5Zzb650yYnS/PfNX+W52NeNNnv9Ns+tsbm6u+/L0lGP+MCTtBnvaqBzfnn/aN5av8ro9tVFMW2P5uug9e+O3luRe+/V3FNn+CkLBwFwEXnXjV4im2+Rfy0cbrso/csbSv79mTQ4uN7nhu04d9whbTmLsD2vhudps+/qafLVnY/9Z2vqwk1iGdSDRofmfGWpcmQvZbW6UxS9G6xO5YsTG0+JTo1fCQ5o0Q89IXifEsX0YLu2g188A7N3ypefhr91+cF23/2TFp/+7vbJxiXPj6NbnRnEX3+g1f3Op8askYslp3z03q6jPFJ+l8WoZa6vUih3wnnR9DN7gpuT42T1oVSOYZyZrz1y7/fud59vbmu22uM+uS2FoqZV5OYZUyIkorNnatcyVxN98JiK1vUtYpXetXP07uQ/E7z7x+uSO47T5HMibGWItJdeyery+dr0LzoNlFd+zhv95ccva31j1IXIUvxp4c8mrKGB6zrZ8PugrJknFibRvSdkz/cumLYuNaJGJPKcbc2egG3vZr/pu7ZdcXhzsYpAudXAQ2lh19kqEtWtjiV9tTCFsAMa+oPW2fX1tXLDR/M4Wge73z9nXFGvPf3afWXWdC+K8WW72Z1+HM+Zsm9mbSMosGt9jY1adb0HN15PN2bfSLOG7b2BN4ie78cdR2loW5rvvUKLT4868nZWFteOQ97rnVuajSeBn7Ul9/6lNsdG8S3Ou16eO+t/508SEqe2CxGz9XY3MUG6UalGiirdjYpQE/ZlKtS+2OLRz8v0v1mpI3Qrm0T14cKyfTz3gE3Juujz/5c81P1nYwuucL24dh5kGRKfa5xcYpxkVbn2auMvOW+zE86RhK6TPVJzNvxubT8aJFT3MRyCHfSdZChk/KnOCvESXzpLmGdJ6RrDn7FhtTx6p9ANy1Vh06L7bpc6o3SfqMhzF2NsbWuZK4S4qNKfFou2bo46f+MVc+R/c+QTomUsadu+5O1bH0Xs1fm8au49+zSa/T1xdjXw55tc8YGvqbUD7oehjhvzE2VduhfuX4e4qNgUWBH6iuxXTbDb8k2PYLlHY3mi06uUnZF7d0oSO5vqY2qcnQJvTQTVnoq+GWs1v0Nbs13nzK15cFQXt+g/nv5pVsN17uazPHO18Vt//d37kWOjcmVNDw25mvXp32V99Yt7PVJDyzK9bserFfgzb+v+X4r67byWkLMGZh+8pT9l98kc9qO3bWYuycIrvbzp0oQztJLTu3neSVX2u7+7sQC9vOjWPIR3tNf4eq/e8xHv7YiRUbu8aav0s55Kv5fYrGJExjC/JYfvALxhINjqEJScykWk8ZO+6iT1J8lIzdlJiG4pGaF2Mx5e/zEPB3eJgHX+6uCaNTU4B86eN3XjxwcOe1lFwmHRduDrLzmTsfuvkxZQzZMRHrs49P/gOz2EPkeSLNVYcQyCHfSdfg/hyckuul82Tquih1jLg224cfbQ+Vx5yXU1hJ9WTvCf5p/+2CbzdJ+xmr3dBio8mlsXVu21pSsn5x1zsp8Wi7ZoibW0A88XUPa444aKdFs9A6PGVM+Gu1lLWYVMchPtLfds2DXcVG6XhPmT9rLTa25YOpCogp/Y6VY3Lqh2LjjMVGVwihgkjoHEfpQicnkY1hS+ois20Xo7/b0dqW2t6drO2Os1AR0/Rv2prXvOyroG02+AuA1Nc9zOv4t6/971uX3Nl8/ps/XLxS7RZE267b9Xq55SP9AqP7dM3ehJoJ+KhDd2522X27Zte1//n/Qpr2fZeysD765234Pnb53MapS8dDio3+AiV0fTsxSjW26mKjZRPToFQTIftTYpaq9ZjdqYtziV5TY0qxcYyZJM8+XL3vteV1RpvDbH40//+QtR3bfrFx7HHRNZ9ZW0IPY7rGUGqfY/hEsTFPrQ+xKnUdOORabb+VrsHdMb3vlrcSpPO3dJ6UzDN2DWoKHP4bG11jxP2Y5atP3X+JI7RObTueyJ+HJfNy6npaEmN3N1kuXwkfo9gYW+dK7zW61jep8UhZP7fdd4U0Kx0Tfe+jUucct9go/W1XHgjtsluFLzUWG7vyQUpRcKq2kpymrQ3FxoRiY9sk5d80hgozsddU/eRqk5J/NpN0oaNNiDF7UxeZdmJq69ePR6i4YWPin6Po//eu11vt9f2in7RPyVdHu7blp1439KqD8SFWbAydYdm2I9g/S9L07ybttleoJSzaFs+h4nBbf7FjE1KKPrHxandndj3NNNeLvXph2oR22q7qa9RSDUo14Y/H0E5lNw5+zCQ6MFqX2p1SbLT5IKbX1Jim6C6WT/l7XgRCr+fYV6nN3+xOR19bU4yLmH79BbZkDKX0OYVPbfNaXirAmhiB1HVgrL8+f4/N6bbP0JojdARKaI0omSdj48T1TTof2t90vfEyZC0lsSN1PR2LofWl66iqWB9T/H1osTF2DxF6PTqkzdhr1KnxSHnI03bfZez013SSMdF2byZdi0nvCfqOgcfd9vPWby6ExnPKdWxsY3khdH+TQ16dYoyF+ozlg6kKiCn9rorFKq9DsXGNdiw5xooPYxUb3cT779737eXHQ7oEkctTuqlFm5IMY4UxvzBj/v/UxUZzDVv4SVlwxSZJ06/7xG+3vbZvDtzz3otdhOajQ+4TZ8l1Y8XG1A8Tmd0ul517y1bnYPpHBtgxZhjZg6Itr9jkmbqojt34xsZ7SOuxnY1d3GKFLHM9SWHK1dgYOxtTYi3VoLFRoolVFRuldsdiNGRR2HUD6sY0RXdT52P6H5eAr3dXT+c6Zzj6uTCWG/sU4WP5MbTr3ByhYB44tc0/KX1O4RPFxnH1OldvKevAqWyUFBv9e4LU+VsyT8bGVOq6yI4R61/oWCfTZ8pcNyT/DJkXre92l12bL1NpRNJvScVGyf1NiElKsVEyJvzCqXSMDJlzYtdwxwDFRsnImK6NJB901YNi9wFdOTel3+kIzNczxUZv8gwtSmPFh9jrcG54u7Zb2xtfU2Sh2Lh+UKQsMmPb+O0E5xZTxig2SgqD/mLN1VufLfNdC19fa3MUG90omnFiCk0f/O83LT7e4hbK7RgyX2G98/+6vrn+sB2Wr52bPlJeF5I88ZW+9nDA2u43yb+hxUb3FadQnGKLId/GVRYbUzTo29mmiTFeo47pwB6IHyqqxsZObNEh0WtqTEM6TMmLEh3TZh4Cvt7tmsOcY7X5FVc3R7zjwObwPe69fOjgzjUpuUwyB6S88iwd+yl92nyf8mpmbKxTbJxH12NfNYd8Jyk2+mvMobm+bZ6UzDMpa85YoTHU11T5R7qebtOYvQ+QvFU2tk4l/WkrNkrjEdu847JJeY1aunbscx81dM6RjgFeo5aMjGnaSPNBmyZDdZ6p2k5DYN5eKTauuNgYOrjViPgDp127+NpxbGKULHTmldQ0V5cuMiWF366kIT3TJlRsMPHzXxG2h+q7Z/VIbvjsEzrTp1sM8ftzz9CyH30x/p39mmsWBb2xX6OW7nZzGb98w57Lsxpdrfu7ci0X81VRU3TccND9l2KyE0UXi5RFdeoByjFV9y022teo/a9Jt908SzUWmgS7Fnauf6k5RqpBt+AQ00SX/dJDuGMFCFtsdD+YJB07sWJjil6lMaXYGBuFev/etpN32/23X5y927XLOyWXSece26dZj3R9zEU69s18Ju3TRHEKn/SqA8stAek6cEpisY/lXX7urc3p5928bu1l1yaSXJ+ydkqZZ2Lzofu6rL8Odnn6OWSKsWr9kqynQ7EObSiYUhN9+tZSbHTvRSTx6FNs9F9xt/Gz6+LUMRH6QEzs3mGIjlN/O/QDMWP6YrSbQ17tM4akv0nJB+4DF/tRWPe+wGU/VVupX5raUWxccbHRiKPtPEHJVv/UQoAmMXbZKk2GoY/qhPq1ixlb8BqyszF29pu5vltYk97wdb16E/oScBu/lNe3x3yN2jIN2RX6wIB7Jou/2JWyGIOtHy/JGIoVG2N9SPQRexXL7cNlaVmH/lvILskxBPZ3Nk6xM1JtO6kmQram+C/VgdRuSXHRXeBK9ZriUyhW0rwY0x9/n5dAaP6xc5SbK0M7pFI0JB0XbX2aQv+/fOyfG/fhmXQMpfQ5hU/zRpirj0Egh3wnnR/9h6kpmpbOk9J5RjLuLzrxqsWGh7Z/9v7EtJPOdVOsfWPrsxhnf+0yhi779KGp2BhjKlm/hhhZnT/0wB0XD9X8f6Ezx2P3E77WpWNkiI8pv4217Tq/fQpfDM8c8mqfMST5TYx3KB+05d/QfetUbSW+aWpDsXEtWrEnMWO+Rm3FccHp1647xy700YyuQoB0h5kmMXbZKk2G7qvoXa/A2pjaxD602GhsN0ntQ++6eV1czc3ZMRt2bx6++/ZL9yQLP1v0c5+omA5Ch1yH2vzO8/Zo9r70e4sn7HYhkHJdPxZ9i9xm5975Z93Q2PN3jP3GNnfXor1WaMepa4eERYqPbfF6/oY9gl/N7qPP2I1Jij5SNGbavmnjV7ba3Rr6b22xluQOd8eV3U1rdRrSoPmbVBMhW6Uxk+qg79iJFR9trHwm9kmpr2tJ3gjFQ5oXJbGkzXwEuo49cOf6ULGxKy/4uUw6LkJ9mlxl+nv9hi+uKzZKx1BKn1P5NF+EufIYBHLId11zulnfHHzYzs3Rz9ytCT24la4RU+bJsdZFfYuNU43VFFautmJrLtu2a/fmGFqN9aGp2Jiy9ozdT7tc3Hnv62dct7x3Cn1wUjomQteXjJGhOpauTdvWhs943p6LI1Pc19VX4YuxJ4e8Ghsvff/eNx/49yldNZqp2vb1OcffUWzMMSrYtBWBkpMh4b6bQN+CZg780GcOUajPBnRXX8zxGAK1EiDf1Rr58vxGy+0f5iwv2nGP2h4kxn85vAVaHM6QHroJUGxEISoIpCbDQ190y9Kvi96421Y+8vduPiFRTMnMTLS/c8Y/Zx2zroHSpc8puRmbhvbf5tfQfvn9tDnIxC01L6pI9pUayXiZfrxUKq1i3CbfFRPK6h1By3UWG+3HZNy3XNydl/7xC6tZeWs3AAABYklEQVQYKGhxFZTrvgbFxrrjr8b7lGRobtrcAiP/P41HW6FxKqZm8r3ggF2bHS+7bvmBpNxiFhsobfrMzQ/fnq5C41TxtgVS+v/lQ5CYTtrilJIXYxrm7/MRiMWfv6fNYdI8N1/EuXIfAuS7PtT4TY4E0HKdxUbpeayr1CxaXCXtOq9FsbHOuKvzWpoM224y2DUi2zXStgt06t2hptBozml59an7L7WZQ8xCfocGT0ifuWuxzbfc7Tb8p9Zjjv1LdacuuVduMONtnvFcuexUui9dB6p0DqOrIoCW6yw2GpFLzy1f1YBAi6siXe911hUbN23aVC8JPIcABCAAAQhAAAIQgAAEIAABCEAAAhCAAAQGE9i8eXOzzcaNG+866+yzB3dGBxCYgsCnP/Wp5gmHHTZF1/QJgcEE0OdghHTQgwC66wGNn0AAAioJkO9Uhg2jAwTQMrLIhQBazCUS5dphNfb/AwLzAX3lvBOlAAAAAElFTkSuQmCC;" vertex="1" parent="1">
          <mxGeometry x="-360" y="238.5" width="1307" height="233" as="geometry" />
        </mxCell>
        <mxCell id="3Li22gLX3umGWUl0SlII-10" value="" style="shape=flexArrow;endArrow=classic;html=1;rounded=0;fillColor=#0050ef;strokeColor=#001DBC;" edge="1" parent="1">
          <mxGeometry width="50" height="50" relative="1" as="geometry">
            <mxPoint x="1030" y="230" as="sourcePoint" />
            <mxPoint x="790" y="250" as="targetPoint" />
          </mxGeometry>
        </mxCell>
        <mxCell id="3Li22gLX3umGWUl0SlII-12" value="" style="shape=flexArrow;endArrow=classic;html=1;rounded=0;fillColor=#0050ef;strokeColor=#001DBC;" edge="1" parent="1">
          <mxGeometry width="50" height="50" relative="1" as="geometry">
            <mxPoint x="1020" y="290" as="sourcePoint" />
            <mxPoint x="920" y="300" as="targetPoint" />
          </mxGeometry>
        </mxCell>
        <mxCell id="3Li22gLX3umGWUl0SlII-13" value="" style="shape=flexArrow;endArrow=classic;html=1;rounded=0;fillColor=#0050ef;strokeColor=#001DBC;" edge="1" parent="1">
          <mxGeometry width="50" height="50" relative="1" as="geometry">
            <mxPoint x="1030" y="350" as="sourcePoint" />
            <mxPoint x="930" y="360" as="targetPoint" />
          </mxGeometry>
        </mxCell>
        <mxCell id="3Li22gLX3umGWUl0SlII-14" value="" style="shape=flexArrow;endArrow=classic;html=1;rounded=0;fillColor=#0050ef;strokeColor=#001DBC;" edge="1" parent="1">
          <mxGeometry width="50" height="50" relative="1" as="geometry">
            <mxPoint x="1020" y="490" as="sourcePoint" />
            <mxPoint x="930" y="450" as="targetPoint" />
          </mxGeometry>
        </mxCell>
        <mxCell id="3Li22gLX3umGWUl0SlII-15" value="" style="shape=image;verticalLabelPosition=bottom;labelBackgroundColor=default;verticalAlign=top;aspect=fixed;imageAspect=0;image=data:image/png,iVBORw0KGgoAAAANSUhEUgAAAzQAAAEoCAYAAACO+bS+AAAgAElEQVR4Xu2deaAUxbn23zkIHyAC0fAZF64gAfUaNKyyiKCQoIhRQPBE4MqO9yhBUEQhBCOySRA0YRW5IpuAKBqDoKxqDvtRjMZEDRC9bmBUluQDIud8UzVTTXVP90zXTHdP9fQz/3CYqa566/d09fTT9VZN7JNPPqkgvEAABEAABEAABEAABEAABEAghARiMDQhVA0hgwAIgAAIgAAIgAAIgAAIcAIwNDgRQAAEQAAEQAAEQAAEQAAEQksAhia00iFwEAABEAABEAABEAABEAABGBqcAyAAAiAAAiAAAiAAAiAAAqElAEOjsXSzZ8/WODqEBgIgAAJ6EigpKdEzMEQFAiAAAiDgCwEYGl+welMpMzQTJ03ypjLUAgIgAAIRIDB2zBiCoYmA0OgiCIAACEgEYGg0Ph1gaDQWB6GBAAhoSQCGRktZEBQIgAAI+EoAhsZXvLlVDkOTGz8cDQIgED0CMDTR0xw9BgEQAAEYGo3PARgajcVBaCAAAloS8NvQfP7558r9Pu+885SPwQEgAAIgAALuCcDQuGcVeEkYmsCRo0EQAIGQEwjC0DRv0cI1pd27dhEMjWtcKAgCIAACWRFwZWhi5X+kkc0GU+n1M2jb5M5GQ/z9FtOp6apV1PviSlkF4OdB2cQnH9On3va89s/J0MTKN1L/C8ZTqy1baGDRAmrXcjH1276Vhjbcarw/5JIz/ESLukEABEBASwLaG5qKv9Hzv1lNH5ZXJPjFzqHrBgygFt8vyppn+Vc76amF79CPbepJ91nWDTodyPu2mer2z60/nseFCkEABAqegHtDEzcuBy76iK64ew+Nv65y4jqcJ0Pjtl235WSVw2ZoZOMiGx0YmoIfu+ggCICADYFwGJrTN/1fbnuGnnm/Pg3qfzV9LxZzp2k645BPU5HPtt2RQykQAIECJaBkaK6Y2pVemH+CfrviTqobv/BmYxi84Oi2XbflYGi8UAV1gAAIgED+CYTN0FA2JgCGJv8nGiIAARDQioCSoWGpZec8dR0trf8kLR7UKMXQnNq/hHp0eYj2HDvBOzlo0T4+myOMBTdEwybxz9lnxQcGU6fxG3nZDvF/WZ3sZaqn9m20cu80al2UeHIl0t9WfnWU///CPgt4Gty6se1p8DP7TO/ZtZupnTZUaqSZWVPO7No4ueVhajyrDm1YmTB5Xr7cpJzJaWbi7+bze9HS3qNp29HjdP1j79LaEZfHuSXS1KrcVIXmr65Hmw4+Re32zaNrmo3g5dhr+MsnaMaNVbzsAuoCARAAgUAJhN3QvPf7x+jlP/+bM6t82U008mf/ScL0nHFJJXr//YMmnrzMTf8nkerV7xr65Ok1Rjqb6bNkGlgiBW0zfZ3MeGt8y73UhaUoJ03SD9r+gN544z3exnnt+tF/tTmX/y0fVxFrRL3uu4Uujn8vy++ff3U7OrP0z0g5C/SMR2MgAALcH3zyySfJy5ozEKc0LPmGn/8dX2dTc/pebmKYKenedTX1+v1zJD57+YfD+I3/uVsnUIO+TxomhpmCBsOOcOMiGwq2Lod9NvCjYsPs8KDTpLqlxBqPSbR7/oGl5pik9T+inSUDDjkaGkFIbqPnxxP1MjTndafnLh1L72weRXX/Ns+8vib+2RcPlJ42OPH/11p4iJuYUx/ONcoiXQ0XBxAAgbASCJuhcUw5k2dhztnP190ca3tHwmBYZ2hSykrrWGzqqfqzkdzEmNbXJNs4cElXbqK+++AV+s2a4wnjEttnWhvDPlv2VVP6r9bHeFyiPtaXp984mfOaoLCee4gbBEAgfwSUDY0wGe3XX0XbJ9Ywbv6LY8upW7e36cGy07MpbEZjR8cN9FCHnabF9VZDIv+f1SPP8jA0YhbGzlCIzQi4KYqbJP6q1pymrEsaKcumBSKmX9ZfYduO3CfrDI1dG35uhpDtDA3bLECYkhdKLqHXb/wTzbzhDdOGAczAXN12F03+fAF1qJSYWRJlMUuTvwGJlkEABHIjEA5Dc3pTAHm2g/WcmYXpL7yTgCA2DOBmw8GksM0EXBqaZrSbnvqfT6njvYnZFfZiM0J/b/QL6tLo745t8OOkWR12HJv9uafNMfqf35+g7v2S63+ySZ/LTW4cDQIgAAKJy6XqDA2/ga/4mGYXd6d/DJ5K346exXc589LQWI2RVSurIWKzQcYxsU/isY2kWpNXJGaGZEOTjPvQ0G3EDI1dO06zUab+SW3obGhiFftoasd29Pm9+2FoMOBBAAQiQSAchsZ+JzA+YyIMR+wbej2ePlbtpn7UQgdDYzFC7GRi8cLQRGJYoZMgoD2B7AxNvFvGOpdTjU/PhlhSzoRhsKaRpZuhEelpB+9aY0ozk0laj5fXsaSklcVjEnXJxofHJH0m6ncyNHJqmdyGjilnIq1MnoW5NrbJNEPD19RYUs6sMzban70IEARAAAQsBMJsaNjszIw3a/Adz2r9Y9fprZg9MjQJY3Q6RcxsoMxpZamzPlLKm2Ce3IIaKWcYhiAAAvkmkLWhYYH/dWE/6jTlMDc0bKbCtJg/mfbF3k9nYOw+t24uYE05Y22LBfr8s0mX8RmjyaVf0vdaFtNPi/ZRk6krjRmayp0q09JlpZy12KiA/W3XjmPKWf1PbdvQztCIhf9Pbub9FQv97bZ0ZobH2BSgehuaW7bVSFXL94mJ9kEABEAgGwJhNjRU8XV8VmYhbTt4ioq+fwk1jH1NF/zMZoYmDkZsHmC38D/dZ6ZNAeTfwEm3Liee1mbdTEBsWCCnyGFTgGzOWBwDAiDgBQFXhsaLhlCHOgGnNTTqNeEIEAABEIgGAe0NTTRkQC9BAARAIFACMDSB4lZrDIZGjRdKgwAIgEAQhkaV8nnnnad6CMqDAAiAAAgoEIChUYAVdFEYmqCJoz0QAIGwE/Db0ISdD+IHARAAgUIkAEOjsaowNBqLg9BAAAS0JABDo6UsCAoEQAAEfCUAQ+Mr3twqh6HJjR+OBgEQiB4BGJroaY4egwAIgAAMjcbnADM0eIEACIAACKgRKCkpUTsApUEABEAABEJNAIYm1PIheBAAARAAARAAARAAARCINgEYmmjrj96DAAiAAAiAAAiAAAiAQKgJwNCEWj4EDwIgAAIgAAIgAAIgAALRJgBDE2390XsQAAEQAAEQAAEQAAEQCDUBGJpQy4fgQQAEQAAEQAAEQAAEQCDaBGBoNNZ/+/btGkeH0EDAXwKtWrXytwHUDgIgAAIgAAIgUBAEYGg0lpEZmhYtWmgcIUIDAX8I7Nq1i2Bo/GGLWkEABEAABECg0AjA0GisKAyNxuIgNF8JwND4iheVgwAIgAAIgEBBEYCh0VhOGBqNxUFovhKAofEVLyoHARAAARAAgYIiAEOjsZwwNBqLg9B8JQBD4yteVA4CIAACIAACBUUAhkZjOWFoNBYHoflKAIbGV7yoHARAAARAAAQKigAMjcZywtBoLA5C85UADI2veFE5CIAACIAACBQUAVeGJlb+RxrZbDCt/Oqo0flBi/bR+OsqZwXj1P4l1L3raur1++eo98WVsqojCgelGJq4Dve1fYl6/HEKtS6KeY8gXv+olnfSKknnDr96lZ4e0CjRls3nAxd+SOOyPA+87wBqLBQCMDSFoiT6AQIgAAIgAAL+E3BvaFpMp6arVsGA+K+J0UJeDM1VM6nJimfpdmY0kwZmW+ff0JsTOyf+L31+av9SuvXWd+j+XT4ZrABZoym9CMDQ6KUHogEBEAABEAABnQnA0GisTt4NTZyNybRQqcnQWA2OxigRWp4J7N27l6688krbKOw+g6HJs2BoHgRAAARAAARCRCAnQ8NT0eIzN5fdeRn9+uFneLc7jN9IiwclUpRYalmPLg/RnmMnqOO4X9E5817hszx96m3nx8l/u6mDat9GK/dOo2avT6DGs+rQhpV3Ut2YD6lXmgiY1tAkzQXj9vCEJHuRHpacSbH9LGlSet30MNeFvYy0McsMDP+w4mOa27snHRr0Jo3rsNNkaE5ueYSue61FYvYGLxBwIHD06FGaMGECdezYkTp3Np8r69evp40bN9K4cePorLPOMmqAocHpBAIgAAIgAAIg4JaAe0Mjr6FJGos28Ztqtram9PoZtG1yZzq55WFqMOwINx3is5rT9/K1Nn9d2I86TTlMU9Y9l2po0tUhpbqx+gd+VExP/fBZGBpmaOLrXUQ6GDMXje45QsvLplJrF5/VfLSMr31hMzA9b36Bbl2zgm6PG005pczW0MhrbGr3SrTnx3oet2cwyoWCgJ2pcTIzrEMwNKGQFUGCAAiAAAiAgBYE3BsamzU0YoZGrK2R/18cW049Rh+l365IzKLIn9nN0DjWkZzhEbQu7LOAm6covNzM0JjWu4j1LVZjIs283BZ7NmXdy7px19Gua9enzMCcNjSjqOYjy1IMj8kMYXOHKJySOfVRNjWsIruZGdEADE1OqHEwCIAACIAACESKgPaGplu3t+nBsmmRnAXQwdCkXUMjp6Nhp7NIXTiy7awwNex4a5qZXCcMTbaEcRwIgAAIgAAIRI+Ab4aGz8LEU8lcpZxJsz8pMznxOg7etcZYl8MkYqlnWEOTZoF+mhkanlYWTxuTU86MncrsFv1LZe12OTPS1TBDE72rR5Y9ZqaGveQ1M9aqYGiyhIvDQAAEQAAEQCCCBNwbGsvv0LDF/0sGHDIW97Pfk7GmoPE1NX2f5FgzbQpgl3LG6pQ3FmD1sJSzrZ13wNCk23EsnaHhTJeSsSlAteY06Q/x9TPSNs3G79DInzH41t+hsX4ewQGELvtDAIbGH66oFQRAAARAAAQKkYArQ+NFx5kxiXL6WDYMU1LOsqkEx4BACAnA0IRQNIQMAiAAAiAAAnkiEJihWTe2PQ3/oLjgt1r2UkcYGi9poq4wEYChCZNaiBUEQAAEQAAE8kvAP0MTXzA+u7g7TS79MtHD5FbP2OLXveAwNO5ZoWRhEYChKSw90RsQAAEQAAEQ8JOAf4bGz6gjUjcMTUSERjdTCMDQ4KQAARAAARAAARBwSwCGxi2pPJSDockDdDSpBQEYGi1kQBAgAAIgAAIgEAoCMDQaywRDo7E4CM1XAjA0vuJF5SAAAiAAAiBQUARgaDSWkxkavEAgqgRatWoV1a6j3yAAAiAAAiAAAgoEYGgUYKEoCIAACIAACIAACIAACICAXgRgaPTSA9GAAAiAAAiAAAiAAAiAAAgoEIChUYCFoiAAAiAAAiAAAiAAAiAAAnoRgKHRSw9EAwIgAAIgAAIgAAIgAAIgoEAAhkYBFoqCAAiAAAiAAAiAAAiAAAjoRQCGRi89TNHMnj1b4+gQWpgIlJSUhClcxAoCIAACIAACIAACrgnA0LhGFXxBZmgmTpoUfMNosaAIjB0zhmBoCkpSdAYEQAAEQAAEQEAiAEOj8ekAQ6OxOCEKDYYmRGIhVBAAARAAARAAAWUCMDTKyII7AIYmONaF3BIMTSGri76BAAiAAAiAAAjA0Gh8DsDQaCxOiEKDoQmRWAgVBEAABEAABEBAmQAMjTKy4A6AoQmOdSG3BENTyOqibyAAAiAAAiAAAsqGZt3Y9vTr8jG0bXJnX+nFyv9II1qtoZ7bH6XWRTFf29K18nSG5uQrI6lqlxk89Osfe5fWjrhc124grjwTgKHJswBoHgRAAARAAARAwFcCSobm1P4l1HPUXro4to+aTF1JvS+ulDE4ZkxGtphOTVetclVeVFgohibb/jMOToYmVr6R+l20jO44sICujW2i/heMp1ZbttCQS87IqAcKRI8ADE30NEePQQAEQAAEQCBKBJQMzV8X9qNH4rMzvyyaxP9dPKhRRlbZ3tDD0DgbGjY7c8maa2j/vFs4//ee6EqjTk3FLE3GszGaBWBooqk7eg0CIAACIAACUSHg3tBUfEyzi0dSrckrqDi2nHqMPkq/XXEn1Y3FyGpaxP+brfgF7elZQiu/Osp5XthnAU9VYzM9Pbo8RHuOneDvD1q0j8ZfV9nEXDY0baiUz/Jcdudl9OuHn+HlOozfeNpQ8di60+TSL436Huqwkx9TuVNlWrq2Lq3cO41a/n3p6XZr38bfE3VfMbUrvTBsEo+JxVN8YDB1irdhbcsUu6UOa3xLBhyikc0Gm/q/tfMOajyrDm1YmWCX7uU0Q2M1MFaDE5WTF/10RwCGxh0nlAIBEAABEAABEAgnAdeGht/ICxNDnxjmhqWdORkalmbWp952U8oZLxu/ya85fS83Maze7l1XU6/fP2dKSUsxNPFjSq+fwQ3RyS0PU4NhR7ghaR1jsXSnbT9ZZpoxEu0cvGsNf98aI6tj4EfFJEzHyz8cxk3GuVsnUIO+TxqGSW5LmB+RPmetwy4+u2NgaMI5WMIaNQxNWJVD3CAAAiAAAiAAAm4IuDY0It1MpJmx//f78OfcYKgYGmZgunV7mx4si5uR5GJ/ttHAjo4bTLM0djM0wkjI7bHZImt9rOPWmKyzQqwMmzHaPrFGquGS1vxY25JnltzUYTV0bkQRZTBDo0ILZZ0IwNDg3AABEAABEAABEChkAq4MjZjtEKljBhBLypWd4bDe0OfT0LgxPunMmVvzJNfhh6HBGppCHpLe9w2GxnumqBEEQAAEQAAEQEAfAq4MDUutSkmTSq5bOTR0G42/9nOe9sX/jqeR8TStIW/RlHXPuUo5czIaYttma9qWyXTU/9Q55cw60xJPWxMpaEKCdAbGmk7HzYliHVZDY8vS4XxwmqE59eFcurrtLpr8OXY502co6RsJDI2+2iAyEAABEAABEACB3Am4MjQsJWxp/SdTdjWT0864iYmvPWGvi39+OzXf+KGxVTM7fvAz++w3BajWnBsf6xbQblPODNMhLb5ni/rFpgDydtHWtDPVlDPWVjZ1yP33YlMAxlj+HZrhL5+gGTdWyf1sQA0FSQCGpiBlRadAAARAAARAAASSBFwZGtDKD4F0P6yZn4jQahgJwNCEUTXEDAIgAAIgAAIg4JYADI1bUnkoB0OTB+gF2CQMTQGKii6BAAiAAAiAAAgYBGBoND4ZYGg0FidEocHQhEgshAoCIAACIAACIKBMAIZGGVlwB8DQBMe6kFuCoSlkddE3EAABEAABEAABGBqNzwEYGo3FCVFoMDQhEguhggAIgAAIgAAIKBOAoVFGFtwBzNDgBQJeECgpKfGiGtQBAiAAAiAAAiAAAtoRgKHRThIEBAIgAAIgAAIgAAIgAAIg4JYADI1bUigHAiAAAiAAAiAAAiAAAiCgHQEYGu0kQUAgAAIgAAIgAAIgAAIgAAJuCcDQuCWFciAAAiAAAiAAAiAAAiAAAtoRgKHRThIEBAIgAAIgAAIgAAIgAAIg4JYADI1bUnkot3379jy0iiZB4DSBVq1aAQcIgAAIgAAIgAAIaE0AhkZjeZihadGihcYRIrRCJrBr1y6CoSlkhdE3EAABEAABECgMAjA0GusIQ6OxOBEIDYYmAiKjiyAAAiAAAiBQAARgaDQWEYZGY3EiEBoMTQRERhdBAARAAARAoAAIwNBoLCIMjcbiRCA0GJoIiIwuggAIgAAIgEABEICh0VhEGBqNxYlAaDA0ERAZXQQBEAABEACBAiAAQ6OxiDA0GosTgdBgaCIgMroIAiAAAiAAAgVAQM3QVHxMs4u70+TSL3nXq7caQxtW3kn/UVFKI1tMp6arVlHviysVABY9upCroTm55RFq1G8BndnqQVq3fAidu3Ui/z97dfjVq/T0gEZqHS3/I426aiY1WfEs3Z5G578+PYC6r7uKt1k3FlNrA6W1IQBDo40UCAQEQAAEQAAEQCANAdeG5tT+JdSjy0PUZNb7NP66yrxK9t6iA7fRwPY7AzU0sfiNdRQMlJKhsZoN9v+Wd1LNR8toHNNL/rzedlfGJOW8cWNoku2u/eHdMDQhv/TA0IRcQIQPAiAAAiAAAhEh4M7QJGdmDg3dZpgZmU/QBiPo9vJ1LuRsaKTZlFP7l9JtY47RjGWJWZN1466jXdeuT5gdty8XhobNziz7ri29t/E7oy231aOcvwT27t1LV155pW0jdp/B0PirB2oHARAAARAAARDwhoArQ8NmYrp1e5seLJtGrYtSU4iEwbhiald6Ydgk2nPsBHUYv5EWD0qkNK0b254GP7OP/31hnwW0bXJnEsdU7lSZlq6tS6veHkZlt/cw0tkGLdrHzZOYGWJ1Uu3baNVbt9CqFkNo5VdHjfq2dt5BjWfV4elvhZTilGJo7GZh4qal2fK7aE/xMFqVZFK/+OfUfMPLxv95eln/qjS39yiq+cgyuj0+Q3Nf25eoxx+nUGsq5bM1jSffSC/eM5lrN3Dhh9Tr46HU+aFNnLGRnpZsXy4rp64x09RnwfdpyaCvTObJm1MVteRC4OjRozRhwgTq2LEjde7c2VTV+vXraePGjTRu3Dg666yzjM9gaHIhjmNBAARAAARAAASCIuDa0PQYfZR+u8LeMHBz0mwwvfzDYdxUnLt1AjUYdoRW7jUbIHlmpU/8ppodc/CuNdz4nNzyMLVffxU3O+JlnYlhZQZ+VExLBhwypZyx96NsaPiaFmsamc1sCjMcvW562DAtRipaPDVNpIiJdTbCqPB1OPccoeVlUxPmRyp7/oFl1PPmF+jWNSvo9vqfGobpttizMDRBjWCFduxMjZOZYdXC0CjARVEQAAEQAAEQAIG8EXBtaNzM0IhNAeyMSIO+TyY6Wa05TVn3HHFDI20kIGZizrp3rTGzY5qdSSJiMzzbJ9aI5hoahxkaN4bGMeWsw07zehqVNuKaiNQ1NqMzufwBvtGAta28nd1oOIWAbGrYh3YzM+IgGBqcQCAAAiAAAiAAAmEg4MrQkOIaGtnQFMeWn05Xi30S3yVtJNWavCLF0AhYf13YjzrF09VYytkv66+wTXWL7BoaFbNhKcvWtgjDwVizmZfrXmtBb06okb2hiZ8Xc3v3pH8MmETfPnCPkeImtBS7qxVSGmAYBnWmGIWpYeWsaWbysTA0mUjicxAAARAAARAAAR0IuDM0/Ab4YWKzLGJtCwveaZcz2XD0/HiikQ52/oGl1L3raur1+9QZGhkGMzWPlI9JpJZJaWmijN0MUCRSzpIG4tCgN/lifp4O9t9v06Q/xFO+MqScsbJN5tYxdh5jMyvP1p9LT/c7pGZo4ilnh0pWGzMxt976Dt2/K74WR1pbhRkaHYZ2+hiYqWEvec2M9QgYGv11RIQgAAIgAAIgAAJErg2NMDBs62a+QD/+cvodGpPhiK+tEL9d872WxfTTon3UZOrKlBkaYZh4xfHF/2L9jTXtTGwqIDYaYP+PzKYA3FgmfluGvfji/40fGb8Lw0zKnYv30YW956XOvMTLs1kasdCfl5kYX6+UbtaH/daMzXbPbCOHZctLeQxsAwHrTmkwNIVxaYGhKQwd0QsQAAEQAAEQKHQCSoam0GHo1j+lbZt1Cx7xhJ4ADE3oJUQHQAAEQAAEQCASBGBoNJYZhkZjcSIQGgxNBERGF0EABEAABECgAAjA0GgsIgyNxuJEIDQYmgiIjC6CAAiAAAiAQAEQgKHRWEQYGo3FiUBoMDQREBldBAEQAAEQAIECIABDo7GIMDQaixOB0GBoIiAyuggCIAACIAACBUAAhkZjEWFoNBYnAqHB0ERAZHQRBEAABEAABAqAAAyNxiIyQ4MXCOSTQKtWrfLZPNoGARAAARAAARAAgYwEYGgyIkIBEAABEAABEAABEAABEAABXQnA0OiqDOICARAAARAAARAAARAAARDISACGJiMiFAABEAABEAABEAABEAABENCVAAyNrsogLhAAARAAARAAARAAARAAgYwEYGgyIkIBEAABEAABEAABEAABEAABXQnA0OiqTDwu7HKmsTgRCQ27nEVEaHQTBEAABEAABEJMAIZGY/HwOzQaixOB0PA7NBEQGV0EARAAARAAgQIgAEOjsYgwNBqLE4HQYGgiIDK6CAIgAAIgAAIFQACGRmMRYWg0FicCocHQREBkdBEEQAAEQAAECoAADI3GIsLQaCxOBEKDoYmAyOgiCIAACIAACBQAARgajUWEodFYnAiEBkMTAZHRRRAAARAAARAoAAIwNBqLCEOjsTgRCA2GJgIio4sgAAIgAAIgUAAE1AxNxcc0u7g7TS79kne9eqsxtGHlnVQ3FnNEESv/I41sMZ2arlpFfeptN/7ufXElV/hO7V9C3buupl6/f47cHuOq4hAUytXQnNzyCDXqt4DObPUgrVs+hM7dOpH/n706/OpVenpAIzUKcS1HXTWTmqx4lm5Po99fnx5A3dddxdtMd26oNe5jaZf9skZwav9S6nnzC3TrmhVpefgYua9Vw9D4iheVgwAIgAAIgAAIeETAtaFhxqJHl4eoyaz3afx1lXnz7L1FB26jAdcm/m/3UjU0cvmoGRgrPyVDY70pZ/9veSfVfLSMxjG95M/jxtKNMUnR082Nf7LdtT+8u+ANjUdjUNtqYGi0lQaBgQAIgAAIgAAISATcGZrkzMyhodsMM+OWIgyNW1Kp5XI2NNJsCptNuG3MMZqxLDFrsm7cdbTr2vUJs+P25cLQsNmZZd+1pfc2fme05bb6vJVz0a+8xeZhw3v37qUrr7zStka7z2BoPISPqkAABEAABEAABHwj4MrQsJmYbt3epgfLplHrIvv0MjGDs+fYCR7soEX7uPlJZ2jWjW1Pg5/Zx8tf2GcBbZ9Yg0Y2G0wrvzpqfi+ZssZmbDK1c9mdl9GvH36GH99h/EZaPKgRndzyMDWeVSdjepxvlLOsOMXQ2M3CxE1Ls+V30Z7iYbQqya1+8c+p+YaXjf/z9LL+VWlu71FU85FldHt8hua+ti9Rjz9OodZUymdrGk++kV68ZzIx/QYu/JB6fTyUOj+0KcFRpKcl25fLyqlrzDT1WfB9WjLoK5N5sus+K9vrpod5ex1/OY7OnrfOSDYtYtQAACAASURBVGWTP6PavWh52VQjTqbvwxOS+kppc+mOqdypMi175UJez+HxHenOxclzrvc8enNiZ/PslVMqXdzUz+3dk6Yk0y0Zo3EddmY305Xl+ZDLYUePHqUJEyZQx44dqXPneJ+l1/r162njxo00btw4Ouuss4xPYGhyIY5jQQAEQAAEQAAEgiLg2tD0GH2UfrvCfr0MNy1xI1Jz+l5uYuR1L/K6Gac1NOlMT8pn6dqJf1Z6/QzaNrkzNzENhh2hlXunUbPXJxS0oeFrWqxpZDazDvJNP78hF6lo8dQ0kSIm1tkIo8LX4dxz5LSpkMqef2DZ6TUk9T81DNNtsWfTGxpLOhyb1ek89QhN+kN8LYqlH6z9Ift60dP9DvEUum2df8NNSEpc0myU9ZhDJatT1wuppOAlzcz2TovN9YRsZsfO1DiZGXYBgqEJ6jKMdkAABEAABEAABHIh4NrQpJuhsZvBYbMvOzpuoIfiT7GdNgXgpqPvk4n4qzWnKeueS9k4QDY0xbHlKTNFdu2wmZxCWIvjdobGjaFxTDmzzjI4zALZthGXTaSusRmdyeUP8Bt+a1vWEzTlc6lNZobEzI047kI2kzKhhnk2JJtj4hWKjRLEOWdnouzivfXWd+j+XfEZLXmGMmSGhvVLNjXs/3YzM6L/MDS5XFpxLAiAAAiAAAiAQFAEXBkayrCGJhtDYzInsU/iu6eNpFqTV8DQSMp7aWjYLIgwHKwJdmN/3Wst0hoFvpNZupmM5MzFPwZMom8fuMdIcRNdELurWXc6y2RoXJkHi6Fxcwxr1ygXP+fkFLx0mySYjgu5oZFNDfvbmmYmX3hgaIK6DKMdEAABEAABEACBXAi4MzT8BjgxmyLWxrBGxS5nA9vHZ2EsqWBiRqdNfI2G3QxNz48nGmlg5x9YamzNbE1Ly5RyZteOdYZGbisU2wgnFU0xNEkDcWjQmzxdjM82/PfbtqlaJiMSNyasbJO5dYydx9jMyrP15yZSueStmDPN0MTTvkQKl9ONfqYZGh6btANbSsqZ1IZxcivE5XSMzMCULpdp17cCSTmTLxRspoa95DUz1gsJDE0ul1YcCwIgAAIgAAIgEBQB14ZGGBi2dbNY+C//Do1psX4yfcxqLExmJb7mQvymzfdaFtNPi/ZRk6kr+W/NiM0CjI0CnDYFcGinYA0NN5aJ35ZhL774f+NHxmJ6ZlLYgnfbFK14eW4ckgv9eRm7BfGZjEPc/PBF9stLeQzGWhzpjM1oaCz9SLspQLxsppQzNpNk2hTA6RhpYf/3Wt5GP43tpysnL09df2Q3+pImTGy8ELZNAbK5oMDQZEMNx4AACIAACIAACARNQMnQBB1c1NtT2rY5xLAcU7pC3KdCCB2GphBURB9AAARAAARAoPAJwNBorHHoDY1lVoOjFtswS2tR2MzSvR/elv8f4nQZr8anjKehwdB4ihOVgQAIgAAIgAAI+EQAhsYnsF5UG3pD4wTB8psudibHC36oIzcCMDS58cPRIAACIAACIAACwRCAoQmGc1atFKyhyYoGDgqaAAxN0MTRHgiAAAiAAAiAQDYEYGiyoRbQMTA0AYFGM7YEYGhwYoAACIAACIAACISBAAyNxirB0GgsTgRCg6GJgMjoIgiAAAiAAAgUAAEYGo1FZIYGLxDIJ4FWrVrls3m0DQIgAAIgAAIgAAIZCcDQZESEAiAAAiAAAiAAAiAAAiAAAroSgKHRVRnEBQIgAAIgAAIgAAIgAAIgkJEADE1GRCgAAiAAAiAAAiAAAiAAAiCgKwEYGl2VQVwgAAIgAAIgAAIgAAIgAAIZCcDQZESEAiAAAiAAAiAAAiAAAiAAAroSgKHRVZl4XLNnz9Y4OoQGAiAAAnoSKCkp0TMwRAUCIAACIOALARgaX7B6UykzNBMnTfKmMtQCAiAAAhEgMHbMGIKhiYDQ6CIIgAAISARgaDQ+HWBoNBYHoYEACHhO4PC33+ZUZ63atQmGJieEOBgEQAAEQknAlaGJlf+RRjYbTCu/Omp0ssP4jbR4UCPfOn1q/xLq3nU19fr9c9T74kqu28n2ONcNBFgQhiZA2GgKBEAg7wRgaPIuAQIAARAAgVAScG9oWkynpqtWcXMhDE7p9TNo2+TOee04j0WKLa/BeNw4DI3HQFEdCICA1gRgaLSWB8GBAAiAgLYEsjI0rDdsJqRbt7fpwbJp1LoolrcOwtDkDT0aBgEQAAFPCcDQeIoTlYEACIBAZAhkbWio4mOaXdydDg3dRuOvq8wNTo8uD9GeYyeIat9GK/fGjU7sE15mcumXHOigRft4WXGs/P5DHXbymZbKnSrT0rV1adVbt9Cqqx7js0J96m3nn10xtSu9MGwSb4OlvC0ZcMiUCndhnwW0fWIN04yNKS4pBmGELrvzMvr1w8/w+EQa3cktD1PjWXVow8o7qW4sf2YNMzSRGYfoKAiAQJwADA1OAxAAARAAgWwIeGJohBkRKWnMEAz8qJie+uGz1H79Vea0tKQR2vaTZaY1OCKN7eBda/j78swLNzTxNTwv/3AYNxnnH1hqrK8RZseUDpdMQRPH1Zy+1zBdYl2O+EykzbGYGww7wo1Ys9cnwNBkczbhGBAAARDIgQAMTQ7wcCgIgAAIRJhAjoZmJNWavIKKY8tPz84kYbLZkjeHHOLvn3XvWsO8OKWqWVPHUgyNZZ3MurHtaUfHDWQ1U/JxLC5rWpyb41Q2IfDz3MEMjZ90UTcIgIBuBNIZmrKyMmratGnakLHLmW6KIh4QAAEQCIZA1oZGNiYt/7407Xqavy7sR53iKWIs5eyX9VfYllUyNFK6GwxNMCcKWgEBEAABvwk4GRpmZsQrnamBofFbIdQPAiAAAnoSyMrQiPQwkcplTRez6yozNY+Uj6HFA6vydTW2KWfWndQsqWMiHU02U22o1LRmxi5VTU45EzM26Y7r+fFEpJzpeb4iKhAAgQImYGdoZDOTydTA0BTwyYGugQAIgEAaAu4Njfw7NNWa05R15t+HsS6+ZylnWzvvoAZ9n0w0LzYKiO+IZv1dGzZzk26mRayT4RsGLCvl1RkbDMT/Zmlkg5/ZRxk3BZDiTjcjBEODMQMCIAACwROwGhrrzEymmRoYmuA1Q4sgAAIgoAMBV4Ym34EW8tbM6dhiDU2+zzy0DwIgECQBJ0Mjp5kJU2OXegZDE6RaaAsEQAAE9CEAQ6OPFimRwNBoLA5CAwEQ8JyAnaGxMy5OGwTA0HguCSoEARAAgVAQgKHRWCYYGo3FQWggAAKeE8C2zZ4jRYUgAAIgEAkCoTA0kVDCppMwNFFVHv0GgWgSgKGJpu7oNQiAAAjkSgCGJleCPh4PQ+MjXFQNAiCgHQEYGu0kQUAgAAIgEAoCMDQaywRDo7E4CA0EQMBzAjA0niNFhSAAAiAQCQIwNBrLDEOjsTgIDQRAwHMCMDSeI0WFIAACIBAJAjA0GssMQ6OxOAgNBEDAcwIwNJ4jRYUgAAIgEAkCMDQaywxDo7E4CA0EQMBzAjA0niNFhSAAAiAQCQIwNBrLDEOjsTgIDQRAwHMCMDSeI0WFIAACIBAJAjA0GssMQ6OxOAgNBEDAcwIwNJ4jRYUgAAIgEAkCMDQaywxDo7E4CA0EQMBzAjA0niNFhSAAAiAQCQIwNBrLDEOjsTgIDQRAwHMCMDSeI0WFIAACIBAJAjA0GssMQ6OxOAgNBEDAcwIwNJ4jRYUgAAIgEAkCMDQaywxDo7E4CA0EQMBzAjA0niNFhSAAAiAQCQIwNBrLDEOjsTgIDQRAwHMCMDSeI0WFIAACIBAJAjA0GssMQ6OxOAgNBEDAcwIwNJ4jRYUgAAIgEAkCMDQaywxDo7E4CA0EQMBzAjA0niNFhSAAAiAQCQIwNBrLDEOjsTgIDQRAwHMCMDSeI0WFIAACIBAJAjA0GssMQ6OxOAgNBEDAcwIwNJ4jRYUgAAIgEAkCMDQaywxDo7E4CA0EQMBzAjA0niNFhSAAAiAQCQIwNBrLDEOjsTgIDQRAwHMCMDSeI0WFIAACIBAJAjA0GssMQ6OxOAgNBEDAcwJWQ1NWVkZNmzZNacfp/Vq1a9PYMWOopKTE89hQIQiAAAiAgL4EYGj01YZgaDQWB6GBAAh4TsDO0LBGZFPDzIz1PREIDI3nkqBCEAABEAgFARgajWWCodFYHIQGAiDgOQEnQyMMjDAzMDSeo0eFIAACIBBqAjA0GssHQ6OxOAgNBEDAcwJ2a2hkEyMatEtDY59hhsZzSVAhCIAACISCAAyNxjLB0GgsDkIDARDwnIDTpgCZZmZEIDA0nkuCCkEABEAgFARgaDSWCYZGY3EQGgiAgOcE0u1y5rQRgBwEDI3nkqBCEAABEAgFARgajWWCodFYHIQGAiDgOQFs2+w5UlQIAiAAApEgAEOjscwwNBqLg9BAAAQ8JwBD4zlSVAgCIAACkSAAQ6OxzDA0GouD0EAABDwnAEPjOVJUCAIgAAKRIABDo7HMMDQai4PQQAAEPCcAQ+M5UlQIAiAAApEgAEOjscwwNBqLg9BAAAQ8JwBD4zlSVAgCIAACkSAAQ6OxzDA0GouD0EAABLQkMHbMGCopKdEyNgQFAiAAAiDgDwEYGn+4elIrMzR4gQAIgAAIqBGAoVHjhdIgAAIgEHYCMDRhVxDxgwAIgAAIgAAIgAAIgECECcDQRFh8dB0EQAAEQAAEQAAEQAAEwk4AhibsCiJ+EAABEAABEAABEAABEIgwARiaCIuProMACIAACIAACIAACIBA2AnA0IRdQcQPAiAAAiAAAiAAAiAAAhEmAEMTYfHRdRAAARAAARAAARAAARAIOwEYmrAriPhBAARAAARAAARAAARAIMIEYGgiLD66DgIgAAIgAAIgAAIgAAJhJwBDE3YFET8IgAAIgAAIgAAIgAAIRJgADE2ExUfXQQAEQAAEQAAEQAAEQCDsBGBowq4g4gcBEAABEAABEACBLAm88tbBLI/U97AbmvxffYNDZL4QgKHxBSsqBQEQAAEQAAEQAAG9CTAzU4g3/4XaL73PpvxGB0OTX/5oHQRAAARAAARAAATyQqBQb/wLtV95OUlC0igMTUiEQpggAAIgAAIgAAIg4CWBXG78P/nH/6PPvj5O559dleqeU005rB0ffkNfH/u36+POrlGZrmr4PVflc+mXqwZQSDsCMDTaSYKAQAAEQAAEQAAEQMB/Atnc+DMjs+/Lf1HN6pXp1KkK+tfJU1ReUU4Nzj1Tydj86+R3tPfvR+jwP09RRUVF2s6eUSlGF59bLd5GDVdQsumXq4pRSFsCsfkv7Ul/FmkbOgIDARAAARAAARAAARDIhYDbNTSykWHtffHNcVOzZ1Y9w3Njo2pkRECFuNFBLhpH4VjM0ERBZfQRBEAABEAABEAABCwE3M5kiPSwWCyWcTaFlalZvRK1aXS2Em8xY/PtP7+jM4rUZmSsDbntl1KAKKw1ARgareVBcCAAAiAAAiAAAiDgD4FCvfEv1H75cxYURq0wNIWhI3oBAiAAAiAAAiAAAkoECvXGv1D7pSRuxArD0ERMcHQXBEAABEAABEAABASBQlxv4nZdEM6CwiEAQxMiLV977TXq179/iCIu7FA/+/RTOv+CCwq7kyHqHfTQSyzoAT30IqBXNBgf0EMvAnpFk834gKHRS8O00cDQ6CVWNgNOrx4UVjTQQy89oQf00IuAXtFgfEAPvQjoFU024wOGRi8NYWhCpEc2Ay5E3QtdqNBDL8mgB/TQi4Be0WB8QA+9COgVTTbjA4ZGLw1haEKkRzYDLkTdC12o0EMvyaAH9NCLgF7RYHxAD70I6BVNNuMDhkYvDWFoQqRHNgMuRN0LXajQQy/JoAf00IuAXtFgfEAPvQjoFU024wOGRi8NYWhCpEc2Ay5E3QtdqNBDL8mgB/TQi4Be0WB8QA+9COgVTTbjA4ZGLw1haEKkRzYDLkTdC12o0EMvyaAH9NCLgF7RYHxAD70I6BVNNuMDhkYvDbM2NLHyjdT/vO60+ZZFtH/eLUY9/P0LxlOrLVtoyCVnaN3bMMXKQGYz4LQWQNPgTn04l37xh3Y0+xdf0OC7jtL8OafPbznkdHqI8fH0wSPGIdc/9i6tHXG5571+oeQS6jHng5R6/WrP8w54VGHQ48PPa2CudcvXtqENt+blmqyqBzuPR56aavo+8ejUMFXD2PS7aBndcWABdagU86MJLevMeL2SvrdjFftoasd2NKfhLN/10BJWAEFl1CN+f5XN98fJV0ZS1S4zqMY1U+mdzaOoXpHaOR62+yKvpFLVY/jLJwiGxiv6AdSTbttmcdJ/1OAv1OzBz2jGjVV4RGEaDGGKFYYmgBM+2cR7T3SlBQ2ep980WsiNzax77E1IxgugfIPg8ADA2qtczslcjg2Orn8tqd5A5xpJrtfAdHp5WXcYDA17iNBh4G66JPYBtZy/ydXDsGzP90IxNKr9V7leMXP5ZMPnfXkAk+u4K5TjVfRwesBh+/0RN0K1Fh4y7slUeenwMEQ1Zi/Kq+gh2oOh8YJ8QHW4MTTN5/eiZdOP05JNiScBqhfZgLpi20yYYoWh8f9MEU+2rC2xJ11Htt6fEoDqBZDdtF3ddhdN/tz5yXAu52Qux/pP1/8W8mVosr0GujE0XtQdBkPDHiKMis/OTKs0mv/rZiYz2/MdhiZ1LMos266/hbq+NwgzMz5fsnT7/jBu0qUsm3xdO3xGb1u9qh78Af7ChQsr8hEs2syOQL/+/TOagTqPX248zbF+ybCbuGuajaBtR4/zetg0HZvNEeXYF/bS3qP55+yzQX/rTo2H/4GXlVNmTPWc3Z82HXwqJV1ATJM/sPkzU1uZYhDpcZnKXTnqShpx72xTbKIfdp+xgnI60EVDXsjpSyLoG7bszphwH8XOoWklL9Cts0bSW8P+m773xBzHtBTVC6A4Pz+/dz8fA9Zz48Ccs3gap0gzEOeL23NInIutNy+kb0quJdEOU4SZte9P+QH9aVNT+vWFD5E87lTHma4KBz0+5Gud6jVw5g1v2Gptd1PhVLf1ZsPpyWq+bkrc6pEYF/2p9pyNNLBoAbUffMTxAZnoY5vNY6m0fXHKWHG6hsvnrGxoro1t4ul4Ttdvu+8Url38mCo3VaH5q+vx76J2++ad/p5Lfj+JunP5jnOK75XhX6Q9f+zGqJvrFeMw7sWLUlKVrN+/m78cSzt+eo3tNSabNCddryl+xuVGDzl13/r9YdVky5c/p6cvuNUYE+K6bvf9Yb1Ps7t2OI0xP5nks+5s9IgdPnwYhiafqim2fVbNmhkNjfyFmfK3NP3JBmC7loup3/atxMvFP3vu0rH84nn++nt53qcYhPxpeZ9v+ZeFuKiLwc0+u+UvA01P8cRg33LTq+b3k6k+Ygo2JYZkWpCIx7GctF4oJTaHz+T87GyfJsrw3d4gKEqM4hIBphNbN/Pk7CsMY+OUg5zNBZDlpctGgzXtdoo/0zkkf95v3/10yZprDAPNvtRev/FPJG6kxbir+7d55jEppcnZjTOdT5agx4cbA5HxuuKw3tB13da0Rvl6ZvN3kOsa3erBrsnCxNSP7TfMDYvVzY2X+F4QaTl213C53ymGxunaXsRiaUdO3ylfPFDKv2usMYpxI0xHLt9xog6xVjXd92KmsZnxepV8mCIeOtqZa8ZR9G/NpU/ZXmNE+nmmeKL+eUY9LNcG2dAIU229J+Lni+I1xTrOnO7ngrx25OPcyKiHvKYp+dAChiYfSuXQphtDIy5y7AaKP2VODij2tM2aYmO6sXL4MrYOMFaPPMvDumOd7XBK57F73y6GbGNN95RUcGFGjb+qt6G5ZVtd5YerPmHLQWIcykxFchGsmN2ToVi/4MVnGS+Atl9IiSfRTueG3dN0UypcmnPIehMsFj7zBwKdyuhXG+6j+pR4Ii0/+RPjga0ZyjTOdD5Z3N5Ae9UHuxvZXK6Bclxu6i6UGRqRbibSzNj/RcqTiqFJd62Xb7LtZmhMpijN95f1AQQbx9ZZIfH9JH8XZjJnTt9x6epQnXlzc71is0lL/msFf+gobmDT9c/uGqO6CN2r8Ri2etzokTpDc3om0+5abT1fGBO77w/drx350FJVD34tsM7QVJrb0Tb2U3duzEef0KaFgFtDI24ID46YR18PmcJvmLI1CXaGJtPaAx0Njdz/a/nTvtM3s9mcaEHfsGUTY9iPERsCTC16IGUW0No31QugfI6yFBVxTsvnhvWLRj4m0zlkvfmzW5eQcoOYNHJs1ogZmkzjTGd9gx4fTiyzvQamMzR211fdb0rc6CFmVeTdnDgHS9qWneFIN1bE7Lgw634bGrtxk86Muf2OUzF0mcam2+sVm90V2RGMY7q1f9msfcoUZ1Q+d6uHbCzFeSZ/f6TLBHH6/tD92pGPc0BVDyVDwwrD1ORDVnObbg0N10uslznVlM9E2KVbGDdxydxluy8q2ynQ+HSfmOK3o6KScmYXQ7axprswsC8Gtm6BpdTJqT3ZTt26uUHI/xkT7gheKOlEh4avI7Ywlu10li59QuUCaE2HEWtarOeG9XxyKmd3Dllvfux2jhJxiLFk+sJjYzLDONNZ3aDHh10KYC7XwHSGxvb62uhjnhIlUhj5k9hbd5y+9oYg5Uw+v8WTfVNqTZf/ddVH4zvDkuLsZDRMMwtOaXtJvrYpZzY7GFq/n1QMjfj+UanDjxka8X3MjErr1dfw7y4+q+twXchmdzqdryFBxpbL94f1Oi7itpvZtbsHGar5tSNIHURbKnoYvN3O0GTqEMxOJkLefK5iaFiL7ELY+MFvjNQq03S1lC6jcrG3m9a3W2BvfdonUoXcxuC2XLo1D6bPkhcNlsZ0ztUD6OaiD11vSWqnXtA3bN6cQYVbS8YLoJxza0kVk1PcrOeGWMTJzvEDc6/gN3RuziG7G2zrb3uIMnxB85ObuThySp01vSTXjSyCVD/o8eG0psntNZCxkbV283te1rrldJJGgwZTm5f/zGfHdciDd6OH0/bActqZUx/Z94KVn9M13GoW3Rga2SSJGSQ2VqzrF0xmM7n5DR+7Uvp1ppQzp++4THU4nT+q3x9O14473htoPJCTU5zk60JQvx8U5LUkiLZy+f5wfc5JqdTW7xk31w67MRYEm3y0oaRHPMAu01+0Tzk7o3nflPhPvb+CKv550rFf6QzNn+fcSq0feM04tuOk7fT8XZc51nXytTFU59ZZlKlcPiDnu00nQ5PvuKLYvpsbhChyyVefw6CHNeXG6SY8Xwy9bDcMenjZX93rgh56KeSXHnZpfXr1XM9o/NJDz97qH1U2etiuobEzNN/tXpyWgJOh+f3IZtTnqY/ov1d+RVM6V44v9t1CT8w5l4aVwNBkc0rB0GRDzZ9jshlw/kSCWhkB3fWQd48y0nmk3xjINvVRV/V110NXbn7FBT38IptdvX7oYXeNyS666B3lhx7Ro+hdj7PRw/WmAJnCtDM0pz56in7a/kH6sudCendm10xVGJ9jhsYZFQyN69PI94LZDDjfg4pwA7rqYaSz7aiXsqseZmgifMIG3HVdx0fAGLRpzks90l1jtOmw5oF4qYfmXQ1FeNnoYWtoqt+/K6XD/3q0RVoIdoZGpJqJ2RlrBcK4iPdFiplsaJ5ttNiUfibXObHBM9ww/f3yH9NF771Nu4+diG/F24L69fw/9PSiN3m1dfsv5WZK1FnnqquMstXb/Jq2r72H6tEWurNhH1p26KjpGB1Vh6HRR5VsBpw+0RdeJNBDL02hB/TQi4Be0WB8QA+9COgVTTbjw1dDw9PNln+PZry+ngY0rGSiJQyGMByyUXm4aLxhYtwYmj9fMYYbk3/OTazVYXW+N+NHNL1rZ/p1WV3efp8D43idwsSIssxstV3fyjFOvSQmgqHRR5FsBpw+0RdeJNBDL02hB/TQi4Be0WB8QA+9COgVTTbjw9eUM+v6GRmX9TM5Pa3sxlIlQyNS2oQpEjM9sqEShsZqoFjZR4rGGZsW6L4RAQyNPoMumwGnT/SFFwn00EtT6AE99CKgVzQYH9BDLwJ6RZPN+PB1hibdWhidDA3bcU1OfxOzOBfF9BKYRQNDo48m2Qw4faIvvEigh16aQg/ooRcBvaLB+IAeehHQK5psxoevhiZWcSCR9vXmFym7nA1t6Lw2xi7lTMysyEZIrKHJdYZGbCHNdmBja2nWNLyPp7DB0Oh1gusWTTYDTrc+FFI80EMvNaEH9NCLgF7RYHxAD70I6BVNNuPD15Qzhkc2NQKXdfG/0/us3Asl1QxTxMpdFV/Uv2PHDm6QvDI0/f/Wh28tzV/xTQXs1vzoIjVmaHRRIhHH4W+/pVq1a+sVVISjgR56iQ89oIdeBPSKBuMDeuhFQK9oVMdHiqHRqzuIxkoAhkavc0J1wOkVfeFFAz300hR6QA+9COgVDcYH9NCLgF7RqI4PGBq99MsYDQxNRkSBFlAdcIEGF8HGoIdeokMP6KEXAb2iwfiAHnoR0Csa1fEBQ6OXfhmjgaHJiCjQAqoDLtDgItgY9NBLdOgBPfQioFc0GB/QQy8CekWjOj5gaPTSL2M0MDQZEQVaQHXABRpcBBuDHnqJHiY9YuUbqf953enpYz+iuWVbacglZ9jCPPnKSKraZQbR2f1p08GnqEMlDbfDdDgNoAfGh14E9IomTONDL3L+RKOqBwyNPzr4VqudoWn5xC767rtyqlq1MpWWNOVtN31sB/83FovRnhEtjXhaz9pDJ058R2ecUUQ7f9HCMc5TH86ldi0XU7/tzl/sdgfzm4ILxlOrLVscbwh8g5OHilUHXB5CDHWT/Oaxz7eubxyD1sPL8/29J7pS1/cG0f55txD7u/HwPyS0k26cjZvp+NvXP/YurR1xeXzjlEvoyYbP8791ewWtRy79Z1r2u2gZ3XFgQUaTolI2l5i8PhZ6eE00t/rCpEduPQ3H/WLq9AAAIABJREFU0U56iIcdm29ZxK/P4iVf/4c23Jpy75Ppc36PFrF7JpUzQXV8wNCo0NWgrNXQCDMjh1Y28irD0Ij37d5jn7H3Mw0qlQGnUlYDnDmHoDrgcm4wIhXEKvbR1I7taGGDG6n1ulOubjIZmqD18Op8Zw8Q2g8+Qks2jaJ6RTFuUl6/8U8048Yqpi9PccN9bWyT8eU5tNHHcVb9qfacjdo9RAhaj1yGh4pJUSmbS0xeHws9vCaaW31h0iO3nobj6LSGJv6g9qMGf6FmD35mXJczGZZMn2e69woHNf+iVB0fMDT+aeFLzVZDI2ZiZMMi/hZmhZWxfm4NLt2NmcpNm0pZXwAFXKnqgAs4vNA3p3rjGLQeXp3vbEZm1KmpxizLCyWd6NDwdSaDwmZnLllzjfGEUD7G+pkuwgetRy79VjnXVMrmEpPXx0IPr4nmVl+Y9Mitp+E4OpOhaT6/Fy2bftx48JTJsGT6HIYm/XmhOj5iCxcurAjHqYYoGYF+/fubQAizIt6UzUutmlX524ePHM9oaAacW4uePniEl79oyAt0YM5Z/Alwm81jqbR9sekzNuXKnihf02wEbTt6nB8z/OUT/KmF9QbPqVyhqKk64Aql30H1Q/XG0UmPR6+7gD6/d7/xZI0ZgO9P+QG9s3kUvXX3pdRjzgfGuc/Ob3EeV7mpCs1fXY+nvF1btJ/PGj2w+TPjnJ95wxt8nLAvuqW9R/PxIFLBWCE205Kp7s1fjqUdPx1gzLCI2SnRjqjPanpkE2Od4QlKn0zthGl8qJxrKmUzMQryc+gRJO3MbYVJj8y9CX+JTIaGpdLXefxyI8U3k2HJ9DkMjceG5vDhwzA0IRmHq1evtjU01vAzzdDML07k2hfF19c0Pe9M/rfViKQbiCKftNbCQ/wGUV5vI+eR8r/ji2ztyjktuA2JFEaY+ELyVzHVG0cnPawzGE4pXWL9lzh3v3iglM+aCJOx5aZXTWtVxFh47tKx3Bydv/5e2zU/KeMpPi6MutOs3ZCPa7v+FtMsjtwnVU7+qna69jCNDxWGKmWDYu2mHejhhlJwZcKkR3BU8teSG0OTco+TXDOMNTTe66Y6PmI7d+6EofFeB19qfPfddx0NjV3KmQiiKJ6Tv/uelinratjnTmto0hkaZmCubruLJn9+evGsuEEUT6zZk4yBRQscy8lrA3yBFVClqgMuoLAKphnVG8d0X0im9SedyuhXG+7j61XkhfZUvQ3f4cr65WR3zmd6EMBMu5u6M/VRLPqfVmm0s6Hha470W0cTpvGRSQd5UKmU1WkwQg+d1Ah+zZ9evdcvGjeGRlzXWfqvyGRh9zswNN7rqXq9gqHxXgPfanQyNMKUrP3oG/rlSx+Y0stYMEv7XkGX1alG5eUV1HzmTiO+N+5uTmdWqcT/rzJDA0MTzifQvp2YPlaseuOY7gIoUrZkYyCfy4mUsoQp8MLQyIY+Xd2Z+igeFkwtesBxDU2mOnyUKG3Vql9I+YpTXAOxy1k+FTC3rXJOq5TVp4cwNDppwWJxa2jEjP3BEfPo6yFT+K6udpuzmL5fpI1c5AwV672XbkzyGY/q94fJ0JSXl9Pbb79Nx48n1kWIV7Vq1ejyyy+nKlVO77iTz05GtW07Q+MVCxVDY5dyJmZsTLsv2aScWWd2vIo/X/WoDrh8xRnWdlVvVNLpwb5cOgzcTY2KiPpufJJvzSuvpan7t3nGVuVWQ5M25UzaplweR/323W+s08lct/3sipzOaTJIli9HrKHJ/QxXOddUyuYemXc1hOl6pcJYpax3NHOvKUx65N5b/Wtwa2hYT4z1waeaGr9bxR4+3fHeQJ5+LHarHBnf7EVel2n9SQsYGufzQnV8mAzNiRMnaM+ePba1M1PTpEkT/c/IAo7QT0PDsIkFzPKmAGLwyZ+lbAqQTNNhTx2sg9O0KYBUrlBkUh1whdLvoPqheqOSTg9hSuY0nGXsFCYvwD/n6gF0c9GH1HL+Juf0AfbDi8nNM9hGGHKKpfX8TzyxS2wikKluecG/eGAgtyNSNOUUNrERB9MCu5zlfkaqnGsqZXOPzLsawnS9UmGsUtY7mrnXFCY9cu+t/jWoGBrWG/57YQ9+Yxga64YuNa6Zapgb63WdHc82fHll+BeJH/RNfq+I93X8XbGgFVQdH64NTaaOtGrVioqK4o8+bV4x+owWlQym3+0+xD+t3nQYLZ/Tl87T4AeWyz95ngb3e4W6/s9c6vYfifQrXV9+Gxpd+61zXKoDTue+FEJsYdUjlxmWxJeofutn2PkUJj2MG45jPzJuUOzGhGEqpR88DcvYgR56KRUmPfQi50800MMfrtnWqqqHZ4amZcuW8V+fPyMlbmYYhvR9jH40cQvd0zbxOXtv1Sc/o9vapJbPtuOxil00oct8unyeP8bE7/rd9BuGxg2lYMuoDrhgo4tea2HWgz3t6/reINMvUbtRkM2eirQGN+WDLBNmPYLkFFRb0CMo0u7agR7uOAVVCnoERdpdO6p6OBqaXwwfbrT4xOOPm1q3+8zO0IiZma97v2iYGXfdUC/lt+Hwu343PYahcUMp2DKqAy7Y6KLXGvTQS3PoAT30IqBXNBgf0EMvAnpFozo+0hoaq5GxdpUZG1HGztCwmZhBg96nu14ZS83ss9H4bA2bwXnnXyd59bfPKOXmRxiIBn0b0YyZq/hnbUasoJk/r0/WFLY+02fQkYnj6KWvj/Fy5/eYRi/eX53P2FRuX5lWb7iA5rw6lo5O70n3r/q7UWbN6PZGO2xmp3vdMn6Mtc3Hi7+iCTeMNtc/uqEpjU7E7efpAEPjJ93s6lYdcNm1gqPcEoAebkkFUw56BMPZbSvQwy2pYMpBj2A4u20FerglFUw5VT18NzRDJv2TJsy2Xy/DTUvcKNQY9yo3MfJ6Fm4u4p/tvnY8MePx722PU9txx7gxuWLH49Tz9R/z98XLOoMi6v7qjqe4CZJfcllhYgxD49Bm85g5pY3FY43Bb4mZoenWrZvfzaB+EAABEAABEAABEAABEAgNAd8NTboZGrsZnC3TetLbbZbTiDZvmdbEyCbk5tiLfFanxtDFhlmxNTSWNTXcFA1fmhCn6hX04JJ5xqyMPEMj1uE4GR+2eYCYWZJj8Ft1zND4TVi9ftUnCOot4AgVAtBDhZb/ZaGH/4xVWoAeKrT8Lws9/Ges0gL0UKHlf1lVPfK6hiZbQyN2I9u3YiQVT3+Tp6mlM0DCgAhz1byI7br2MJ31wKysDY2QUo5BbHrgl8wwNH6Rzb5e1QGXfUs40g0B6OGGUnBloEdwrN20BD3cUAquDPQIjrWblqCHG0rBlVHVw/ddzsSsiLzGROxyVtw6PgtjSTkzTIclxctpUT4zFE+UDyO+zkWakbGWZ3H8ZNHZfLvoc//39FbNKSlnDnXI5azbO4sYrKltXssOQ+M10dzrUx1wubeIGtIRgB56nR/QA3roRUCvaDA+oIdeBPSKRnV8eGZorrrqKqpUyf53XKwL/+XfoTF9lkwDY4YhXQpZ109/dzp1rObNfF0N23SApauxRf/ypgBG+pj0Wzi1mtxCHWJ/p/8cM9v1DA2LSa5/1TVv28bg5+kAQ+Mn3ezqVh1w2bWCo9wSgB5uSQVTDnoEw9ltK9DDLalgykGPYDi7bQV6uCUVTDlVPUyGpqKigmIxDX7tMhhWoWsFhkY/yVQHnH49KKyIoIdeeoZJD/ywpl7nDvTQS48oRBOm6xX0SCVgMjRRABTmPjoZmpZP7KLvviunqlUrU2lJU97Fpo/t4P8yg7pnREuj261n7aETJ76L/whqEe38RYsw49AidlwA/ZOB/WBkjzkf8Aauf+xdWjvi8oyNBa0Hv+m6YDy12rKFhlyS2w8Fix/WPDD3CprasR09sPkz3t/hL5+gGTdW4X8bv1IvMWGcnmz4vCs+GQF6XCBoPXIJn2nZ76JldMeBBdShUvoHeyplc4nJ62Ohh9dEc6svTHrk1tNwHO2khzDXm29ZZPrhY/n6P7Th1pTvgkyf83s0D79DwkHZfZSq4wOGxj3bvJe0MzTCzMjBlY28yjA04n2799hn7P1sXxiIRKoDLlvWUTvu1IdzafaHA2hYlypKF/yg9fBqDLD+th98hJZsGkX1aRO9vL4d3XhDFWLvX912F03+fAFdG9tk3HCzv4WRGtro47gB6k+152zM2VR5fZ4FrUcu8auYFJWyucTk9bHQw2uiudUXJj1y62k4jk5raOIPrj5q8Bdq9uBnxgOmTIYl0+cwNOnPC9XxAUMTjnHGo7QzNGImRjYs4m9hVlgZ6+dedNurmzkvYslXHaoDLl9xhrndWMU+1zfsQevh1RhgszOjTk1NmWWRb5zbvHovXbLmGuMJoXwMm7mRP9NF76D1yKXfKiZFpWwuMXl9LPTwmmhu9YVJj9x6Go6jMxma5vN70bLpx/mDp3pFMdPDNszQeK+x6viAofFeA99qdDI08iyLbF5q1azKYzl85LgrQyOn+Fw05AV+42S9YRP/b7N5LJW2L6anDx7hbYjy7InyNc1G0Lajx/n7Il1GHFflpio0f3U92nTwKWq3b97psmf35+9lSvXwDW6WFasOuCybifRhKjePTno8et0F9Pm9+02pW9+f8gN6Z/MoeuvuS43UNut5L5+v1xbtT0kFm3nDG3ymhH3RLe09mp/3cnpcujEl6t785Vja8dMBtjMsslGxmh75M3mGh33R6vIK0/hQOc9UyuqiBf8u+PZbqlW7tk4hOcaiwlilrE6dD5MeOnHzK5ZMhoalFtd5/HIjxTfTDEymz1k/vHoo5heTfNarOj5gaPKplmLb6WZo5KoyzdDML06sRSiKr69pet6ZKVGkG4QZPzuvO9VaeIjfOLKbrHYtF1O/7VuJP72If/bFA6X8KbR1ELObs1v+MlDLdQDpZFIdcIqSo3icgMoaESc9rDMYrM7Xb/yTYXCsXywp5yufJWpHW2561XSOitzq5y4dy83R+evvpap9vk0x5ynjxjIWrGs3mHlpPPwPxoMCFl86Q6PrDV2YxocKQ5WyOg1i6KGTGuEymHqR8ycaN4ZGnolx+lusp4ShyU0n1etV7PDhwxW5NYmjgyKwevVq6te/v6m5dClnomBR/Int7ntapqyrYZ/LszvygmOq3obmliWNiLToOd0AlfP9xUyLuHEUT7LF4mnrTA6LRTwdD4qnF+2oDjgv2oxKHYlUs1QTkY3BlG9A+fqTTmX0qw338bQBN+e93bltNUHsS8zOqFftMiMRcpox5bQYncd26w4+Ftuuv8WUliabNJW0vCDPnzCNDxWTolI2SN6Z2oIemQgF+3mY9AiWTH5ac2No2HVeXHsPzDnr9FpGbArguWiq4yO2cOFCGBrPZfCvQjtDI0zJ2o++oV++9IEpvYxFsrTvFXRZnWpUXl5BzWfuNIJ74+7mdGaVxG8HmRYf89SaxCJja16ol4ZGLHYOW5qZrK7qgPPvzCismrO9QU+nh5jhmFZptGEM3J732RiagUULTi/ozzCm0u2uJR4KTC16wHENja432GEaHyoMVcrqNDKhh05qYIZGLzWc9UhJvU8+bDs4Yh59PWQK3+XSbnMW66YudjtiIuXM+SxQvV5hhka3EZUmHrsZGq/CZ08cxJqCun+bdzpVjO+g1M5YfyA/MbY1O5aUM3mHJnkwi1QdkYLmVT+Crkd1wAUdX1jby3aRezo92JdLh4G7qVH8R3j7bnySr9dyPO8tT9ucZouc1pixL7h+++63H1O2dZ/epezEurW07Sc38Pjk+k0GSdrljD0xxBqa3M90FZOiUjb3yLyrIUzXKxXGKmW9o5l7TWHSI/fe6l+D2xka8RCYrxc+1ZTPoLPrMHv4dMd7A3n6MZv9Z/8fGd/sxW49sqABQ+Ohodm5cydmaPQfZzxCP39YU9ywsd++OOfqAXRz0YfUcv4mPkjllJxGgwZTm5f/bPzuhlj0bLspQDLFxi4Vx3RBSG4ggJSzkJyIAYQp1pDITbn5LZp0NwjiHJ/TcJaxU5jTee+4Y03csIuNMNiGF9ZUStMMZvJhgHVM2dUtr49x2liDsZDHovX3abDLWW4npspNsUrZ3KLy9ugw3UCrMFYp6y3R3GoLkx659TQcR6sYGtYj/j314DeGoZG/T9jnNa6Zapgb8RBXfH+wz9l32ivDv+Dri63vu/ndtXBQzT5K1fGBTQGyZx34kX4amsA7UyANqg64Aum2tt0Iqx65zLBkm54XhIhh0sO44Tj2I+MGxY6RYSpDuDMj9AjirHffRpj0cN+r8JaEHnppp6qHydCUl5dTWVkZHT+e2HJXvKpVq0aNGzemKlUSv1aNV34IwNDkh3u6VlUHnH49KKyIwqwHe9rX9b1Bpl+idqOOnNbgpnyQZcKsR5CcgmoLegRF2l070MMdp6BKQY+gSLtrR1UPk6E5ceIE7dq1y7YlZmrq1Klj+9mZZ55J55xzjrsIUSprAjA0WaPz7UDVAedbIKiYE4Aeep0I0AN66EVAr2gwPqCHXgT0ikZ1fLg2NJm62aZNGyoqiq+2lV6xil004YbR9NLXx4x324xYQTN/Xj9TdRk/L//keRrc7xXq+j9zqdt/JHbqyuXFY+0yny6fl6gvRp/RopLB9PxF99Oa0e1zqdqzY2FoPEPpWUWqA86zhlGRLQHoodeJAT2gh14E9IoG4wN66EVAr2hUx4dnhqZVq1Z0xhlnpBoaySTohcocjdXQbJnWk9Zc+Kgn5surfjND061bN6+qQz0gAAIgAAIgAAIgAAIgEHoCMDRJCWVDc+W2UTTywM3azMyIswwzNPqNN9UnCPr1oLAigh566Qk9oIdeBPSKBuMDeuhFQK9oVMeHydCwzQB2796dVY9UZ2hYytiQvo/RO/86ydu7fUYp3dM2/kvbydSvyu0r0+oNF9CcV8dSk0+lsjVv5u81j5lTxOT6rh5+D529ZDNPH+tet4ynkjXo24hmzFzF27JLexPtsnLzXv8BLZ/Tl86LnUZhijcew9xX+9G7dw+hr3u/yONmr39ve5x+sujs+LHX0Wt3DaHf7T5k6ltWYKWDYGhyJej98aoDzvsIUKNMAHrodT5AD+ihFwG9osH4gB56EdArGtXx4b+hsayhYcZlRJu3+NqaGuNe5WZAXg/DDUj8s6/ueIqne1lTwZhpGHXgZ/R48VfGmhdxjKhv34qRVDzrCD24ZF7C0MTr233teD7jwo5vO+4YN0XNpCU/8nofYa6EtE4xTKv3EvV8/cfGTA5LU3u7zXK6q2iW6X2vThEYGq9IeleP6oDzrmXUZEcAeuh1XkAP6KEXAb2iwfiAHnoR0Csa1fHhv6GxWUPDDMygQe/TXa+cNhXCDHCzIx1jnclhuM/vMY1evL+6Ue7m2Is0ZNI/acLsxKyKbEDEDI2x2N+y+N9qWi4Z24nWjd9g2mwgXQwP3/QadXlpTGLG6O6/0MDf9aVz/zcxo1Rj6GJP1+DA0Og12Fg0qgNOvx4UVkTQQy89oQf00IuAXtFgfEAPvQjoFY3q+AiFobGaH4ZcNi1eGhpmfLp++jvTLI6dAROys9mgJ8qH0S+Kfsv/lXdw4zNF09800ulyPVVgaHIl6P3xqgPO+whQo0wAeuh1PoRJD/ywpl7nDvTQS48oRBOm6xX0SCWQF0Mj0rvklDNhWqxrY0RZkYJmnVEx1slIKWwpKWfydswZZmjETA6rY8DmJnwtzfmU2H7aGgOLhZmdoY/8herF/k7/OWZ2yhbSwvB4sVW1k6Fp+cQu+u67cqpatTKVljTliJo+toP/G4vFaM+IlobyrWftoRMnvovvSFdEO3/RQnlM8C+ZC8ZTqy1baGDRAmrXcjH1276Vhlxi3uFOueKQHoALoD/CxSr20dSO7eiBzZ/xBoa/fIJm3Jj5h32D1kMeD7mOAbsf1mTvtV59Db2zeRTVK4qR8Sv1cSbXP/YurR1xObEf1nyy4fP8b91eQeuRS/+Zlv0uWkZ3HFhAHSpJCyhtKlUpm0tMXh8LPbwmmlt9YdIjt56G42gnPYS53nzLItMPH8vX/6ENtxr3RuK7INPn/B5NuqfK9TskHJTdR6k6Pjzb5ax169ZUqZL592Csa0/kbpjSuKpewde78N9/sTEc1pQva8oZO46vjRm+lDdhtymA25QzUY7Vw9LgHvrbz7ipEWlkYhMDFoP4fRpWbmb53cb/5VgouYmBvF7HvZzmknaGRpgZuWTZyKsMQyPet3uPfcbeV3k5Db6oDkrVAafCOspl2fn08vp2dOMNVejUh3Pp6ra7aPLnmW80g9bDq/Oe9bH94CO0ZFPCuBhfdOd1p+cuHcsNTX3aZNxwXxvbZHx5Dm30cdz89afaczZq92AhaD1yGTMqJkWlbC4xeX0s9PCaaG71hUmP3HoajqPTGpr4g9yPGvyFmj34mfFwLZNhyfQ5DE3680J1fJgMTUVFBb3//vvEdjtTeVWvXp0uvfRSlUN8LZsuRcyPhsX6H7HbmR9tsDrtDI2YiZENi/hbmBVWxvp5tjHC0JjJqQ64bLlH+TiVm8eg9fDK0LCZmFGnpppmWdh7c7/rSG+99G9udM5ffy9dsuYa4wmhfAybuZE/0+V8CVqPXPqtcp6plM0lJq+PhR5eE82tvjDpkVtPw3F0JkPTfH4vWjb9uPHgKZNhyfQ5DI2PhiYcp1zmKOWZFXnr5cxHqpfgs0fShgTqNbg/wsnQyLMssnmpVbMqr/zwkeOuDA17SnxNsxG07Wjc0J7dnzYdfIqnXsjv3/ib6VTnN8/zlDMxxdpm81gqbV9MTx88wtu7aMgL/KbLVF/8fZE2JAZ5lZuq0PzV9Xg77fbNs23bPZ38lMQXkv/cVW7WnfR49LoL6PN79xtP1lid35/yAz7z8dbdl1KPOR+Yzl27c/Taov0paXAzb3iDz5SwL7qlvUfzsSNSwViFLB0sU92bvxxLO346wDTDwsZOp+k/oA33fmHM3PzzdzeZTI/MxW6Gx39lMrcQpvGhYlJUymamFFwJ6BEcazcthUkPN/0Je5lMhobd99R5/HIjxTeTYcn0OQwNDE0KgRh9RotKBhu/++JlmpcTbqPNd88z0uX8HszpZmjktjPN0MwvTuTaF8XX1zQ970z+t/VJM7tZuuUvA+mV4V9Q/3jaS62Fh/jNIHsq3PjBb2hu2VbD0Mjmhv3N8kBFzqk4jt1wifU23AjF6/zigVL+RNqpbR3XBFg1xheSf2c9P9eG/8EwyG5actLDaoqY0Xj9xj+Z1uWkfPnI52hyTc+Wm141zaKI81ykhbFZlKp9vjUeBoiY09ZtWbuRWD+USCFj69REKlo6Q6PrDXaYxocKQ5Wybs7boMpAj6BIu2snTHq461G4S7kxNPJaGae/sYbGm/NAdXyYUs68CQG1+EVANeVMxFEUz8nffU/LlHU17HMxu2OdTWGfsZmWj+47/YSY5fY7PXGwLoizW/cgbiLFU21hfpzaZrM8ur9UB5zu/dExPr4Q/tYd3ERnWjSZ7gtJLPjm6086ldGvNtyXstCeqrdJMeusTad1PFYzbmfOq3aZkcDqULf15lhOJZNnXtIaGskEZWIUpMZhGh8qJkWlbJC8M7UFPTIRCvbzMOkRLJn8tObG0LDrq3hAdmDOWafXMmJTAM9FUx0fMDSeS+BfhZlSztZ+9A398qUPTOllLJqlfa+gy+pUo/LyCmo+c6cR4Bt3N6czqyQ2cnC6YbOmsvhlaNwu+vaPbnY1qw647FrBUXYzKnZU0ukhjMK0SqON1C35vE+klCVmRtwYdNZ+OkPDZlfEeZ2ubvnmmJut+MyQSN8UfaxxzVTaef/ndMNL7W3X0Oh6gx2m8aHCUKWsTqMXeuikBn7HTC81nPVIuc4nZ+wPjphHXw+ZkkjBt9mcxfT9Im3kIj90statG5N8xqN6vYKhyadaim37+Ts0InVGpIGJ0KypY7mknBk3d5aB7dS2Ip68FFcdcHkJMoSNnli3lrb95Aa+hkvlgp9OD/bl0mHgbmpURNR345O8bnktTd2/zTOnRSa3J+cplOlSzuRy0hac/fbdb6zTyVy3/S5l8gMFVofTGMIamtxPchWTolI298i8qyFM1ysVxiplvaOZe01h0iP33upfg9sZGvEQmK85PtXUyB5gD97ueG+gsc0++//I+GYvLNvE6XtM5ftNf4LeRqg6PmKHDx+u8DYE1OYXgdWrV1O//v39qj5lEb9Y3C//9oXdpgAidUwsgLbdFCCZbmOsr5FuAk0XB7YhQfwl6vCtsx5VrDrgPGq24Ktx2lAiU8fT6SFMyZyGs4xZDvn3bs65egDdXPQhtZy/KWWGhrUrjLeYPWGbXFjTJ00zmPyJXeK3dDLVbbfLmRgX8nbO8liUf5tHZeOETAy9/DxM40PlplilrJc8c60LeuRK0Nvjw6SHtz3XszYVQ8N6ID/glR98id9PYzPr4jfErN8f7Hi2gYxYpyzPyssby+hJKpioVMdHbOHChTA0wWjjSSt+GhpPAoxYJaoDLmJ4Au9uWPXIZYZF3kRAp/UzTPww6WHccBz7Udr1WoaplHaCDPxEz7JB6JElOJ8OC5MePiHQqlrooZUcyt8fmKHRS7+00fg9QxMiFNqEigugNlLwQMKsB3va1/W9QaZfonZDV05rcFM+yDJh1iNITkG1BT2CIu2uHejhjlNQpaBHUKTdtaOqB9bQuOOqRSk/19Bo0cEQBqE64ELYxVCFDD30kgt6QA+9COgVDcYH9NCLgF7RqI4PGBq99EsbDQyNfmKpDjj9elBYEUEPvfSEHtBDLwJ6RYPxAT30IqBXNKrjw2RoysvLqaysjI4fTyzMFq9q1apR48aNqUqVKnr1NmLRMEPTrVu3iPUa3QUBEAABEAABEAABEAABZwImQ3PixAnatWuXbWlmaurUqWP72ZlnnknnnHMOOPtMADM0PgPOonrcT09YAAACs0lEQVTVJwhZNIFDFAhADwVYARSFHgFAVmgCeijACqAo9AgAskIT0EMBVgBFVfVwbWgyxd6mTRsqKor/wIP0ilXsogk3jKaXvj5mvHv7jFK6p+0Zaav797bHqe3wpVS96TBaPqcvnRfL1Ho0Poeh0U9n1QGnXw8KKyLooZee0AN66EVAr2gwPqCHXgT0ikZ1fHhmaFq1akVnnGE2KtzQdJlPl8+bS93+oxJxozLuGM15dSw1M3sfg6IwQTXGvZrR+OiF3v9oYGj8Z6zaguqAU60f5dUIQA81Xn6Xhh5+E1arH3qo8fK7NPTwm7Ba/dBDjZffpVX1CNTQWA2OHQw3ZfyGqGv9MDT6KaM64PTrQWFFBD300hN6QA+9COgVDcYH9NCLgF7RqI4Pk6FhmwHs3r07qx65naH5yaKzjTSy8k+epyF9H6N3/nWSqObNNHf9T2jtjQ8YKWptRqygmT+vT9ZybIaneSwx+1O5fWVaveECPuvT5FNzfXK5Bn0b0YyZq3jfRL3s7xh9RotKBtPvdh/in4mUONs2i+zLZgUsi4NgaLKA5vMhqgPO53AiXz300OsUgB7QQy8CekWD8QE99CKgVzSq48N/QyOtoTm/xzRaM7o9J2aXjjbqwM/o8eKvTGlqacvF6/7qjqe46clUbve143nbctpb86RBKWv3O16HeDnVNa3eS9Tz9R8bfQhaehiaoIlnbk91wGWuESVyIQA9cqHn/bHQw3umudQIPXKh5/2x0MN7prnUCD1yoef9sap6+G9okmtobo69SIMGvU93vZJYP2OaAUlyYIbnxfurmwyN1+Vks2KNScjh1Obzt/+DzyjVGLrYZIC8l9G+RhiaoEi7b0d1wLmvGSWzIQA9sqHm3zHQwz+22dQMPbKh5t8x0MM/ttnUDD2yoebfMap6/H+qiNx/DKIqiwAAAABJRU5ErkJggg==;" vertex="1" parent="1">
          <mxGeometry x="-20" y="920" width="820" height="296" as="geometry" />
        </mxCell>
        <mxCell id="3Li22gLX3umGWUl0SlII-16" value="la definzione della struttura dei campi della tabella libro nel database" style="text;whiteSpace=wrap;fillColor=#1ba1e2;fontColor=#ffffff;strokeColor=#006EAF;fontSize=22;fontStyle=1" vertex="1" parent="1">
          <mxGeometry x="-1020" y="1050" width="540" height="60" as="geometry" />
        </mxCell>
        <mxCell id="3Li22gLX3umGWUl0SlII-17" value="" style="shape=flexArrow;endArrow=classic;html=1;rounded=0;fillColor=#0050ef;strokeColor=#001DBC;" edge="1" parent="1">
          <mxGeometry width="50" height="50" relative="1" as="geometry">
            <mxPoint x="-420" y="1074" as="sourcePoint" />
            <mxPoint x="-100" y="1080" as="targetPoint" />
          </mxGeometry>
        </mxCell>
        <mxCell id="3Li22gLX3umGWUl0SlII-19" value="query sql di selezione di tutti le istanze record della tabella libro con relativo risultato" style="text;whiteSpace=wrap;fillColor=#1ba1e2;fontColor=#ffffff;strokeColor=#006EAF;fontSize=22;fontStyle=1" vertex="1" parent="1">
          <mxGeometry x="-990" y="1410" width="540" height="60" as="geometry" />
        </mxCell>
        <mxCell id="3Li22gLX3umGWUl0SlII-20" value="" style="shape=flexArrow;endArrow=classic;html=1;rounded=0;fillColor=#0050ef;strokeColor=#001DBC;" edge="1" parent="1">
          <mxGeometry width="50" height="50" relative="1" as="geometry">
            <mxPoint x="-420" y="1444" as="sourcePoint" />
            <mxPoint x="-100" y="1450" as="targetPoint" />
          </mxGeometry>
        </mxCell>
        <mxCell id="3Li22gLX3umGWUl0SlII-21" value="" style="shape=image;verticalLabelPosition=bottom;labelBackgroundColor=default;verticalAlign=top;aspect=fixed;imageAspect=0;image=data:image/png,iVBORw0KGgoAAAANSUhEUgAAAsIAAAEYCAYAAABWX5ANAAAgAElEQVR4Xu2dCdgVtdn37wMIiCIgAlVBRVbBvYqtu6K4Ie7aWrVq3yriLqK1fWv72s9qFUXFKlqrtbbuiisqiECtVtxFFmWzsgoIjyyyKDzPN5nz5JzMnMwkme3MnPk/3/Vdr+Vkkju/3En+k7mTFOrq6hoIfyAAAiAAAiAAAiAAAiCQMwIFCOGctTiqCwIgAAIgAAIgAAIgYBOAEIYjgAAIgAAIgAAIgAAI5JJAYd26dUahES1atjQCtWTWUt/0nXp0VOa3Yf164uUuXbVJmR4JQAAEQAAEQAAEQAAEQEBFAEJYRQi/gwAIgAAIgAAIgAAI1CQBCOGabFZUCgRAAARAAARAAARAQEUAQlhFCL+DAAiAAAiAAAiAAAjUJAEI4ZpsVlQKBEAABEAABEAABEBARQBCWEUIv4MACIAACIAACIAACNQkAQjhmmxWVAoEQAAEQAAEQAAEQEBFAEJYRQi/gwAIgAAIgAAIgAAI1CQBCOGabFZUCgRAAARAAARAAARAQEUAQlhFKMLfN4wbSvde8Ygyx4bCLnTI8xNo725NlGmRoHoEWHvueOqdtgEXPLmObjhqs+oZY1DyxjljafK9z9PsmdOpbs600pPM77Y56kTqdfRx1O/IngY5ImkUBAoN4+ny7qfS41+v9s6u1Y/p1n9NpLN7NA1d5JirjqTz/zrBzmf/85+lZ0cM0s+z4QsaOfAguvHfX9nPHH7TVHp0SG/955ESBEAABFJCAEI4wYaAEE4QdgJFZU4IW+LlrWEX0nuvfKyk0+HSf9HPBkPYKEFFmCBJIfz5vQPpkF+96rDeSMxCCEfY8sgKBECgmgQghBOkDyHsDXvF7LG05PWXaParU2nV0fdkQoRtmj2KTjhkKL1fv3dkq3RxuSMTWS+c+AuaM3utVhEQwlqYIk2UpBAec1VvazV4tsP+Ltaq8Hu6q8IQwpG2PTIDARCoHgEI4QTZQwhXwl486nh6YuRkxw9pFGFjhg6hxQOuoF8cVQ4Z8BPCs8beTdeN+Y5GjLiKuhQSdDKPoqYN60vjxizTNiSNbaBtfI0lLPnZmg1EEYVGYEW4xpwE1QEBEAhMAEI4MLqIHrRWVt48uT99MHNNKcM8xQhnQQiLIRAslvLO2wfZ4ra0grd21/KKsNWeY4ZeUIq9TEPsMBNSj5zye/pmY73TabtfS8fffiV147Holu0r5syiGaOG06oed9ExFyI0IqJeHiqbOIQwMwgxwqGaBQ+DAAjUCAEI4Wo3JIRw6leE3atn7X58Pv165L10TveJxc1N9afS6Dl/oX2/GEvXXPJzevTt8sqr8SakGPxR+iXCEsHnPTeU2qRgtTqGKtdUlnEJ4VCQEBoRCh8eBgEQSA8BCOFqtwWEcOqFMHORjXPn0Ni7B5dWetm/DbhxOG094v9sIXzD0AV0/W/GlbzpwPNuoUsuuZwO7R5+d39YF5WFRfS5YxENOLJZ2KzxfAIEIIQTgIwiQAAEcksAQrjaTQ8hnAkhzN2EHT12/8hb6IaHJko9p9/+59NV1mpxGgQwN9AthPMUelPt7h1F+RDCUVBEHiAAAiAgJ1A7QtgSlEvHjaHJ9zxDKzbNorq51sYS4a9dt760Tc9B1OOo46in4RmpxXNXh9Psz2c48i107Utb9xpE+w+5vBxnaeppMQjhOO1lK6Ozxt5J74751HEGLas249G+5y7U85grqNcRPZ2f3SX1NEXF0qdFxDnECTMsok1MQZionolKCLvjuRuanUinfnx/cTOg3f9G0isjnyr1EX4usVH/EPrx8i+mO+KaeX874KLjaefu3eXVdvlZk2MeoMuGDyLWXmOG3lw+NWPnk+j4O+4t9dvF911Or93zRKm89kdfR4OGX5mK0JGwQjiW0yh8QiP4y+JrM6bQ5HdWFNvJ6h/7/2RYKb7ez2cd9m59nh129GN+pLpV7mv33k73PP9EKe8O+x1AA0+4moYMOd5oYyrb0HrPiKdp1pT36H22EbHxb78fHUB9Bl1Nv7TO094ZZ7mrhhf8DgKZJ1ATQtg9ialahU+OqnRcUOqcu8omTqMJnxceoRCO016TvFnVKhjXihB2bYZz+JDBZK/yvSh/j1sI70D+R7MxQdx3xHhlKMbSsVfRmGGPVm7qk8FwCdlSErefWbHQZ168kB698h8VuXAhv+oajxM1UhJHnRkhfFELx0ZRqQ9rvDB6CeHZr11FV5x/n0O0uvufzmUjjOewS//PEcvv1d/EzbFR9knkBQIgkB4CmRfCpsdCSUWapD08d9r7tB2bWAc9O8psdTgiIRynvUHyrjkh3CiA73ni7dJEfNC5v6R1T/+d3m9+Jp0zaC79/W+Tit6RMkEcpxA+7cPT6aOT/0d5PrFqJX/asKOs490+MhoZpXm6+hNbRW4zf4anuO5x9Kk069WnPctNQyx1VoTwWbNPrDibWArWvcrrSiQTwnVXl2/B83OSlgfcTG++fLXnyjAT0weefpeRn7HzlZ9tPCnG6EEkBgEQyASBTAth3XN53S2hWhFmA/Hz+5xDc9d/b96IpqtIEQjhOO0NIoKlLxsZXhH+bNRldPUf/loSwF6nRvSb23jBBv/Magniw3/7l8SunpUdRWfuwNYTHj5cERphrfT2HLCEZr3W+PlbUZhXvwtjtyM8g5UfkZ/xqqjGikB8DR8KK4S9iguVrys0goUTTH7nrdKL4OCHHrDO3O5lC1JZXL3f5R0OIWz1oXNOb+54yTzvf68phUGwvO+97PzSVc/MAK8jC8VjEPkLK8tLDIFgoV/jX72DRt74oGPl2ejWPcP2RXIQAIHqEsiuEPaa8NxnozZOjsvn1ltnpL5CM199nuY0udSOG/T6k60ys9WnA0b8hfrx+GKr/GnXDJauYhmtIkUghGOz10dUsFAQd6wmm0RWzJlpCaMRNKdwCZ1zqzdjzj7L5whLL9So4jnCYQSloy9oCmF3/+l4yYN03OCBdlytzJYK0Wpl4Pmi5Qp9YL71+b1DpP3NIVY9fJZ/rek8dxjde8UjFV2f5fFzy1/X3ue64MX0xTaG8TyUYPWxJ1S+LiHMi/FbkXXcZuezKuwZ0+wRVuFOLxXZbnut8h8fN8pzUysT2FcPOIMe/3p1SdzrhF3E0PzIEgRAIGYCmRXCXqugRiJUAlc2McsmcD8h57WiJm3LkEI4Tnu9VtzDMhY5ZEEIs1XGP191C7U8+krtm+XYJ9hrXj2UntW9sjaCjl5NIVzhE5p+LXuJ46JUdsaxUmArypWNG2L/rvB5CGG5Z0qEsCoswb3B1GvlViqEFcJVFNkyO9yrwToX3bifwapwBIMUsgCBFBLIrBD2/AQacuIyFWaqiVXZ5pqCwSuf2Oz1WFmL+updU/uVPBNMIE7sOhNr3KZVSwh7+YTMHlEwS/uO9eXlkOcn0N5eu/U9/LKUr+R3ccVYVqZoP4Sw5rnXkhVWx+kOMmf3OWlCTF4hhDU22DkuvZGsNquEstcixciBB5XCLlRCP+7+jfxBAATiIZBdIWzx8NsoF/QUB+ONRSGFrEzQqzYWia4Ql72mK81B3TPLQlhcMUqDEPZqA2Mf8chIKrR9XjxVQlj2xUEnJtfXZyT90U98u7/2QAgHE8K6q6WiIPWKE3YLYZ2+5Vi9dQlhd366trJuoBLYQcc9PAcCIJAeApkWwrobudp1P5l2ueSqcnyvF/+INtqYCNlQQjhGe5O6lhdCOP7BIE4hHOYLQdC29xXQEMLaDhVljLCuuNRZmQ0ihP0qrRuSIcvDIbA1Vqa14SMhCIBAaghkWggziiZnjzKB2vuSYbT/hcUNPe6/UKcvCJklJYTjtDfoap2pZwcVQ6bl5Dk9hHD5Oml3n8GK8NDi6QimIk8zzMHd78QVVq9Qg1iFsGE9IYTzPHKi7nkhkHkhzBrK9LIHr81scQpLT4cKEVoRp70QwrUzBEAIQwjLvLkaK8IQwrUzrqAmIFArBGpCCIuNsXTsn60rgJ+nWeOm+N5QJYtFDL3xLYhXRCyE/U64MDEPoREmtNKdttaEsOwrQqk/IzRC2xmrIYTjihH2q3RkoRGKi0C0wSMhCIBAqgjUnBAW6fqtFEsFYwhRGrhVw5QZ5lmFwdgsF7hFU/dgWoVw0K8Osk2ypVhlCGFt/0tcCLvCKaLcLOdX6ag2y+HUCG3XQkIQyBSBmhbCvCVkE65XHK/vJBtH04YUs3HZ6xV2EWZzlAwfYoTjcCpnnmkVwkFetpRHrkEIaztU0kJYd2U26hhhtiE50DFomsJdGzgSggAIpJJALoSwcvIUmsbrEom+I/5NRw7oGX0jhhTCcdrrdTxdlCxMj+SKvgFqP8e0CmGvs8D9jlBT+guEsLZDJy2Eg94sp3N8mqrSjmPQNDfMBbmEQ2UHfgcBEEgfgcwKYVvc7vsHWnVwH+p19EBqv3NPatNkZ+v/NnFQXjF7rHXe8GD6YOYax797xtL6HEkmu1aYTebs+uZNc9nVwi/R7JnTabcR470vBHD7QEgh7HmxiFVOWHv9jqdTXbE8a85RdNKzQ6Wnc4gIvIT81sc+QCfcMqj0vH198+xXafI9z9D2t72uzzd9fS5xi1IrhC0SnpeAuK9Ytq68nXzvcHrvlY8r+DlutYMQ1vavJIUwu2nxwNPvKtnmd9xa5CvCVqnu1WhS3FTnTo+wCG23QkIQyByBbAvhfc6hueu/DwTd7xO/lzjTKcgr5CKSEx48Li+Iw15e18C3lWne8GfKxehoOp0Gy0GaNAthvxc5naapWD2GENbBZqeJUgh32O8AGnjC1XTBUbtQ1+7dSzZ8Mes1euXPt9IND00s/ZtKVMYhhFnhjlVh9g/WyvB5/3sN/fLo42jnxpsM2Qv3+FfvoJE3Plg8Vq4x3a3/mkhn99C8bES7BZAQBEAgDQTyKYQ1RFpQAVgNIcwcKWp7ReecNuwoGjfmIzN/1WAcRGxDCJs1A0udaiFs2cc2tY45/Tzzl1qZj2VYCDtCB0yb2edzfyz5uq9Y1rVXsRLLsolLCLtjhXVNjiI0Q7cspAMBEEieQK6EsOpCDTd+tmIyZujNNGf2Wu2WqZYQZgZGaa+7wiYXl9jPGghhEyEPIaztiqWEaRfCtqGWsHpr2IXS0Ad3jX37MYRwhYPEJYTHDD2Gzv/rbG2HPPC8W2jEiKuoi+QyIzGT2IRwo5+NGXqBZfcEpd3tfnw+/XrkvVgJVpJCAhDINoHMCmE+eS4dN8Y6N3i6HZtLDbOpbm7j56zGdil07Uttm/ayr1judYQVR6wYhGXNyeKMZ4waTrM/n+GZ/zY9elGPAb2pffejKuKUWZ6mIQBSt9IUl1HY6+XW7Jzm9159jr6e9VkFi3bd+lLT7rtQz2OuCMSafZacNfZOenfMp1Q3Z1rJBCZ8tu62C3U8ZiD1G3CslG+2u2G81mdCCDciYKvD7499iT5/Re4DPY8dSH0ukN8MyceEN0/u79gTIMYQp/lmuVgEqwUlrnw571njXra+GD1Hr834nia/85bDmff70QHUZ9DVjvADlbfHKoS5nzWGQNzz/BSnzdbK+oFnnETHWGPNL46KYXO0qvL4HQRAIHEC2RbCieNCgSAAAiAAAiAAAiAAArVCAEK4VloS9QABEAABEAABEAABEDAiACFshAuJQQAEQAAEQAAEQAAEaoUAhHCttCTqAQIgAAIgAAIgAAIgYEQAQtgIFxKDAAiAAAiAAAiAAAjUCgEI4VppSdQDBEAABEAABEAABEDAiACEsBEuJAYBEAABEAABEAABEKgVAhDCtdKSqAcIgAAIgAAIgAAIgIARAQhhI1xIDAIgAAIgAAIgAAIgUCsEIIRrpSVRDxAAARAAARAAARAAASMCsQthI2s8Em9Yv55atGwZRVbIAwRAAARAAARAAARAAARsAhDCcAQQAAEQAAEQAAEQAIFcEoAQzmWzo9IgAAIgAAIgAAIgAAIQwvABEAABEAABEAABEACBXBKAEM5ls6PSIAACIAACIAACIAACEMLwARAAARAAARAAARAAgVwSgBDOZbOj0iAAAiAAAiAAAiAAAhDC8AEQAAEQAAEQAAEQAIFcEoAQzmWzo9IgAAIgAAIgAAIgAAIQwvABEAABEAABEAABEACBXBKAEM5ls6PSIAACIAACIAACIAACEMLwARAAARAAARAAARAAgVwSgBDOZbOj0iAAAiAAAiAAAiAAAhDC8AEQAAEQAAEQAAEQAIFcEoAQzmWzo9IgAAIgAAIgAAIgAAIQwvABEAABEAABEAABEACBXBKAEM5ls6PSIAACIAACIAACIAACEMLwARAAARAAARAAARAAgVwSgBDOZbOj0iAAAiAAAiAAAiAAAhDC8AEQAAEQAAEQAAEQAIFcEoAQzmWzo9IgAAIgAAIgAAIgAAIQwvABEAABEAABEAABEACBXBKAEM5ls6PSIAACIAACIAACIAACEMLwARAAARAAARAAARAAgVwSgBDOZbOj0iAAAiAAAiAAAiAAAhDC8AEQAAEQAAEQAAEQAIFcEoAQzmWzo9IgAAIgAAIgAAIgAAIQwvABEAABEAABEAABEACBXBKAEM5ls6PSIAACIAACIAACIAACEMLwARAAARAAARAAARAAgVwSgBDOZbOj0iAAAiAAAiAAAiAAAhDC8AEQAAEQAAEQAAEQAIFcEoAQzmWzo9IgAAIgAAIgAAIgAAIQwvABEAABEAABEAABEACBXBKAEM5ls6PSIAACIAACIAACIAACEMLwARAAARAAARAAARAAgVwSgBDOZbOj0iAAAiAAAiAAAiAAAhDC8AEQAAEQAAEQAAEQAIFcEoAQzmWzo9IgAAIgAAIgAAIgAAIQwvABEAABEAABEAABEACBXBKAEM5ls6PSIAACIAACIAACIAACxkK4WshatGxZraJRLgiAAAiAAAiAAAiAQA0SyIwQXr9+fQ3iR5VAAARAAARAAARAAASqRQBCuFrkUS4IgAAIgAAIgAAIgEBVCUAIVxU/CgcBEAABEAABEAABEKgWAQjhapFHuSAAAiAAAiAAAiAAAlUlUDNC+MMPPyyB3HvvvasKFYWDAAiAAAiAAAiAAAikn0BNCGGI4PQ7GiwEARAAARAAARAAgbQRyLwQhghOm0vBHhAAARAAARAAARDIBoFMC2GI4Gw4GawEARAAARAAARAAgTQSyLQQZkAhhtPoVrAJBEAABEAABEAABNJPIPNCGGI4/U4GC0EABEAABEAABEAgjQRqQghDDKfRtWATCIAACIAACIAACKSbQM0I4XRjhnUgAAIgAAIgAAIgAAJpIwAhnLYWgT0gAAIgAAIgAAIgAAKJEIAQTgQzCgEBEAABEAABEAABEEgbAQjhtLUI7AEBEAABEAABEAABEEiEAIRwIphRCAiAAAiAAAiAAAiAQNoIFOrq6hrSZhTsAQEQAAEQAAEQAIE8E3jqzbk1V/3TDto5dXWCEE5dk8AgEAABEAABEACBPBNgIjiNojFsm6SxXhDCYVsVz4MACIAACIAACIBAhATCCMYvlqymL63/v2On1tTV+v+mfxOnLKJlK9drP9ahTUs6dPfttNKHqZdWAQESQQgHgIZHQAAEQAAEQAAEQCAuAkEEIxPAM+bVUbvWLWjjpgZas+572lRfT3133NpIEH+7YSNN/nwp1a3eQPX1/tGzzZo2oT47tKFendtpoQhSL62MQyQq3P/CB4gRDgEQj4IACIAACIAACIBA1AR0QyNEAUxUoAXL1jhM2XLzzSIXxKYCmBuUxrhnrAhH7bnIDwRAAARAAARAAARCENBdOeVhDIVCgRoa/Nc1WZp2rZtT/z22N7KMrxAvX7WemjUxWwF2F6RbLyMDQyaGEA4JEI+DAAiAAAiAAAiAQJQE0igYo6hfGusFIRxFyyIPEAABEAABEAABEIiQQBrDCMJWTzfcI2w5Js8XHnzwwZqOET7ppJNMeCAtCIAACIAACIAACIBATggUuv/qo5oWwr/u+RFBDOfEm1FNEAABEAABEAABEDAgUPNCmLGAGDbwCCQFARAAARAAARAAgZwQKNSrthnWAIi/PfQQVoVroB1RBRAAARAAARAAARCIkgCEcJQ0kRcIgAAIgAAIgAAIgEBmCEAIZ6apYCgIgAAIgAAIgAAIgECUBArn/uCAhh9NnEi/aPIAHdTvETr3nUl0YY9JdN72vyP27xf0ahZlefTdK1dRy7O+oTeW/pUObVqING+vzBAakQhmFAICIAACIAACIAACmSJQEsKi4C3Uj49cCBca5tKf+h9ED3Y7jn786ib6+X8f0BbCTazbUKxYZk+wqt8hhDPlkzAWBEAABEAABEAABBIhkJgQ5rVhIvvcHR81EsLsWS+xqxLB7FkI4UR8CYWAAAiAAAiAAAiAQKYIlISwGA7B/3uf+0+nf/7sWvrP6vV09O1TacyVfYmvFjc/vjnd/8xOdojDQXPvo4N/eKWdjv1d/tIGGnFccymIoEJYJoZ1RDCEcKb8EcaCAAiAAAiAAAiAQGIEvIXwtifT071/Q1MmDKMuc+5zxg9bv331q7fLwtj6320eXGaL302zRpXSyuKLwwhhUQzrimAI4cR8CQWBAAiAAAiAAAiAQKYI+K4Ii5vlRg/pRf867lO645g3HfHDTPgeeMB7dNPicswvTytbFQ4rhGUrwyriCI1QEcLvIAACIAACIAACIJA/AlpCmG90Wzz0i6oLYb4SjBXh/DkragwCIAACIAACIAACURLwDY3g4Q/iqu9hhTccK8J2zLArNMK9QiwaHGZF2C1+dcUwVoSjdBnkBQIgAAIgAAIgAAK1QcB3RdjeEPeXCXZN+QY42dFqTCiXNsu12p9GfTjJ8/zhoEIYp0bUhsOhFiAAAiAAAiAAAiCQFgKZuFlOtfKr+h0rwmlxN9gBAiAAAiAAAiAAAukhkAkhHBYXhHBYgngeBEAABEAABEAABGqPAIRw7bUpagQCIAACIAACIAACIKBBAEJYAxKSgAAIgAAIgAAIgAAI1B4BCOHaa1PUCARAAARAAARAAARAQINAboSwBgskAQEQAAEQAAEQAAEQyBGBQl1dXUOO6ouqggAIgAAIgAAIgAAIgIBNAEIYjgACIAACIAACIAACIJBLAhDCuWx2VBoEQAAEQAAEQAAEQKDwxFPPITQCfgACIAACIAACIAACIJA7ArnYLJe7VkWFQQAEQAAEQAAEQAAElAQghJWIkAAEQAAEQAAEQAAEQKAWCUAI12Krok4gAAIgAAIgAAIgAAJKAhDCSkTJJvjbQw/Rueed5yj06qFDK4wYftttjn9b++23dP311yvTJVsblAYCIAACIAACIAAC6SUAIZyytlEJYSaAv9uwgZq3aOFpuSic3YI5ZdWFOSAAAiAAAiAAAiBQNQIQwlVDLy9YJYTZU17idtPGjXTttdc6MpalLTSspA9eeI6mrKgvpe1x2Dl0wE5NU0Pji0mP0KS5G217Ggo70oBzDqPtmxTs/y3+RtSW9j3xBOrbron9W7FuE6jFwYNK/5aaSikMafjmU3ruudnU84RyfZK2vf7Lf9Pf35hlMz/yhA703vNFe3Ztu5Be//ss6n12uR2Stk2nvELD/NB2Mv96q+EAOuvQnXWKDJTG6cNE2+w1iAbu2V6Zl2n9/PqRsrAQCeZOeoHW7T4wc30wRJXxKAiAQEYJGAnhQv14uvj3N9PeF79K53eKVjQVGubSyKdepIGnXkY7NQoekemmadfQfo89R807XUSPXnyFNE2UbSDW9bzCX2ngyCfplEteo190mBgbA2a/lxBmgvb63/7WruLatWsrxLBbBLP0bGVYJoRtwfX8MupnIGpMJ+AwbbHik5doTF2fkhD57yefUPvdd6etaJUt4Ke3Oaj0m1s8BqlbGFvT+myQ9vJ7iWBcn5/0PfUftJfVDgtCi824uIW1k/ne2w0/1hKlQerAX0JFH2Zt9cYLy2gfDbZi/VoXii+GXn9e/Uj1XJB6uZ9hL1SPfrFdrC8TUdiJPEAABEAgMSHsJ6JnTjyVLvrqIDrJWtQrNDxKb3V8mB49rHepdexnf3cxtT7jU7pp180SaTUve+N8GfATwn/84x9p2bJldN9990nFsCwcwksIB5mkTCbgsA3EVrEW7XhmxQq1e2Ln5YjiJUjdwtqbxueDtJffMyLXIHknxSiMnaIgjUssqlabVWxN/NurHyXRFkmwTKIeKAMEQKD2CaRCCDPMfMX3yJ9MqxC7cYtPWTOnSQi7Y4JlAnfF8uXExLK4AuwVS+y16sX/ve/KMXZYQqHdHnTyCXvRFvPesj+XF/+KoQjsU/n4h8fTvIbifSw8tKI4+R5EGyZOpEU7HexYEXKHZLhDHkRh+6K1msTK5oKkuML5Pv1gUGXYgCgOdFb0WF5u2w/ccZEjf5YPs2GPtlPpW6serD6sruInbHddzz5kMykTltcLHy5zcPL6N74a6bSxHP7h1UaicOPhDd7t5QwnYenEZ3i7bP7py6XVUVbujDbH0I8L/4nEF8Kwcws88X/72bntvDEV7SD2ff4sDxFSleNuU5lfieFGfj7sbgPez1pN+aejPx3bbrrdDmK+TDy/+PEWNMgVysF9WOxHrByRvdun/fqozCe9xgE7nxc/pE4DDy2FNNX+dIoaggAIZJFAoaF+TsOdfz6F/v7Vt7b9XIg2LL2fBt51Gy2hBqovHE63//5eOqzwhiMsQJbm0KYFa1V3Lol5Hn36nfTNU1fSOw3FmNTWu91GE844vsSLic5L751CQwcPoudH3U67D76bWD7sj68G82d79n+BHjtkoW1Hyz4t6I1pnW3bDln+l5K9Yj24oN3z1BNp9JN32fVhdTzv65/Sma9PsctgeYor0KVyG8NAxHAI/t9ifvx5XpaOXV7OIguNiNqx3PGJooidUteattnzeJIJQz4Buz+7cyF69iHt7dCFT+q6OGJ6bZ6NccmLdoxzjccAACAASURBVBxof3ZWrRgxGyd+sX0pH93VStUqmJftLB6Ui8xj282wP+sW6zOB5je0sT5bH0rbrZpaCinpXCiGafC6di44wwU4k5/t+W0ppICLVVldxLAELi5aHHq2LXhYXo981Mp+Mfj6X/8grzbyEnVcwMjyEwW0+BLhtGe1I+5aFIxhfCEIO3f4hlh+sU3K8eGinaqVVrdw8yuH+QEPE3G+qJVjqGUrtyobWPs52RZj+cucnPXj7e0lhLnoFfsRr5efT8v6KAuHYS+P3IeKfdoZjy3WOUhoTtTjHPIDARAAAR0Che+nDms4YupBFcJUjAVmq7VnLz2/JEBZjLA7VraU5tDmtgh+p+9jleENAeOL3auzXByvOPw5uwx36IQt0MWYXius4sOOF9qxxV1mXGvHGnPxyuze9/FVtpjm4lsphIX8dvzaEuCusnTs8oqxjlsIe8WB8n9ft8fBlvja2jHJuQWGc8WRqFnXQ+yVX91VW8ZX5xMvS/PwhO9sMSwTH9zBmfid1uZYOn6PZsqNcl6284mdTfbz2+5ui85iLGx5Fdopupy/+TFhea61Xi74ZiguTN3/xjejbTv/LUd8JS93l7N/SF+9OIFkbcQ3EpZfOsqC0M3aS6SIG5wq61oUeVH4gttPTNnxeFomQr1igt12ypiLA6RbpLpf1NzluNvUz69EweoW0KINcvEt9z/W3uJXhVIZro2lvK/xflR8YZPn6fY70W9k/VXVl8R20pmMkAYEQAAEqkGgsGnJfQ1s5bdN/+dLwlVc6eVGsVXciae1Kq0I2xvIGleMxTRvHLaYjhv5IV3jIyxNN9pJhbAgqpm97jLHPPUjenOXN+nmPv9yrGKr8uJ1EdPJVoTFDYNeZfnZ5RXrHL8Qlu+qdwsBv01HXuEHfite7me4ePXbKe9eJZWdWiBujnOvyso6lF/oRHHj3fu02Z7FHfzulTaxfluudK4KqkIyZLGh4r+JeX8/pRySwOrAfzvs4M1owr+KG9bcIlBc2XULXbdt8hVpp1+468o/vavy1hF97vJN2LkFmRg3LraXl9j3itF1t7VfOeILGD9dQlUH/qLlFd5T/r28qizrk7IQCL8VYfeLUZ/CNEcYhZ/fiX1UVj+/OjN+Y+p2iW3TYTUmS5QJAiBQmwRKMcJswxoLFWBhA3/s+JBSzDIhLBO8MvFnD8YhTpxQiddqCmEeBrL40HcrRHccQpifDiE7DcJrc5zoul4rse5/FycymXBxx/DylSevneKiYCmuJC1zHHvGbZw7aRK1OOhgO65QFLnsf7tFjOyTv2qnulfcZKmOx3egdx8pihG2QsYnc1VZXvmWXqwkx3qJYk0sS2TFQ0rW7XGWHZ8r1s9LbMjai5/CIebnjjMVVyvFvKP2BZnIlPmTjB2LW+Z14SuSPLTHz06/duAvG6LIrPTXWaU4eC+7/OrAn3H7CfOBidbLzSGH7OxY3WYvNn59UuzTMiHs1Y/8fNqvj4q/edVFtAnHp9WmYECtQKAWCTg2yzEx/PuG/1cMgbA+//NP/J6rpLI0jfHBsYdGCCvCstAILtLdcc0qUe1ZVzFeWKi3KHalZQmnXXi9JIiO5Xd8muyINP4sE8GtWrUqHa22auVKuuGGGyqOT3N/TpVtjGJ5irG2fKX0Gyqe58vjY/k5xDw0wi8+V9xo02ynPanPqi+lZ/067avc1OV3hrC7bnyzn3O11HmGMrP9zK6LSiEYXHCzUAu+aZAzFs9adtfVvcmI5ctjpjkn9vyBO65xnOEsiji2IZFtxiuGeJTPeeYb9GSr6rLTNVTtJTuz1i2quchkaVnMNLftuJ0W2avmYXwhKDsm3B1+ZDHevzC1dF6taLNo51HnsJCSMk/ZmdluMelVzq5tWbx0ZV6y9vc6h9jtp9wed7t99+Y/HKeniPVTnTns1Y+89gfwFWm+idTdR5314xtmnSz4OKBaoa7FiRR1AgEQyC4BO0aYxczaK3qNm+JYrKw7PMIdGsHCG2Rp2CY49wY3vgGPhRBc/8mKis1yKnw64lW0pYF2oIsvfc0+61j1rM7pELLQCLYhbuLUmbbpvH6yvLzs8qqzTAhfM2wY3XLrrfa5wPzPvSK8YP58uv/+++2f+TnDOivEKvZp/V22QhWlrVm+mCMIB9UmwyB5ZumZPJxykIRPJ1FGlvwKtoIACKSfgNHxaemvTvYtDHOz3MIFC+xzhpkQ9hLM2SdUrIHsYoIo65anXe8QL0XPEU9siNKX0pJX3D7tFXaTlvrDDhAAARCQEYAQTplfqISw1/XKrBosHGKrNm18V45TVt3UmoPPu6ltGhgWkAB8OiA4PAYCIFDTBCCEU9a8MiH8u+uvL1lZsDbRrFmzpiL2d+2339L1Qjr+gJ9wTlnVYQ4IgAAIgAAIgAAIJEoAQjhR3CgMBEAABEAABEAABEAgLQQghNPSErADBEAABEAABEAABEAgUQIQwoniRmEgAAIgAAIgAAIgAAJpIQAhnJaWgB0gAAIgAAIgAAIgAAKJEig88dRzDYmWiMJAAARAAARAAARAAARAIAUECnV1dRDCKWgImAACIAACIAACIAACIJAsAQjhZHmjNBAAARAAARAAARAAgZQQgBBOSUPADBAAARAAARAAARAAgWQJpFYIX3fdddTlpPJFEsliQWkgUDsE5o++AX2pdpoTNQEBEFAQwJgHFzEhACFsQgtpQSCDBDApZLDRYDIIgEBgAhjzAqPL5YMQwrlsdlQ6TwQwKeSptVFXEAABjHnwARMCEMImtJAWBDJIAJNCBhsNJoMACAQmgDEvMLpcPgghnMtmR6XzRACTQp5aG3UFARDAmAcfMCEAIWxCC2lBIIMEMClksNFgMgiAQGACGPMCo8vlgxDCuWx2VDpPBDAp5Km1UVcQAAGMefABEwIQwia0kBYEMkgAk0IGGw0mgwAIBCaAMS8wulw+CCGcy2ZHpfNEAJNCnlobdQUBEMCYBx8wIQAhbEILaUEggwQwKWSw0WAyCIBAYAIY8wKjy+WDmRXCz0yfT/X1DdSsWVM6qff2duM9NXWe/X8LhQKd2rdLqUGfnbGQNm3aRE2aFOiUPuV/z2WLo9K5I6CaFNCXcucSqDAI1DQBjHk13byRVy6TQphP3CKN03bdoSSE+b/L/o39xv4dfyCQJQJPWy9+DdaLn99fwXrRO1Xyouc3KaAvZckLYCsI5IcAxrz8tHW1a5pJIcxXfkWhy/+bi1yWxv17tWGjfBAIQ8BvYvASwaw8PyGMvhSmRfAsCIBAnAQw5sVJF3lzApkVwuKqrih6m2/WzK7bd99vhBCGn9ccAdnE4CeCdYQw+lLNuQkqBAI1QwBjXs00ZWorklkh7CaqWhE+eOdO9iMF6/91bNXcqEEK9ZNo9DWDaUaTgXT2n26lzgWjx40Ss7KeOe1c+qDHtXTtTYNpqxjLMjIMiVNDQJwYVCJYRwgn2ZdSAxGGgAAIZIZAnsa8QsMXNPGa42jsvGPposeHl/RGkjokM44RkaGZFsKy0IjSUnfjhjn+6VfkZRojvGnhBHpxxBAI4YicDtmEJ8AmBvYniwl25x40NCKOvhS+5sgBBEAgjwTyMuZ5CeEkdUje/CuzQpiL2S9WraP35y1zhEGwRuzfbVvaevPNiG0verrxNAn27yfu0oU2a1q5zLrh3QfolSdvo1Y/mUoD9mmq7QdBn/MqACvC2uiRUJOASghH3Zc0zQqVLOp+F8oYPAwCIJAqAlke87yEsB9gjIfh3C+TQjhcleVPLx59Bt096k065Mb5RkI46HMQwnG0IvKUEVAdJZRFalH3uywygM0gAAJyAlke84IIYYyH4XoChHAjv6COFPQ5COFwjoun9QlkeVLwqmXU/U6fJlKCAAiknUCWxzwI4eS9K/dC+LvJv6H/u/4hKXm+OiwLV9B5jmfKYnv+88zdNP319+jLDRvtf+66x89o99MupH77dneUrQqNMMkreXdCiWkkkPSksHHRXJo1+X76z1vP0ZxPVxWRtNqX9j93OB13Qg8HIt6P+gyZRD9z/cYSTh35Q3rsjc502p9H057bNaG4+t2mBQ/RX4f8jlYf9QBdPaQHfXr3MHrspbeJ9rresWmV979XXv5PqV7djriETh1yJDa2ptH5YVMuCSQ95jHIpmODbC7vOfB3dPLFA+jDa+Wb5dwb6TEeRuPeuRfCbAIcM3oGbfryRXrv05W2QO3UpRhD3OWUm+3JVyZOdZ5jeTBH/duNj9gCmOddaJhD/2mcSN0CwE8Im+YVjYsgl6wTSHJSKK1mTPmGtrT60q6NfWnZly/YonjrQX+jodZAz/9MhXBc/U4UwkfVX2eJ4MVFEwUhzNOwvtz7uLOorTVM8HHDLZiz7jOwHwSyTCDJMc8WwY0v0rpjg5iej5NMFyyyFsuW9z6Ddql/id6bf1zFqRFuIYzxMBovzb0Q5hj9PrX6iVO/50rOvvnpdP6IW6ibJar5XynPNRscccleZQXJKxoXQS5ZJ5DkpMCE8KQ/j6XtT/6l0989jgQyFcI6/TVIX+HPrOy5N7Ve0J2OvN2jvzY7paIv8zHAa1U76/4D+0EgawQSHfP4kaeaY0Npjq/fvfSlq6QL+DhpLSRQ2zOVQhjjYTSeCSHcyDEOIWx/1rVWlrw24HERIK6SeQnhIHlF4yLIJesEkpwU/FjJ+lgcQjhIXxFXaGT9Nej4kHXfgf0gkEUCSY55pmOD6sW5pAEsYe0+R9jrjgE/GzAeqj0YQjgmIawT8C5zeJkQDpqXuvmRIg8EkpwUxJWNme+Op6/enUnL582iFQ0zSvHCotCMWggH7SslIdzn1xUX2ajyVP2eBx9DHUEgTQSSGvNUfV/2u3vfg5ub34UapkJYZR8rW6ZD8jYeQgjHJYQ1boiTOalUCAfMK00DE2ypHoGkJgV7ULU+7ZU2mrF/sDbJdevWhDrs2MP6rRgbH6sQDthXxBhhMYbZMVFYYUy+f65PmdVrcZQMAvkmkNSYJ4Y46owNXUh+a5z4bKRCGOOhVkeAEIYQ1nIUJMougaQmBUaIf6Jj4T6/HDLAcZJCEqERqlNXuFh3X2GqJYStmL4fHd7L0xEaCt3o0IsvxOkR2e0qsLxGCCQ15onxvjpjQ5taEsI1NB5CCMclhD02Bzne/CRva6FDI3pcW/Fpt0bGNlQjIIHEJgWFz8ti1aoaGiH0FV8hrNGXAzYNHgMBEIiBQFrGPHfVSqu9s3tUbJTjaSNdEdYYu7xOxeLHSVZ8IdPIM4YmjTVLCOGYhDDLNkiQOjbLxervucw8sUnB5zOceKyaLDTCfayavXLL85Psro5rcwg7R9g98Ov05Vw6FioNAiklkNSYF2Rs4LrA65QZ8dSbam+Wy8t4CCHc2JH9VqZUZ/uyCzlkTq11jJNrkg91fJpEMKR0nIJZCRJIalLwW+3gwpVVWxTCfmKXTxgszphfqMGx+fXXIP3Ob0WYlemXJ/t9mXVe+JymN9CP9mmaYMuiKBAAARmBpMa8IGNDaSxpulfFuMYu2Xj+svPpA7YfweD4NIyH4foBhHAjP9E5ex/Wi9rRHNpm/yftic1PCPs9x7IWBYDsQg33UU06ZxazfHXyCucaeLpWCCQ5KZRuOrLEK+tH7NIJ+zKN+QPp+NPn04v3v1lxnGCpj7ifaXYFHbPd/fTKhC6VEwY/wN6aTNz9NUi/Uwlhrzztfx/3uH1hjtcxibXiR6gHCGSFQJJjXpCxwU8XsNvldpp3J42dd6z28WlR65C8jYcQwkLPFm9uY6tQx//mWaUQZo97PcezZm95L95xF703ZXKpNCZkD7viT45LB9iPqs0+JnllZdCCnfESSHpSYKujoxtvU2Q1YwP7gaf8klpN/indPapSCBcnkuvoxYf+WbqCnD1z0iUX0ry7nVcsi6Si7Hc6Az8re+m7D9DbT71c0Zdl16XH26rIHQRAwItA0mNekLHBHkuevM2+0Zb9td2tH+11+nA6ct+m5N7Mq6MNMB4G7w8QwsHZ4UkQyASBakwKmQADI0EABGqSAMa8mmzW2CoFIRwbWmQMAukggEkhHe0AK0AABJIhgDEvGc61UgqEcK20JOoBAh4EMCnANUAABPJEAGNenlo7fF0hhMMzRA4gkGoCmBRS3TwwDgRAIGICGPMiBlrj2UEI13gDo3oggEkBPgACIJAnAhjz8tTa4esKIRyeIXIAgVQTwKSQ6uaBcSAAAhETwJgXMdAazw5CuMYbGNUDAUwK8AEQAIE8EcCYl6fWDl9XCOHwDJEDCKSaACaFVDcPjAMBEIiYAMa8iIHWeHYQwjXewKgeCGBSgA+AAAjkiQDGvDy1dvi6QgiHZ4gcQCDVBDAppLp5YBwIgEDEBDDmRQy0xrODEK7xBkb1QACTAnwABEAgTwQw5uWptcPXtTB48OCG8NkgBxAAARAAARAAARAAARDIFoHCja8tSqUQZm90o0aNyhZNWAsCKSRQV1dHN46vS6FlMAkEQAAEoifwm/7tMOZFj7Vmc4QQrtmmRcVAoEgAQhieAAIgkCcCEMJ5au3wdc2EEL766bnha4ocQCBnBIafujOEcM7aHNUFARAgghCGF5gQgBA2oYW0IJAhAhDCGWosmAoCIBAZAQjhyFDmIiMI4Vw0MyqZRwIQwnlsddQZBEAAQhg+YEIAQtiEFtKCQIYIQAhnqLFgKgiAQGQEIIQjQ5mLjCCEc9HMqGQeCUAI57HVUWcQAAEIYfiACQEIYRNaSAsCGSIAIZyhxoKpIAACkRGAEI4MZS4yghDORTOjknkkACGcx1ZHnUEABCCE4QMmBGpMCG9O553UiXp/u5qGj11Oy0xIKNNuTj8/oiP1abKe/j5uKU1riOsekqTKUVY4wQTN6LgjtqdDt9pAfxu9RGCbRxbRYc+mEI6zD0fHFjmBAAikl0B+hbDXXBp1WyVVDrM7fh2QUSHsNVnGN4k2bd2KztqvQ+xCOKlyou4W4fKTdypzFsV8DmnTpMKchtXf0yfTl9K4Bd9F/IIUruZxPq0nhHX7TFIDn649cZJLOm9vv+WWLP5sMY2Ytj5pw1AeCGSSgL8QLve3htWrDBbNgj6XJMKkxumkyiEy1wHmvJVCuNDwBU0f/Sv6xxNd6KLHh1PngnkhQZ4Qr1iuvFAjeSEcpA5RP9N8uzb00z5t6fvPFtCjCzZFnX0V84uqU4kD1fe0rLRq34w6blUUx2YDXxWRRFA0hHA4iMn1Ny+/Ldv/1cKv6R/TN4SrEJ4GgZwQ0BXCDMfHk+dpzadNW29FQ4/cmrYpFFI8j0Q1l6ocJalyVHZE87unEN64aC599sw19Pa4d+nLDRuJ2p4JIRwN88C5dO69LV3Wt6V2xw1cUOIPRtWpvPNhb5VHWyv6bLU4L6trEMLhHDm5/haV/4erL54GgVohYCKEdRdHfthvBzqjS9OUL6gkNZYkVU4yHikVwlNH/pAee2kxUat96aBzjqO1/7iJPmh2CoRwMm3iWUpyE3PSFY2qU/nnw9/o26+JI4Y8aWbq8iCE1Yz8UiTX36Ly/3D1xdMgUCsEdIQw25MyZVFz2m37psrFJT53tFu8lmb+oFVM+5CioJ/UWJJUOVEwUefhKYTfbXIzDTq5P3Xo9CY9c9q5NS6Em9FevdtS/y5blD6hFxo20uJF39Aj76xujCmVh2M4xdVK2qFfR+rfuXnj55O1NG5aHb2+8DurJYplHNlnS/s3lv+iz+voH9PWuGJWK8vZbLv2dOOPt5K2pvuzDlv5PNIKnzi8cws7fWU9itmUO/YKuu4/a+mHlt1ndGlR8cmH57f79sU6sb+lq9bSx9N5vdROxlPI8vpq4UqL8Srq57FZzmzzo6pzVv6uw6Fp681o9+3bVPjHJ58t9fxcLa/r11Zd13nUlbWJeTl+9JMQwnH7P/P9M/tuKYS2iH2qsvZR+P+dU4muMOxv4fqHym+9Wlln3OL9vTguhLNTv68jJQhUk4CuEH54/Do6tn87areYzYOrPE1mq8E/6dxAr4xfTjse3tFTCJvMl+65x60PPvmsjl6b7tYH3v3Zfy4NNr+Yz9nm4416Do5/34g6Rrh+Uo0L4eKOxL7WJ3O2oWrqSiZamYJsRp1ab6CHx/HTJ1RCeB1Nr29pb6abutI6UcJ6frfti2L048kL6fPtfmB3pMWLNlixq0Tbbt/KFpabFi13dcDKcpijnNmnJTVpvbltJxOiS1YVT61Y9NnXNH5lvUPcsny/WvitXQ5/xv35R3S+pze1lX7yYSLkyh+1tu0slSnUyyTEwBlftbbEaNvtmlP7NUV2u0pOjYhWCMvZsrgvNhDKOYjxm412W7Q7bbW5Lc4q26/8klGMJdOtq3k5qokmWSEcvf8/Pr+5FRPfsuTLYp+S+Z7oY2H8//Z3NtKAXVoo+1t0/SOIENYdt4iis1PlcfgdBNJBQFcIPzT6a+ran51YVE+vjl9YmkudtRDmjXFraeCJ8pOpTPtZeQ5eRf/eojUd3GRTUX9YcyybF+X6ILn5JdicbT7eqLUIhLDtj/FtliuLDyZWH7VOFPD+8xfCMqcVV3ILDesqjgZjIq9PYb3032VHwPl/qi3ax/L7++tL6NNGoczqw58TxUN5JW8jLd9io/Wm63yG/96BKvNjx5mwsnZpUlB+Uiry5LZtkgw25TbwYqR/HJ6/oODtIYpXFQe2kn/Mfq1pwYxvHEzZv3sd+VZsB9O6mpajnnCSFMJR+z/zLeYPbl8u+6Wbb7T+L/Yb2WaaaPuHqRDWH7eitVPtc0gBAmkgoCuE2XGdM7fd2v7iKlvUqBwHmkuPaA3Sz5wv7uxrIf/6XBa7bP51HymazPwSbM4Ow6H9GrkW4fpBXweYe2CuV4RlwiioEK502LIA9BKMPPjeOdF6v/34CWEdkSw6ktgJZRO93LYyHRN2MiEue+M2eSmQt5OXoCiHpbjbScXBr0vJmAevq3dJQWNVkxTCUfu//EWiyEjGOGr/VwnhKPsHf6mSHfvH7GDhTeJqlUnfi9ZO8wkGT4BANQiYCOFpDU09FjXKc3h57pTPz0H6mSganWK3SEyWZ1LzS9BywnBgiynyEzywImw7RFwrwjzux/uTiNiFVaERsg1YXJjJP7vIJ+8gQli1ouQdGyvfOKbKrzxAVIrXymFPzdl/dVX/TbC8UiYbfFmYwtjJyxyfv/Q30DWz4iu3pO06b2aFzDSnDtbnK34km9h5g9eVW6xXjs7kkqQQ9vejaPyf19kZU8bi+lT+aur/TsFdOTiryjPrH6IQZuFZ5WP/eI030kfvlv1W7WNlX5J/tagc13T6sY7PIQ0IpIGAmRBusMOH2KqwO+Sqco6Wzc/BxgPV3CPTB+q+r7JFb34JVo6qbPm4qOKAFeFRo2IUwjqNFpUQdt+Y5jfRBhHC5VAFv0FIDD2oFBPqujrz1uWnky56IVwWFBut+ObvadGCNY2bFp218OfA0jYrbSRk/4utzi1ZXW/FaH9figMvC6UwdTUpR2+qSY8Qjsb/y7V295Go/V8lhHVWKHR8wUSwBkkbtZ16fodUIFBtAqZCuBy+J4YilMOtyiu2sj4VrJ+p5p5KIawzpnh/FeUb4uObx+LhACEMIew4UcL78285nmfKQu9D9wtkxQJPXmHnWctCuPKqZu9hWXcwYvFjt1u7isVru6McqHheeuXoTTO1KoQr2yxq/4cQ1vMwpAKBdBIwF8KVIVfyVeJsCmGz+SWo4IYQjrw3xH+znH/YQmWFwoRGRLMi5i2EdRzXZCVUJz8dpy+uqBY/z/rtyo12RTg6IezPoTIeKmhdTcvR6256QlinrVl51fd/XuvKGFndOpS5qV6AWMpw/U23f4h9RD5OOFtbx8dMVo9N7NTzO6QCgWoTCCKEnWPcSoMjPXXGn8p+phqDvBdaTOdS0/lFZ4yR5RkPB6wIx7oiLN90492Bqy8E/DYEqYLU3fVSdUJVfkE27Hgdt+a9acB0ktbpiCYvBH7lF8tiG5zcMcLs9iGzupqXozPR6Anh8qYMv+PwvDZP+Md3+beHX4y832Y5mW+q/NXU//2FsHwji1iGSf9Qxzg7rVdvZCmnV3Exs1PH65AGBKpPIJgQLmuCKdYpQdv1bkPff/4VjZi2XqhQ9JvlvM4w9ooRTmJ+4eOG2TwWbFxUaREI4ZiFsHis12uTl7hiSIvHWb0/uc7gQg1+5rDeiozpZjmvgH5Wmv+xJUTbWZsB+hTYJRjOM4e9OqHOMSh+YkUcCr2PvGJ2t6JzrHOc+XFZsqNiTDfLRb8iXPkGztuO1VMUwsHq6v0G7lWOzlSjK4RFmz96d0nFMYLMd86yzpOWnQwRlxBm/iC7+pTZwi678DoXW37cn7n/M77B+5vf0UOyljN9gSvnrxq3ouzHOj6HNCCQBgJBhbB4ipD7tJZivfwXxPyOG3XPlyoBKNMHSc0vwcpR6RD5uKjiACEcuxB2Hv5cefmBeBJE9VeERee0L+awwg4Wz/+qJG5F0SReusEv75AJNr8bdaT5OS4KmWeJpk1a455fXuxGnM+3bG2FT7g/DVd7Rbgshoo39BUvQ2GXabDLVsbNKNAR1oUP7lMFgtSViy6TclTgdYWwuPrJ/ptvCGT/3cS67Y7fhPjRu4sq2jsuIdz7W37JSn2JO78cRj5BlVdzmN1R+H+g/haof5S/LshPjWA1suL7X19K0xqKF+mIh/f7j1seXALZqfI4/A4C6SAQVAgz6/lqqPxcYfVmdsf449PPVALQ6wtwUvNLkHLcc4nsIq7K23C3In6plfx2P1MdYO6DuT5HmOPyuhbxtclLhUsUqi+E3RMgEwSvWReB8FVe9vt227Wxr3Hu26Z5yRtkVyKrOqHI5qz92lXk52Sj53hF29rat+OxPzbpfzJ9qSWu6n0vp6jeinCxXnxFlF8xzYT7OOuK6TrrtsDL+lYK4XI7mNQ1WDl+5E2EMMuH9QPWA2u9JAAAE4NJREFU1p22Kopf9sev6H7Uugr8q9VFESb+xSeE2Uto8cpydvV32ZZvbfbihTGiPVH7vyg4Zf2NM3P3N7P+URbCXu1ZedlMsb1k1ybLyo7GTr1+jlQgUG0CYYRwcUzbij4Yv0hy05y/KDPpZ6o52C8U0nwuDTa/BClHnEt0xkUVB6wIe64IV7uboXwQCEog/rdbbpmpEA5aIzwHAiAAAmki4C+E02QpbEkDAeWKcLWM9D81olpWoVwQCEcgyc1JEMLh2gpPgwAIZJMAhHA2261aVkMIV4s8yq1RApvTMf2a0fvvlu+N5xX124AQBwwI4TioIk8QAIG0E4AQTnsLpcs+COF0tQesyTyBYuhD8dSDtTR1ZTGulm2wY1cyszhT2ckMcVQbQjgOqsgTBEAg7QQghNPeQumyD0I4Xe0Ba2qAgGzDFtsYuGTVWt+NXlFXHUI4aqLIDwRAIAsEIISz0ErpsRFCOD1tAUtAIFICEMKR4kRmIAACGSEAIZyRhkqJmZkQwilhBTNAIJME6urq6MbxdZm0HUaDAAiAgCkBCGFTYvlODyGc7/ZH7XNAAEI4B42MKoIACJQIQAjDGUwIFAYPHlx5Sr5JDjGmvemmm2LMHVmDAAiAAAiAAAiAAAjkmUCqV4Rfb3thntsGdQeBSAi8d+1OtO+f/htJXsgEBEAABNJOAGNe2lsoXfZBCKerPWANCEROAJNC5EiRIQiAQIoJYMxLceOk0DQI4RQ2CkwCgSgJYFKIkibyAgEQSDsBjHlpb6F02QchnK72gDUgEDkBTAqRI0WGIAACKSaAMS/FjZNC0yCEU9goMAkEoiSASSFKmsgLBEAg7QQw5qW9hdJlH4RwutoD1oBA5AQwKUSOFBmCAAikmADGvBQ3TgpNgxBOYaPAJBCIkgAmhShpIi8QAIG0E8CYl/YWSpd9EMLpag9YAwKRE8CkEDlSZAgCIJBiAhjzUtw4KTQNQjiFjQKTQCBKApgUoqSJvEAABNJOAGNe2lsoXfZBCKerPai+sBXdd/mOdFiTb+miEXNpQmrv/UsZuBDmtOrUgZ67bDvq/NlC6vPI1yFySuejmBTS2S5pt4qNRQ/8oSsdvGI5Dbh9Ac1rNNjv3zF2pb1V82FfXse8BmpBv7q8J/1Pp7V0wW/mxKYfkiqHeWsSmqhmhPApP+1LN+2+GW2cviDTYmaLjm1o+Jk7ZFYI8w7yix80rRhx65etozFvzKc7Pl5bmlTTMCznWQhzUXNo00JFU8xZupJuf/S/NG5JNt/G/HyRV/azCbNo0Nhv0+CGqbPBVAhnfexKXQPAoMAE/ISwOC7UL/va8ZLnV2DQ5wJXIsCDSQnUpMphCJIYV6RCuNDwBX169zB6e9y79OWGjXZzdN3jZ7TPFX+iPbdrEqB5zB+ZP/oG0r1imQuZnZoUqNCwOtY3IfOa5OsJ52Cxjr4oaagW1K1j0XdMBp8k6EEIdyUmhNmLCm+vptu0pGJ/2kC33/U53ftVfaxN0WG3jnRD/060buJ0uurjTRVlqX6XGefti+XUn09dQFeMi18IB7E/VuAamZsKYY0skQQEEiGgK4SZMS898al0zHEbKuqMtM1h3NakBGpS5STiLFYhFUK4UD+JRl8zmN77dCVtaYnfXbsUaNO8WfTelMm2TYfcOJ8G7FO52he1wSZCeK/+3eiJI1rTnKXrLLG1OWGVJ+rW0M/Pr4OwN7tLfroDsdXiNLURhHBX6wvEmooXSN6vkhj0eVlek5Lqdz8hHPdnQp3eEcR+nXzjTAMhHCdd5B0nARMhrDu+8a/OaVzMgRAO500VQnjTgofor5c/R/1Gjnas/tr/PuR39OXmp9NFjw+nzpVfUsNZ4npaVwiLwuuiu1bTNZduSzssd8a0RWoYMvMloHpT5KIzTW0EISwXwlwIyURy1N1AJRRVv0MIR90ixdg8kxjh6C1AjiAQjICOEGYvyK9O3ZyO2q2ZclWYzxHbf7aS3urVpiJuPpiV0T+lmn+jKjGpcqKyV5VPpRBeOIH+WziEuklCIKaO/CE99kZnOu3PTpGsKiTI77pCuMNunemtM7exY4N3eWR1Y6D4Rs/PuaIQO3LEMup3xg504W6t7M/A9ctW0d3jF9Pdn6wj1tAnWJ9qLzm8XekT8YyJS+iSsSuk8a1stXNw/4504e5b2NVln5Q/n7aUhvxzuSO9KLqYvaf+ZAe6aY8tSuEC//WYfMQ3PmbXRbu3LYUayMraomNL6m99bnane3nCvIpPwW6b3PV+ecISun2cvN7utlV1EK/fOb+jdi22BftjMaovPPal/Vmev417rRh6iVnejn68VPWXtSOvt5fdL7/xle1HafjzmxT8xC5vq/Oa1jni6FQ+zDdV6fQJ3n9lnFhb37RpW7t/e/0uC6MQ+4rpxhGTfsPKUfmtqn6i/Sa+pPJZrz5rUj9TIeyV3nTsErmqxtM09C/YkD4CukKYL56pNkqz+efm3erptpGLaO+Ld/IUwkn0Ya9xZ+bUpXTRo8vpzMvkm+VM+r7f/KYqx29clM2LqvlEpYmi8D6jzXK2EH5pcSLhEbpCmDsoj2MUhbHsBICyEF5NE+q3sDeljfuKxSQ2t94MiyL2pSdm0lu7dLUd//NpLG6ygXr1bWsLNNlmPDF2aObUb+z0zTpuRf07Na2IhxUb/bcbO9kb/Ngf/zzj1+h892Qx33WW3esbfaA5de+4ji68o7iz2xkbuaqxfkTdO7WxxbO7DmWbvqaHt96azmv6XWPeza16F4Wp7iZElRCWTZYyfrw9uPBVtatsxVCXl1j/325sa7f7q1PX2j7hV39m0z9/0t7mw0T77CUsjrbsR2kJ/wgqhL1eLlQ+zHxQt0+wdH/q36rUX8ociaZbGysfbmjv+7tf7LLKF90DaNB+w9qf93u336rqx+039aUgfda0flEKYd2+yNpE13eimACRR20S0BXCF/zvAup3KROO3otnYj84csQq+q3kJBVGMYk+7O4fbPGO6xc2V+2wvKhrjujoPDXCtO8HLScch4Vkqomi8l5zIZyiFWHZQK36nCsOsm5xJ67euDfdeeUr/vuQO+c6dthzcSYKorIQX0/z2m+kW+9yPuM1+YiOzIT6VdbJC15/LO3VP92aplirkuKOfy9h4Jx45jtWsflvXQuVMaSy8lXiQyZo3S8zPF+WV4+O39HspQ0lcS+L95SVacJLr/7fOb4yiFzc7S6exKC7ESOqDi3LJ4gQ7mN9TbjjJyzMaHXFMX66PsxCKnT6BLNZFfqg+j2IL8qEsEm/0fFbXoaf/UF8Sc9nnX3WdFyISgib9EXT8TTOfoO8s0tAWwhbR4xN3bX8VVm2eCb23Ss+2UIaLpRUHy73D+d8xFpK7Gdu/RK07x/WxKycMBx2WG6miaL0Tm0hXIoR7vNruvamwbRVCmKEZUKTwfH7jO4n7FQCRpav3wSnWv2UiSSvyUe1IqrrFDJ7VWJXFZYglu0lhMVQE1FUq4SzmLcXa27/+kmzS0dhmfAKUn8VE5PyddsuaDodISw7Ps1rE4kowmQ+bNon4hbCsqP8WJkmJ2K462Tit6r6BfGlID7r5z9eX1RMYoSjGLuC+E7QfoHnapeAiRB+o8H77F23T3t9sU2qD3tpHt6SqoVAWYvL+lzQcsJwYF/WTDRRlN6rJYTZcWoTrzmOxk75JpGwCFZBVWhEeSKq/KRRXrGq3DTn95tfnrLJTDUZyn73K5+V4TWZeK0++TkDK/9YK5a4T9+WVliEdRxWoXyEmehwKptMVuPEt1KZbexTzp3W2bTiJ23eeZjwuvSfCz3PrfX6VM/se7J/c8eKrQkv0/qr2l1sxyQ2mqkGBF0hLB6fRpbvsDAaJhZffPJLxxcIvT4kP9Ddi53Kx1S/yxg4PweKR/nx1N+VYtDdL3M6/UbXb/2EcFBfMvXZIPWLakVYty+qWKh+V/UD/J4fAiZCmF1axRcu3OFs7nFH1id0/FImUIP0YVVfUtmiqwmClKMq22teVHFQ7T2IwquVQlgUwX2GTKKfndAjinKVeaiEsJcoYhkHFcmqhvTqFLLVNLGC4mcKP7u9hLDKLjdMlp5vwmO/MTEze1m9FcPKYoqLMawyIey1YcBEhMjFhxXesIRtHqyTbiBzi2cWJyoLqvcLgRA3dJnyUrWJzmAoawPTjVrKThEwgY4Qlgl2fpA5i0nX9Rfxq4qfue5PdyofU/3uJ4R1j08z7Te6fusnhHUGeb8XapM+a1q/KISwSV8M6jsBuwUeq2ECpkJYJlT9/k28bTGpPqzTl7zSmPT9oOXExUEn37Cu7CuES+EQTfeiw667jY7o1z1sedrPq4SweKafX6buN7wwq1legojF0RQ3V3n9fU+3PrrI3simEl1B3zjFkrmdLAb6aOvKYL6L32tCVtlkIkJ0OpEXpW7WZr6rf/oDa5Ph5nYStnrsvmbabYssLMLUBtP663RMUxu0O0aAhEGFMCtKFuLhx0uMYdPtE35CkVfXxAf5M6ZtYNpveDlB/JY/G9SXTH1WZKw7LlRLCJuMpwG6Ax7JAQFTISz2D64ZZKvEsj6RVB/WGc9UX9x0+n7QcuLioJNvWJf2FMKLR59Bd49609rFcj2df9kF0uPUwhbu97yfEBZXDtglGvI//mnXedNclEJYx2HctqkmMH8h7L2zVXfyl8XwqGwyESFBmLgZiW+v7g2NnM+Bny+0r9IufsJZ77gMwu+LgMxXTOuvU8ckOq9u/wsjhGVs9L7GmN11r/Ix1e8yFjrtFKbfmPitl/06NvrtNdBdEVaVIxsXohXC4ccuXX9HOhAIIoRFf2dHq8qOIQu6UBVtH/buS35fTb2+jLn7vs78GaQce3FLcjysav5NYi6VCmEugrsNephOHXJk7BvjZN3WTwjrbkTyE32yCx1Uk4VsMlMFh0chhGVvq15DnZ/TiJ9ydT9166zWibaoGOoO0bLPUvxZLn5/+b/WYHVDV+KiWMxbFewvplV1xCDtruujujzCpAsjhE1XhJmdpn1Cx8fiFsJB+o2sTbz81s9+Fa8gbWASzuM1LkQhhE3GrqC+E6Zv4NnaJBBECIu+OsY6canPoZ1I3IDtJeR0/DaKPiyW43U0p2wTbZCxjY9JJuXExaEqQpiHQ6w+6gEaevGAqvUSLyHsNWjLDOXOJ+5+j3JFmJUpOp77qCj2e5/dO9PhZF3SMYWdVRwsNELsgOyz4Z1P/NcRa8uYsGOfnnpsMX1p/XcxNrXyrZFPjiy/tAhhZvuuuzWhaZ86V/b9nJ+362uf1lnxzu18d5qqeOmEq8hEjF+7i+EB/HzrqnUkq+CgQpjFCI+4bCdiMfAm/mLaJxgbr80qnJvqdxlfk5cyv1UQWb8x9Vs/+4P4kunLm2n9/Cb9oALZpC+yk2V0xtNq9iuUnV4CQYUw71fsBAPZqTJevp9EH3bqjcpjzcTxWtyDEaTvl+ujX45KD3nNi6qxrCpCOMnb4/y6kZcQVu0wFPOUgY9aCItvkey/xQsB+CUcJiJCJQD5BQ6VB2mXT8jgk27xxrnihSDsMo3uHb6lu98o0MX9tzQSNiarcSbig/ESOym3lV9k0bXwnXViATszufgSwf/E0Bj3pisxnXjAuR8vVUf0qr8okGQXaqThDGHGQ0cIM7ErOzWCPe8VZ+93G5OcDZUupnGzEQfeoh9sRp9PnVvxAsl8Qva7nxBmx6c56yam/o5uueMLEneO6/QbU79V1c/Ul4L4rOm4EFTwihuJxBcZnbHLdDxNrxSDZdUkEFQIM5v5aqjsEim/+TmJPuzdP4qb4Nmtb29u095aCHOGppn2/aDlqJ5jv3uN/V7zSeJCuHRCxOwe1PuwXtTW46zgZl0G0AEnHBFryISXEDb55C02Cp/M4xDCrBx2AcGl/duVNnpxUew+/UA1gaka3esKx9utI8nEyzPYSvQdZxRvPWN/rIPc+fpi+nrXnemJI1qnRggX26gL/XH3dq4ro1fa9op1EgdWXT/Q4aVqE78XgeLJCuUNfrzd3e2R1klBfKlw2+h1eoeKF89Ht0/IxBITo3c+PrMkhFka8cVG9rvbfvHrkRd/94uUSb8x9VuV/Sa+pGoDL581qV+UQpjx1+mLQX2nmv0LZaePQBghXOxb7Wn0yJmOYz5ZLXXmZ935IGgfLuuNTvbttbZd1k2zY6ybOK+0Fo28Tisy6fvOfmhWDu/rUXFQMY/C+xwxwuJRab6ZWxvo4r5UQ3VqRBSVRx7ZJaA65zC7NYvecr9JIfrSkCMIgAAIVJcAxrzq8s9a6cpzhKtVIQjhapFPf7km4THpr038FmJSiJ8xSgABEEgPAYx56WmLLFgCIZyFVoKNDgKqXfbA5SSASQEeAQIgkCcCGPPy1Nrh6wohHJ4hckiAAIvH/IO16Wl+h9Z2XJRsI0MCZmSyCEwKmWw2GA0CIBCQAMa8gOBy+hiEcE4bPmvV5pt/2CapGROX0CVjVzhuzMtafZK0F5NCkrRRFgiAQLUJYMyrdgtkq3wI4Wy1F6wFAWMCmBSMkeEBEACBDBPAmJfhxquC6RDCVYCOIkEgSQKYFJKkjbJAAASqTQBjXrVbIFvlQwhnq71gLQgYE8CkYIwMD4AACGSYAMa8DDdeFUwvDB48uKEK5WoVedNNN2mlQyIQAAEQAAEQAAEQAAEQMCXw/wEIYKnaOpf1yQAAAABJRU5ErkJggg==;" vertex="1" parent="1">
          <mxGeometry x="-20" y="1320" width="706" height="280" as="geometry" />
        </mxCell>
      </root>
    </mxGraphModel>
  </diagram>
</mxfile>
